<svg width="346" height="322" viewBox="0 0 346 322" fill="none" xmlns="http://www.w3.org/2000/svg">
<path fill-rule="evenodd" clip-rule="evenodd" d="M277.853 4.11056C271.38 -1.82973 261.438 -1.26492 255.645 5.37213C249.852 12.0091 250.403 22.2051 256.875 28.1454C292.293 60.6526 314.546 107.842 314.546 160.382C314.546 222.733 265.256 273.277 204.455 273.277C143.653 273.277 94.3635 222.733 94.3635 160.382C94.3635 133.661 115.488 111.999 141.545 111.999C167.603 111.999 188.727 133.661 188.727 160.382C188.727 169.289 195.769 176.51 204.455 176.51C213.14 176.51 220.182 169.289 220.182 160.382C220.182 115.846 184.974 79.7429 141.545 79.7429C98.1159 79.7429 62.909 115.846 62.909 160.382C62.909 240.547 126.281 305.533 204.455 305.533C282.628 305.533 346 240.547 346 160.382C346 98.2858 319.655 42.478 277.853 4.11056ZM141.546 15.2311C63.372 15.2311 0 80.2173 0 160.381C0 223.004 26.7928 279.23 69.2125 317.624C75.7249 323.518 85.6634 322.882 91.4111 316.204C97.1589 309.526 96.5392 299.334 90.0271 293.44C54.0853 260.91 31.4546 213.366 31.4546 160.381C31.4546 98.0313 80.7439 47.4869 141.546 47.4869C202.347 47.4869 251.637 98.0313 251.637 160.381C251.637 187.102 230.512 208.765 204.455 208.765C178.397 208.765 157.273 187.102 157.273 160.381C157.273 151.475 150.231 144.254 141.546 144.254C132.86 144.254 125.818 151.475 125.818 160.381C125.818 204.917 161.026 241.021 204.455 241.021C247.884 241.021 283.091 204.917 283.091 160.381C283.091 80.2173 219.719 15.2311 141.546 15.2311Z" fill="#708090"/>
</svg>
