<?xml version="1.0" standalone="no"?>
<svg id="pattern_06" width="1200" height="694" viewBox="0 0 1200 694" fill="none" xmlns="http://www.w3.org/2000/svg" style="max-width: 100%; max-height: 100%;">
<g clip-path="url(#clip0_16_421)">
<mask id="mask0_16_421" style="mask-type:luminance" maskUnits="userSpaceOnUse" x="0" y="0" width="1200" height="694">
<path d="M1200 0H0V693.571H1200V0Z" fill="white" stroke-dasharray="0,0,0,0,0,3787.14208984375"><animate attributeType="XML" attributeName="stroke-dasharray" repeatCount="indefinite" dur="37.04046116699324s" values="0,0,0,0,0,3787.14208984375; 
          0,0,0,1035.1521712239585,681.685576171875,2070.304342447917; 
          0,0,1262.3806966145833,0,2524.7613932291665,3787.14208984375; 
          0,0,2524.7613932291665,0,1262.3806966145833,3787.14208984375; 
          0,0,3155.9517415364585,631.1903483072916,0,0; 
          0,3787.14208984375,0,1262.3806966145833,0,3787.14208984375" keyTimes="0; 0.16666666666666666; 0.3333; 0.6666; 0.8333; 1"></animate></path>
</mask>
<g mask="url(#mask0_16_421)">
<path d="M1200 0H0V693.571H1200V0Z" fill="#221E1E" stroke-dasharray="0,0,0,0,0,3787.14208984375"><animate attributeType="XML" attributeName="stroke-dasharray" repeatCount="indefinite" dur="36.716872292891985s" values="0,0,0,0,0,3787.14208984375; 
          0,0,0,1035.1521712239585,681.685576171875,2070.304342447917; 
          0,0,1262.3806966145833,0,2524.7613932291665,3787.14208984375; 
          0,0,2524.7613932291665,0,1262.3806966145833,3787.14208984375; 
          0,0,3155.9517415364585,631.1903483072916,0,0; 
          0,3787.14208984375,0,1262.3806966145833,0,3787.14208984375" keyTimes="0; 0.16666666666666666; 0.3333; 0.6666; 0.8333; 1"></animate></path>
<path d="M784.902 327.084C796.817 374.728 786.687 438.864 737.482 461.528C728.317 465.386 720.116 470.208 711.433 475.031C679.595 491.426 656.44 523.735 620.743 527.593C559.479 534.344 488.567 516.984 455.282 458.635C444.669 440.31 459.623 421.021 455.764 400.768C443.704 340.972 394.982 258.029 463 218.005C468.789 214.629 475.542 214.629 481.331 212.218C515.099 197.269 548.866 171.229 587.458 179.427C618.813 163.996 651.616 145.189 689.243 153.387C718.187 159.173 737 182.802 747.613 208.36C759.673 237.776 762.567 270.085 775.881 298.681C778.968 307.988 781.911 317.439 784.902 327.084Z" stroke="#F89BA5" stroke-width="2" stroke-dasharray="0,0,0,0,0,1186.020263671875"><animate attributeType="XML" attributeName="stroke-dasharray" repeatCount="indefinite" dur="37.20399532797123s" values="0,0,0,0,0,1186.020263671875; 
          0,0,0,324.17887207031254,213.4836474609375,648.3577441406251; 
          0,0,395.340087890625,0,790.68017578125,1186.020263671875; 
          0,0,790.68017578125,0,395.340087890625,1186.020263671875; 
          0,0,988.3502197265625,197.6700439453125,0,0; 
          0,1186.020263671875,0,395.340087890625,0,1186.020263671875" keyTimes="0; 0.16666666666666666; 0.3333; 0.6666; 0.8333; 1"></animate></path>
<path d="M784.902 327.084C796.817 374.728 786.687 438.864 737.482 461.528C728.317 465.386 720.116 470.208 711.433 475.031C679.595 491.426 656.44 523.735 620.743 527.593C559.479 534.344 488.567 516.984 455.282 458.635C444.669 440.31 459.623 421.021 455.764 400.768C443.704 340.972 394.982 258.029 463 218.005C468.789 214.629 475.542 214.629 481.331 212.218C515.099 197.269 548.866 171.229 587.458 179.427C618.813 163.996 651.616 145.189 689.243 153.387C718.187 159.173 737 182.802 747.613 208.36C759.673 237.776 762.567 270.085 775.881 298.681C778.968 307.988 781.911 317.439 784.902 327.084Z" stroke="url(#paint0_radial_16_421)" stroke-width="2" stroke-dasharray="0,0,0,0,0,1186.020263671875"><animate attributeType="XML" attributeName="stroke-dasharray" repeatCount="indefinite" dur="36.404363027191195s" values="0,0,0,0,0,1186.020263671875; 
          0,0,0,324.17887207031254,213.4836474609375,648.3577441406251; 
          0,0,395.340087890625,0,790.68017578125,1186.020263671875; 
          0,0,790.68017578125,0,395.340087890625,1186.020263671875; 
          0,0,988.3502197265625,197.6700439453125,0,0; 
          0,1186.020263671875,0,395.340087890625,0,1186.020263671875" keyTimes="0; 0.16666666666666666; 0.3333; 0.6666; 0.8333; 1"></animate></path>
<path d="M788.761 281.851C793.778 293.569 797.637 305.818 800.242 318.307C805.017 373.763 790.063 431.148 753.884 475.513C746.744 484.193 739.46 492.583 731.742 500.395C723.975 508.159 715.823 515.344 706.464 520.89C644.38 554.115 565.267 555.08 503.038 522.771C470.718 505.893 449.01 475.995 433.14 443.493C425.807 432.884 419.198 421.793 413.554 410.316C407.91 398.839 403.472 386.88 401.253 374.438C389.676 308.663 427.785 251.76 466.859 200.162C473.468 191.482 480.848 183.815 488.904 177.209C527.158 152.422 573.95 147.6 618.813 154.833C632.803 156.762 646.31 160.138 660.299 161.584C671.394 163.128 682.393 165.635 693.054 169.059C703.618 172.579 713.845 177.064 722.817 183.381C741.824 196.305 756.296 214.147 767.777 233.581C776.508 247.999 783.599 264.154 788.761 281.851Z" stroke="#F89BA5" stroke-width="2" stroke-dasharray="0,0,0,0,0,1256.009033203125"><animate attributeType="XML" attributeName="stroke-dasharray" repeatCount="indefinite" dur="37.13059822600411s" values="0,0,0,0,0,1256.009033203125; 
          0,0,0,343.30913574218755,226.0816259765625,686.6182714843751; 
          0,0,418.669677734375,0,837.33935546875,1256.009033203125; 
          0,0,837.33935546875,0,418.669677734375,1256.009033203125; 
          0,0,1046.6741943359375,209.3348388671875,0,0; 
          0,1256.009033203125,0,418.669677734375,0,1256.009033203125" keyTimes="0; 0.16666666666666666; 0.3333; 0.6666; 0.8333; 1"></animate></path>
<path d="M788.761 281.851C793.778 293.569 797.637 305.818 800.242 318.307C805.017 373.763 790.063 431.148 753.884 475.513C746.744 484.193 739.46 492.583 731.742 500.395C723.975 508.159 715.823 515.344 706.464 520.89C644.38 554.115 565.267 555.08 503.038 522.771C470.718 505.893 449.01 475.995 433.14 443.493C425.807 432.884 419.198 421.793 413.554 410.316C407.91 398.839 403.472 386.88 401.253 374.438C389.676 308.663 427.785 251.76 466.859 200.162C473.468 191.482 480.848 183.815 488.904 177.209C527.158 152.422 573.95 147.6 618.813 154.833C632.803 156.762 646.31 160.138 660.299 161.584C671.394 163.128 682.393 165.635 693.054 169.059C703.618 172.579 713.845 177.064 722.817 183.381C741.824 196.305 756.296 214.147 767.777 233.581C776.508 247.999 783.599 264.154 788.761 281.851Z" stroke="url(#paint1_radial_16_421)" stroke-width="2" stroke-dasharray="0,0,0,0,0,1256.009033203125"><animate attributeType="XML" attributeName="stroke-dasharray" repeatCount="indefinite" dur="35.80693172219432s" values="0,0,0,0,0,1256.009033203125; 
          0,0,0,343.30913574218755,226.0816259765625,686.6182714843751; 
          0,0,418.669677734375,0,837.33935546875,1256.009033203125; 
          0,0,837.33935546875,0,418.669677734375,1256.009033203125; 
          0,0,1046.6741943359375,209.3348388671875,0,0; 
          0,1256.009033203125,0,418.669677734375,0,1256.009033203125" keyTimes="0; 0.16666666666666666; 0.3333; 0.6666; 0.8333; 1"></animate></path>
<path d="M802.895 257.354C820.454 300.947 836.373 346.276 828.655 394.499C822.866 432.112 801.641 462.975 779.306 492.294C772.697 500.058 765.365 507.098 757.405 514.525C725.423 544.374 683.31 563.133 638.592 564.724C543.56 568.1 452.387 521.806 398.842 439.828C372.792 399.803 378.099 352.545 388.615 309.627C391.172 298.777 395.32 287.734 397.202 278.428C410.902 225.72 433.574 174.122 483.261 143.26C521.129 120.113 565.509 104.2 608.973 101.789C623.444 100.969 637.82 101.596 651.472 103.573C719.152 109.986 772.215 164.96 791.993 227.456C795.804 237.197 799.47 247.179 802.895 257.354Z" stroke="#F89BA5" stroke-width="2" stroke-dasharray="0,0,0,0,0,1435.39306640625"><animate attributeType="XML" attributeName="stroke-dasharray" repeatCount="indefinite" dur="35.73448930491858s" values="0,0,0,0,0,1435.39306640625; 
          0,0,0,392.34077148437507,258.37075195312497,784.6815429687501; 
          0,0,478.46435546875,0,956.9287109375,1435.39306640625; 
          0,0,956.9287109375,0,478.46435546875,1435.39306640625; 
          0,0,1196.160888671875,239.232177734375,0,0; 
          0,1435.39306640625,0,478.46435546875,0,1435.39306640625" keyTimes="0; 0.16666666666666666; 0.3333; 0.6666; 0.8333; 1"></animate></path>
<path d="M802.895 257.354C820.454 300.947 836.373 346.276 828.655 394.499C822.866 432.112 801.641 462.975 779.306 492.294C772.697 500.058 765.365 507.098 757.405 514.525C725.423 544.374 683.31 563.133 638.592 564.724C543.56 568.1 452.387 521.806 398.842 439.828C372.792 399.803 378.099 352.545 388.615 309.627C391.172 298.777 395.32 287.734 397.202 278.428C410.902 225.72 433.574 174.122 483.261 143.26C521.129 120.113 565.509 104.2 608.973 101.789C623.444 100.969 637.82 101.596 651.472 103.573C719.152 109.986 772.215 164.96 791.993 227.456C795.804 237.197 799.47 247.179 802.895 257.354Z" stroke="url(#paint2_radial_16_421)" stroke-width="2" stroke-dasharray="0,0,0,0,0,1435.39306640625"><animate attributeType="XML" attributeName="stroke-dasharray" repeatCount="indefinite" dur="36.5006043124522s" values="0,0,0,0,0,1435.39306640625; 
          0,0,0,392.34077148437507,258.37075195312497,784.6815429687501; 
          0,0,478.46435546875,0,956.9287109375,1435.39306640625; 
          0,0,956.9287109375,0,478.46435546875,1435.39306640625; 
          0,0,1196.160888671875,239.232177734375,0,0; 
          0,1435.39306640625,0,478.46435546875,0,1435.39306640625" keyTimes="0; 0.16666666666666666; 0.3333; 0.6666; 0.8333; 1"></animate></path>
<path d="M778.341 202.477C800.869 232.954 814.376 267.674 824.217 304.323C827.353 316.523 829.62 328.868 830.44 341.213C834.588 406.941 805.79 468.472 760.107 516.164C750.941 525.712 741.149 534.682 730.777 543.072C662.76 579.722 582.2 575.864 507.429 557.539C465.46 547.412 434.587 513.657 414.616 476.477C409.599 467.219 404.92 457.671 399.372 448.556C393.68 439.491 388.518 430.087 383.936 420.443C378.436 408.821 373.709 396.814 369.946 384.469C359.816 337.693 378.147 291.399 401.784 250.41C410.95 234.979 421.562 221.477 429.763 205.081C436.42 192.061 444.573 180.295 453.883 169.927C463.241 159.608 473.757 150.686 485.528 144.273C551.761 109.987 627.979 120.596 697.926 139.885C707.815 142.778 717.222 146.539 726.146 151.12C735.071 155.75 742.741 162.212 749.928 169.638C760.155 179.331 769.658 190.277 778.341 202.477Z" stroke="#F89BA5" stroke-width="2" stroke-dasharray="0,0,0,0,0,1442.1077880859375"><animate attributeType="XML" attributeName="stroke-dasharray" repeatCount="indefinite" dur="37.34395792574898s" values="0,0,0,0,0,1442.1077880859375; 
          0,0,0,394.17612874348964,259.57940185546875,788.3522574869793; 
          0,0,480.7025960286458,0,961.4051920572916,1442.1077880859375; 
          0,0,961.4051920572916,0,480.7025960286458,1442.1077880859375; 
          0,0,1201.7564900716145,240.3512980143229,0,0; 
          0,1442.1077880859375,0,480.7025960286458,0,1442.1077880859375" keyTimes="0; 0.16666666666666666; 0.3333; 0.6666; 0.8333; 1"></animate></path>
<path d="M778.341 202.477C800.869 232.954 814.376 267.674 824.217 304.323C827.353 316.523 829.62 328.868 830.44 341.213C834.588 406.941 805.79 468.472 760.107 516.164C750.941 525.712 741.149 534.682 730.777 543.072C662.76 579.722 582.2 575.864 507.429 557.539C465.46 547.412 434.587 513.657 414.616 476.477C409.599 467.219 404.92 457.671 399.372 448.556C393.68 439.491 388.518 430.087 383.936 420.443C378.436 408.821 373.709 396.814 369.946 384.469C359.816 337.693 378.147 291.399 401.784 250.41C410.95 234.979 421.562 221.477 429.763 205.081C436.42 192.061 444.573 180.295 453.883 169.927C463.241 159.608 473.757 150.686 485.528 144.273C551.761 109.987 627.979 120.596 697.926 139.885C707.815 142.778 717.222 146.539 726.146 151.12C735.071 155.75 742.741 162.212 749.928 169.638C760.155 179.331 769.658 190.277 778.341 202.477Z" stroke="url(#paint3_radial_16_421)" stroke-width="2" stroke-dasharray="0,0,0,0,0,1442.1077880859375"><animate attributeType="XML" attributeName="stroke-dasharray" repeatCount="indefinite" dur="35.89837738583144s" values="0,0,0,0,0,1442.1077880859375; 
          0,0,0,394.17612874348964,259.57940185546875,788.3522574869793; 
          0,0,480.7025960286458,0,961.4051920572916,1442.1077880859375; 
          0,0,961.4051920572916,0,480.7025960286458,1442.1077880859375; 
          0,0,1201.7564900716145,240.3512980143229,0,0; 
          0,1442.1077880859375,0,480.7025960286458,0,1442.1077880859375" keyTimes="0; 0.16666666666666666; 0.3333; 0.6666; 0.8333; 1"></animate></path>
<path d="M762.663 161.681C797.685 198.909 820.696 245.395 834.588 294.534C832.514 289.374 831.549 281.176 826.243 278.765C815.148 361.225 811.771 449.955 770.912 523.542C761.023 534.006 750.411 543.94 739.412 553.151C665.123 595.587 573.468 590.282 493.391 568.1C499.662 568.1 506.416 569.064 512.687 566.653C499.276 564.965 485.48 561.638 472.214 556.623C458.948 551.656 446.213 545.001 434.973 536.755C425.373 524.7 444.187 514.573 443.704 503.482C442.257 481.299 410.419 477.442 393.053 467.749C387.119 456.899 380.8 446.242 375.204 435.247C369.512 424.3 364.64 412.92 360.588 401.202C355.86 387.121 352.484 372.558 352.532 357.802C352.532 287.976 396.912 233.484 435.021 174.653C442.402 163.176 450.94 153.001 460.347 144.128C469.802 135.4 480.222 128.407 491.606 123.874C566.232 96.4841 652.099 107.093 724.94 134.339C739.026 141.042 751.617 150.252 762.663 161.681Z" stroke="#F89BA5" stroke-width="2" stroke-dasharray="0,0,0,0,0,1610.53857421875"><animate attributeType="XML" attributeName="stroke-dasharray" repeatCount="indefinite" dur="35.90434623802619s" values="0,0,0,0,0,1610.53857421875; 
          0,0,0,440.21387695312507,289.896943359375,880.4277539062501; 
          0,0,536.84619140625,0,1073.6923828125,1610.53857421875; 
          0,0,1073.6923828125,0,536.84619140625,1610.53857421875; 
          0,0,1342.115478515625,268.423095703125,0,0; 
          0,1610.53857421875,0,536.84619140625,0,1610.53857421875" keyTimes="0; 0.16666666666666666; 0.3333; 0.6666; 0.8333; 1"></animate></path>
<path d="M762.663 161.681C797.685 198.909 820.696 245.395 834.588 294.534C832.514 289.374 831.549 281.176 826.243 278.765C815.148 361.225 811.771 449.955 770.912 523.542C761.023 534.006 750.411 543.94 739.412 553.151C665.123 595.587 573.468 590.282 493.391 568.1C499.662 568.1 506.416 569.064 512.687 566.653C499.276 564.965 485.48 561.638 472.214 556.623C458.948 551.656 446.213 545.001 434.973 536.755C425.373 524.7 444.187 514.573 443.704 503.482C442.257 481.299 410.419 477.442 393.053 467.749C387.119 456.899 380.8 446.242 375.204 435.247C369.512 424.3 364.64 412.92 360.588 401.202C355.86 387.121 352.484 372.558 352.532 357.802C352.532 287.976 396.912 233.484 435.021 174.653C442.402 163.176 450.94 153.001 460.347 144.128C469.802 135.4 480.222 128.407 491.606 123.874C566.232 96.4841 652.099 107.093 724.94 134.339C739.026 141.042 751.617 150.252 762.663 161.681Z" stroke="url(#paint4_radial_16_421)" stroke-width="2" stroke-dasharray="0,0,0,0,0,1610.53857421875"><animate attributeType="XML" attributeName="stroke-dasharray" repeatCount="indefinite" dur="36.13569198768724s" values="0,0,0,0,0,1610.53857421875; 
          0,0,0,440.21387695312507,289.896943359375,880.4277539062501; 
          0,0,536.84619140625,0,1073.6923828125,1610.53857421875; 
          0,0,1073.6923828125,0,536.84619140625,1610.53857421875; 
          0,0,1342.115478515625,268.423095703125,0,0; 
          0,1610.53857421875,0,536.84619140625,0,1610.53857421875" keyTimes="0; 0.16666666666666666; 0.3333; 0.6666; 0.8333; 1"></animate></path>
<path d="M736.325 123.489C778.004 145.671 805.983 186.66 823.349 229.578C831.887 249.976 840.811 270.857 848.24 292.075C851.955 302.683 855.235 313.437 857.84 324.239C873.035 411.859 823.349 491.426 763.049 552.669C755.572 560.24 747.516 566.846 738.592 571.717C666.088 604.749 584.081 596.551 506.416 589.318C497.25 588.836 488.085 585.942 479.401 582.084C431.644 558.938 398.359 515.537 376.217 468.81C369.223 458.201 362.903 447.158 357.452 435.729C351.953 424.3 347.322 412.534 343.607 400.43C339.266 385.915 336.323 370.918 336.902 355.969C341.437 279.73 387.264 218.005 432.127 154.833C438.398 146.009 445.393 138.004 452.966 130.819C460.54 123.73 468.692 117.461 477.52 113.025C543.608 82.0657 618.379 97.0147 687.362 107.334C704.294 110.758 720.695 116.063 736.325 123.489Z" stroke="#F89BA5" stroke-width="2" stroke-dasharray="0,0,0,0,0,1623.2811279296875"><animate attributeType="XML" attributeName="stroke-dasharray" repeatCount="indefinite" dur="36.015915499392875s" values="0,0,0,0,0,1623.2811279296875; 
          0,0,0,443.69684163411466,292.19060302734374,887.3936832682293; 
          0,0,541.0937093098959,0,1082.1874186197917,1623.2811279296875; 
          0,0,1082.1874186197917,0,541.0937093098959,1623.2811279296875; 
          0,0,1352.7342732747395,270.54685465494794,0,0; 
          0,1623.2811279296875,0,541.0937093098959,0,1623.2811279296875" keyTimes="0; 0.16666666666666666; 0.3333; 0.6666; 0.8333; 1"></animate></path>
<path d="M736.325 123.489C778.004 145.671 805.983 186.66 823.349 229.578C831.887 249.976 840.811 270.857 848.24 292.075C851.955 302.683 855.235 313.437 857.84 324.239C873.035 411.859 823.349 491.426 763.049 552.669C755.572 560.24 747.516 566.846 738.592 571.717C666.088 604.749 584.081 596.551 506.416 589.318C497.25 588.836 488.085 585.942 479.401 582.084C431.644 558.938 398.359 515.537 376.217 468.81C369.223 458.201 362.903 447.158 357.452 435.729C351.953 424.3 347.322 412.534 343.607 400.43C339.266 385.915 336.323 370.918 336.902 355.969C341.437 279.73 387.264 218.005 432.127 154.833C438.398 146.009 445.393 138.004 452.966 130.819C460.54 123.73 468.692 117.461 477.52 113.025C543.608 82.0657 618.379 97.0147 687.362 107.334C704.294 110.758 720.695 116.063 736.325 123.489Z" stroke="url(#paint5_radial_16_421)" stroke-width="2" stroke-dasharray="0,0,0,0,0,1623.2811279296875"><animate attributeType="XML" attributeName="stroke-dasharray" repeatCount="indefinite" dur="36.67470060264029s" values="0,0,0,0,0,1623.2811279296875; 
          0,0,0,443.69684163411466,292.19060302734374,887.3936832682293; 
          0,0,541.0937093098959,0,1082.1874186197917,1623.2811279296875; 
          0,0,1082.1874186197917,0,541.0937093098959,1623.2811279296875; 
          0,0,1352.7342732747395,270.54685465494794,0,0; 
          0,1623.2811279296875,0,541.0937093098959,0,1623.2811279296875" keyTimes="0; 0.16666666666666666; 0.3333; 0.6666; 0.8333; 1"></animate></path>
<path d="M697.348 94.459C711.578 97.1112 725.085 101.499 737.82 107.334C750.411 113.218 762.23 120.596 772.263 129.758C780.464 137.473 787.989 145.719 794.936 154.448C801.882 163.176 808.202 172.29 814.039 181.742C819.683 191.242 823.301 201.513 825.375 212.556C827.449 223.599 828.076 235.558 843.175 241.682C847.517 253.256 851.617 264.733 855.669 276.161C859.721 287.59 863.677 299.067 867.777 310.64C894.309 405.639 835.939 498.226 770.334 565.255C761.168 574.562 751.183 582.422 740.136 587.63C656.923 618.734 562.374 620.663 477.472 596.069C420.55 579.673 386.782 524.218 361.505 471.655C353.593 459.262 346.454 446.338 340.183 432.981C333.912 419.623 328.509 405.831 324.071 391.606C320.694 380.611 318.764 369.568 319.006 358.959C321.659 303.359 351.567 255.618 380.028 207.878C397.395 177.884 413.7 149.192 437.433 125.129C445.345 117.124 454.076 109.601 463.965 102.753C517.993 72.8554 582.634 78.642 641.679 86.3576C660.155 87.5632 678.775 90.2154 697.348 94.459Z" stroke="#F89BA5" stroke-width="2" stroke-dasharray="0,0,0,0,0,1719.4210205078125"><animate attributeType="XML" attributeName="stroke-dasharray" repeatCount="indefinite" dur="36.727955678303026s" values="0,0,0,0,0,1719.4210205078125; 
          0,0,0,469.97507893880214,309.49578369140625,939.9501578776043; 
          0,0,573.1403401692709,0,1146.2806803385417,1719.4210205078125; 
          0,0,1146.2806803385417,0,573.1403401692709,1719.4210205078125; 
          0,0,1432.850850423177,286.57017008463544,0,0; 
          0,1719.4210205078125,0,573.1403401692709,0,1719.4210205078125" keyTimes="0; 0.16666666666666666; 0.3333; 0.6666; 0.8333; 1"></animate></path>
<path d="M697.348 94.459C711.578 97.1112 725.085 101.499 737.82 107.334C750.411 113.218 762.23 120.596 772.263 129.758C780.464 137.473 787.989 145.719 794.936 154.448C801.882 163.176 808.202 172.29 814.039 181.742C819.683 191.242 823.301 201.513 825.375 212.556C827.449 223.599 828.076 235.558 843.175 241.682C847.517 253.256 851.617 264.733 855.669 276.161C859.721 287.59 863.677 299.067 867.777 310.64C894.309 405.639 835.939 498.226 770.334 565.255C761.168 574.562 751.183 582.422 740.136 587.63C656.923 618.734 562.374 620.663 477.472 596.069C420.55 579.673 386.782 524.218 361.505 471.655C353.593 459.262 346.454 446.338 340.183 432.981C333.912 419.623 328.509 405.831 324.071 391.606C320.694 380.611 318.764 369.568 319.006 358.959C321.659 303.359 351.567 255.618 380.028 207.878C397.395 177.884 413.7 149.192 437.433 125.129C445.345 117.124 454.076 109.601 463.965 102.753C517.993 72.8554 582.634 78.642 641.679 86.3576C660.155 87.5632 678.775 90.2154 697.348 94.459Z" stroke="url(#paint6_radial_16_421)" stroke-width="2" stroke-dasharray="0,0,0,0,0,1719.4210205078125"><animate attributeType="XML" attributeName="stroke-dasharray" repeatCount="indefinite" dur="37.487793468967496s" values="0,0,0,0,0,1719.4210205078125; 
          0,0,0,469.97507893880214,309.49578369140625,939.9501578776043; 
          0,0,573.1403401692709,0,1146.2806803385417,1719.4210205078125; 
          0,0,1146.2806803385417,0,573.1403401692709,1719.4210205078125; 
          0,0,1432.850850423177,286.57017008463544,0,0; 
          0,1719.4210205078125,0,573.1403401692709,0,1719.4210205078125" keyTimes="0; 0.16666666666666666; 0.3333; 0.6666; 0.8333; 1"></animate></path>
<path d="M633.961 81.9212C648.24 79.6065 662.711 79.6065 677.183 78.642C686.349 78.1598 695.514 77.1954 704.68 76.2309C807.912 62.2464 854.704 175.569 873.518 257.21C875.399 268.205 877.329 278.621 879.548 288.554C882.394 298.054 884.372 307.892 886.06 317.777C888.424 330.797 892.283 344.782 890.353 357.802C880.705 424.831 871.058 496.2 818.959 545.387C793.874 568.052 764.931 583.001 740.377 605.135C730.15 614.635 719.345 623.266 707.333 630.211C695.321 637.155 682.055 642.459 667.005 645.208C657.357 644.243 648.191 640.385 640.473 634.117C568.596 578.178 480.318 582.036 394.934 598.432C381.427 600.843 368.403 597.564 357.742 590.62C347.081 583.676 338.735 572.874 335.744 559.613C328.894 505.411 339.507 450.437 340.954 396.91C341.581 372.944 338.639 348.35 335.889 323.709C334.49 311.364 333.284 299.115 333.67 287.542C334.201 259.958 338.542 232.954 348.673 206.914C369.271 154.207 402.508 98.2686 450.651 69.3833C462.711 62.15 475.687 56.7008 489.58 53.4699C503.184 53.2288 517.414 58.6297 532.899 66.49C551.085 74.3502 569.175 78.2563 587.94 83.609C603.522 84.5252 618.379 83.3196 633.961 81.9212Z" stroke="#F89BA5" stroke-width="2" stroke-dasharray="0,0,0,0,0,1919.6014404296875"><animate attributeType="XML" attributeName="stroke-dasharray" repeatCount="indefinite" dur="36.14793334591813s" values="0,0,0,0,0,1919.6014404296875; 
          0,0,0,524.6910603841146,345.52825927734375,1049.3821207682292; 
          0,0,639.8671468098959,0,1279.7342936197917,1919.6014404296875; 
          0,0,1279.7342936197917,0,639.8671468098959,1919.6014404296875; 
          0,0,1599.6678670247395,319.93357340494794,0,0; 
          0,1919.6014404296875,0,639.8671468098959,0,1919.6014404296875" keyTimes="0; 0.16666666666666666; 0.3333; 0.6666; 0.8333; 1"></animate></path>
<path d="M633.961 81.9212C648.24 79.6065 662.711 79.6065 677.183 78.642C686.349 78.1598 695.514 77.1954 704.68 76.2309C807.912 62.2464 854.704 175.569 873.518 257.21C875.399 268.205 877.329 278.621 879.548 288.554C882.394 298.054 884.372 307.892 886.06 317.777C888.424 330.797 892.283 344.782 890.353 357.802C880.705 424.831 871.058 496.2 818.959 545.387C793.874 568.052 764.931 583.001 740.377 605.135C730.15 614.635 719.345 623.266 707.333 630.211C695.321 637.155 682.055 642.459 667.005 645.208C657.357 644.243 648.191 640.385 640.473 634.117C568.596 578.178 480.318 582.036 394.934 598.432C381.427 600.843 368.403 597.564 357.742 590.62C347.081 583.676 338.735 572.874 335.744 559.613C328.894 505.411 339.507 450.437 340.954 396.91C341.581 372.944 338.639 348.35 335.889 323.709C334.49 311.364 333.284 299.115 333.67 287.542C334.201 259.958 338.542 232.954 348.673 206.914C369.271 154.207 402.508 98.2686 450.651 69.3833C462.711 62.15 475.687 56.7008 489.58 53.4699C503.184 53.2288 517.414 58.6297 532.899 66.49C551.085 74.3502 569.175 78.2563 587.94 83.609C603.522 84.5252 618.379 83.3196 633.961 81.9212Z" stroke="url(#paint7_radial_16_421)" stroke-width="2" stroke-dasharray="0,0,0,0,0,1919.6014404296875"><animate attributeType="XML" attributeName="stroke-dasharray" repeatCount="indefinite" dur="35.80067947867748s" values="0,0,0,0,0,1919.6014404296875; 
          0,0,0,524.6910603841146,345.52825927734375,1049.3821207682292; 
          0,0,639.8671468098959,0,1279.7342936197917,1919.6014404296875; 
          0,0,1279.7342936197917,0,639.8671468098959,1919.6014404296875; 
          0,0,1599.6678670247395,319.93357340494794,0,0; 
          0,1919.6014404296875,0,639.8671468098959,0,1919.6014404296875" keyTimes="0; 0.16666666666666666; 0.3333; 0.6666; 0.8333; 1"></animate></path>
<path d="M597.492 53.5182C652.533 51.6375 711.048 61.3784 760.59 85.7308C772.987 91.8068 784.709 98.8473 795.081 107.19C818.525 126.382 837.821 150.494 849.398 178.945C866.138 220.079 885.626 261.019 897.348 303.745C900.291 314.402 902.703 325.204 904.44 336.102C909.891 428.11 860.349 511.632 797.493 576.925C788.52 586.232 779.258 595.201 769.852 603.785C732.225 634.647 680.609 639.469 634.299 638.505C575.447 637.54 512.735 651.525 457.742 623.556C411.915 599.927 377.182 560.384 352.918 515.055C344.476 500.058 335.311 486.122 326.965 471.8C310.226 443.059 297.539 411.859 290.303 378.104C287.988 366.916 286.878 355.921 287.795 345.602C293.68 292.75 322.624 246.938 346.261 199.68C366.522 159.656 393.632 121.946 427.255 93.3981C438.447 83.8983 450.362 75.4112 463 68.1778C489.05 55.9775 517.511 51.6375 546.069 51.3482C562.663 50.7695 579.836 51.4928 597.492 53.5182Z" stroke="#F89BA5" stroke-width="2" stroke-dasharray="0,0,0,0,0,1909.1722412109375"><animate attributeType="XML" attributeName="stroke-dasharray" repeatCount="indefinite" dur="36.47720176211048s" values="0,0,0,0,0,1909.1722412109375; 
          0,0,0,521.8404125976563,343.65100341796875,1043.6808251953125; 
          0,0,636.3907470703125,0,1272.781494140625,1909.1722412109375; 
          0,0,1272.781494140625,0,636.3907470703125,1909.1722412109375; 
          0,0,1590.9768676757812,318.19537353515625,0,0; 
          0,1909.1722412109375,0,636.3907470703125,0,1909.1722412109375" keyTimes="0; 0.16666666666666666; 0.3333; 0.6666; 0.8333; 1"></animate></path>
<path d="M597.492 53.5182C652.533 51.6375 711.048 61.3784 760.59 85.7308C772.987 91.8068 784.709 98.8473 795.081 107.19C818.525 126.382 837.821 150.494 849.398 178.945C866.138 220.079 885.626 261.019 897.348 303.745C900.291 314.402 902.703 325.204 904.44 336.102C909.891 428.11 860.349 511.632 797.493 576.925C788.52 586.232 779.258 595.201 769.852 603.785C732.225 634.647 680.609 639.469 634.299 638.505C575.447 637.54 512.735 651.525 457.742 623.556C411.915 599.927 377.182 560.384 352.918 515.055C344.476 500.058 335.311 486.122 326.965 471.8C310.226 443.059 297.539 411.859 290.303 378.104C287.988 366.916 286.878 355.921 287.795 345.602C293.68 292.75 322.624 246.938 346.261 199.68C366.522 159.656 393.632 121.946 427.255 93.3981C438.447 83.8983 450.362 75.4112 463 68.1778C489.05 55.9775 517.511 51.6375 546.069 51.3482C562.663 50.7695 579.836 51.4928 597.492 53.5182Z" stroke="url(#paint8_radial_16_421)" stroke-width="2" stroke-dasharray="0,0,0,0,0,1909.1722412109375"><animate attributeType="XML" attributeName="stroke-dasharray" repeatCount="indefinite" dur="35.902763368466125s" values="0,0,0,0,0,1909.1722412109375; 
          0,0,0,521.8404125976563,343.65100341796875,1043.6808251953125; 
          0,0,636.3907470703125,0,1272.781494140625,1909.1722412109375; 
          0,0,1272.781494140625,0,636.3907470703125,1909.1722412109375; 
          0,0,1590.9768676757812,318.19537353515625,0,0; 
          0,1909.1722412109375,0,636.3907470703125,0,1909.1722412109375" keyTimes="0; 0.16666666666666666; 0.3333; 0.6666; 0.8333; 1"></animate></path>
<path d="M539.074 36.3027C610.613 38.1352 683.937 36.6885 751.955 62.2464C764.883 67.1651 777.087 73.2411 788.472 80.378C799.76 87.515 810.228 95.7128 818.863 105.213C864.835 159.029 891.608 223.599 909.553 292.46C913.171 306.252 916.403 320.188 919.345 334.221C932.37 436.935 865.317 526.146 798.747 598.962C790.546 607.98 781.67 616.033 772.215 623.266C762.76 630.307 752.63 635.563 741.969 639.035C714.328 648.149 684.902 654.418 655.958 653.936C589.388 653.936 519.44 667.438 456.729 640.916C403.183 617.769 365.557 569.547 338.157 518.768C330.824 505.989 323.106 494.079 316.063 481.878C294.741 445.518 279.739 406.41 274.674 366.434C272.889 351.34 273.564 336.68 276.266 322.358C281.138 298.054 287.891 274.425 300.433 252.243C331.307 196.787 353.979 139.402 399.807 93.591C412.59 81.0532 426.338 70.3478 441.051 61.3784C455.764 52.409 471.442 45.5132 487.844 42.5717C504.1 39.0514 521.225 36.9778 539.074 36.3027Z" stroke="#F89BA5" stroke-width="2" stroke-dasharray="0,0,0,0,0,2010.0491943359375"><animate attributeType="XML" attributeName="stroke-dasharray" repeatCount="indefinite" dur="36.72722714702428s" values="0,0,0,0,0,2010.0491943359375; 
          0,0,0,549.413446451823,361.8088549804687,1098.826892903646; 
          0,0,670.0163981119791,0,1340.0327962239583,2010.0491943359375; 
          0,0,1340.0327962239583,0,670.0163981119791,2010.0491943359375; 
          0,0,1675.040995279948,335.00819905598956,0,0; 
          0,2010.0491943359375,0,670.0163981119791,0,2010.0491943359375" keyTimes="0; 0.16666666666666666; 0.3333; 0.6666; 0.8333; 1"></animate></path>
<path d="M539.074 36.3027C610.613 38.1352 683.937 36.6885 751.955 62.2464C764.883 67.1651 777.087 73.2411 788.472 80.378C799.76 87.515 810.228 95.7128 818.863 105.213C864.835 159.029 891.608 223.599 909.553 292.46C913.171 306.252 916.403 320.188 919.345 334.221C932.37 436.935 865.317 526.146 798.747 598.962C790.546 607.98 781.67 616.033 772.215 623.266C762.76 630.307 752.63 635.563 741.969 639.035C714.328 648.149 684.902 654.418 655.958 653.936C589.388 653.936 519.44 667.438 456.729 640.916C403.183 617.769 365.557 569.547 338.157 518.768C330.824 505.989 323.106 494.079 316.063 481.878C294.741 445.518 279.739 406.41 274.674 366.434C272.889 351.34 273.564 336.68 276.266 322.358C281.138 298.054 287.891 274.425 300.433 252.243C331.307 196.787 353.979 139.402 399.807 93.591C412.59 81.0532 426.338 70.3478 441.051 61.3784C455.764 52.409 471.442 45.5132 487.844 42.5717C504.1 39.0514 521.225 36.9778 539.074 36.3027Z" stroke="url(#paint9_radial_16_421)" stroke-width="2" stroke-dasharray="0,0,0,0,0,2010.0491943359375"><animate attributeType="XML" attributeName="stroke-dasharray" repeatCount="indefinite" dur="37.49914779483541s" values="0,0,0,0,0,2010.0491943359375; 
          0,0,0,549.413446451823,361.8088549804687,1098.826892903646; 
          0,0,670.0163981119791,0,1340.0327962239583,2010.0491943359375; 
          0,0,1340.0327962239583,0,670.0163981119791,2010.0491943359375; 
          0,0,1675.040995279948,335.00819905598956,0,0; 
          0,2010.0491943359375,0,670.0163981119791,0,2010.0491943359375" keyTimes="0; 0.16666666666666666; 0.3333; 0.6666; 0.8333; 1"></animate></path>
<path d="M495.9 29.3104C565.992 -11.4375 648.385 -4.54172 720.792 25.8384C732.852 30.9018 744.671 36.592 756.055 42.8609C778.969 56.4597 805.5 64.1753 820.937 86.8398C845.057 123.007 864.353 158.209 883.166 195.823C912.592 255.618 971.444 308.663 958.42 380.515C951.666 417.646 929.476 447.544 905.356 474.741C896.673 484.868 887.652 494.802 878.824 504.928C857.599 529.522 850.363 562.795 823.831 582.084C794.164 604.026 763.436 623.17 731.019 637.733C720.213 642.604 709.263 646.895 698.071 650.657C664.641 662.616 630.391 666.474 594.694 672.743C584.564 674.671 574.916 677.083 565.268 679.06C551.954 682.435 538.736 684.027 525.856 683.978C512.977 683.978 500.434 681.953 488.664 677.951C476.893 673.948 465.847 667.92 455.813 660.012C451.905 657.311 448.529 654.9 445.152 651.525C414.279 616.805 392.571 576.78 359.479 545.291C352.58 538.105 346.02 530.872 338.301 524.121C307.476 497.116 279.015 468.376 268.933 427.242C265.508 415.379 262.614 403.372 260.732 391.22C256.922 367.012 257.018 342.419 264.736 318.308C267.631 310.11 273.419 302.876 275.831 294.679C284.273 268.156 290.882 241.875 299.469 216.269C303.762 203.442 308.538 190.807 314.278 178.366C321.032 164.623 326.049 153.531 332.561 143.453C360.25 97.4488 408.972 69.962 456.729 48.7923C470.285 42.3787 483.164 35.3865 495.9 29.3104Z" stroke="#F89BA5" stroke-width="2" stroke-dasharray="0,0,0,0,0,2124.578857421875"><animate attributeType="XML" attributeName="stroke-dasharray" repeatCount="indefinite" dur="37.380688978154446s" values="0,0,0,0,0,2124.578857421875; 
          0,0,0,580.7182210286459,382.4241943359375,1161.4364420572917; 
          0,0,708.1929524739584,0,1416.3859049479167,2124.578857421875; 
          0,0,1416.3859049479167,0,708.1929524739584,2124.578857421875; 
          0,0,1770.4823811848958,354.0964762369792,0,0; 
          0,2124.578857421875,0,708.1929524739584,0,2124.578857421875" keyTimes="0; 0.16666666666666666; 0.3333; 0.6666; 0.8333; 1"></animate></path>
<path d="M495.9 29.3104C565.992 -11.4375 648.385 -4.54172 720.792 25.8384C732.852 30.9018 744.671 36.592 756.055 42.8609C778.969 56.4597 805.5 64.1753 820.937 86.8398C845.057 123.007 864.353 158.209 883.166 195.823C912.592 255.618 971.444 308.663 958.42 380.515C951.666 417.646 929.476 447.544 905.356 474.741C896.673 484.868 887.652 494.802 878.824 504.928C857.599 529.522 850.363 562.795 823.831 582.084C794.164 604.026 763.436 623.17 731.019 637.733C720.213 642.604 709.263 646.895 698.071 650.657C664.641 662.616 630.391 666.474 594.694 672.743C584.564 674.671 574.916 677.083 565.268 679.06C551.954 682.435 538.736 684.027 525.856 683.978C512.977 683.978 500.434 681.953 488.664 677.951C476.893 673.948 465.847 667.92 455.813 660.012C451.905 657.311 448.529 654.9 445.152 651.525C414.279 616.805 392.571 576.78 359.479 545.291C352.58 538.105 346.02 530.872 338.301 524.121C307.476 497.116 279.015 468.376 268.933 427.242C265.508 415.379 262.614 403.372 260.732 391.22C256.922 367.012 257.018 342.419 264.736 318.308C267.631 310.11 273.419 302.876 275.831 294.679C284.273 268.156 290.882 241.875 299.469 216.269C303.762 203.442 308.538 190.807 314.278 178.366C321.032 164.623 326.049 153.531 332.561 143.453C360.25 97.4488 408.972 69.962 456.729 48.7923C470.285 42.3787 483.164 35.3865 495.9 29.3104Z" stroke="url(#paint10_radial_16_421)" stroke-width="2" stroke-dasharray="0,0,0,0,0,2124.578857421875"><animate attributeType="XML" attributeName="stroke-dasharray" repeatCount="indefinite" dur="36.50649579013639s" values="0,0,0,0,0,2124.578857421875; 
          0,0,0,580.7182210286459,382.4241943359375,1161.4364420572917; 
          0,0,708.1929524739584,0,1416.3859049479167,2124.578857421875; 
          0,0,1416.3859049479167,0,708.1929524739584,2124.578857421875; 
          0,0,1770.4823811848958,354.0964762369792,0,0; 
          0,2124.578857421875,0,708.1929524739584,0,2124.578857421875" keyTimes="0; 0.16666666666666666; 0.3333; 0.6666; 0.8333; 1"></animate></path>
<path d="M392.088 37.4599C408.007 23.6683 426.338 13.0594 447.081 8.23712C460.009 5.24733 472.937 2.78798 485.865 0.76264C498.697 -1.11803 511.191 -1.45559 522.141 2.54688C593.246 30.4195 669.947 35.2417 745.683 33.795C841.197 32.3484 910.179 120.113 928.173 207.01C932.514 225.142 939.075 238.933 944.526 253.014C951.665 295.161 953.595 340.49 938.158 379.55C913.074 443.204 893.778 505.893 874.964 571.958C861.94 618.251 834.443 656.829 789.098 673.562C777.473 680.458 764.786 685.714 751.472 689.476C731.452 695.166 709.937 697.529 688.181 697.288C677.328 697.191 666.425 696.323 656.15 692.61C625.084 674.189 590.834 664.063 554.655 665.027C498.215 665.992 439.362 671.296 386.781 646.703C363.144 635.611 343.511 619.553 327.35 600.361C319.246 590.764 312.203 580.3 308.103 568.196C295.609 530.969 288.855 492.391 277.76 453.813C273.419 437.417 264.736 423.433 258.465 407.519C240.616 360.984 247.273 315.8 262.034 271.58C267.051 256.969 273.901 243.37 281.33 230.35C302.845 195.822 316.834 158.209 330.341 119.149C337.095 100.342 348.19 83.4642 361.118 68.2259C370.139 57.3758 380.462 47.0562 392.088 37.4599Z" stroke="#F89BA5" stroke-width="2" stroke-dasharray="0,0,0,0,0,2263.283447265625"><animate attributeType="XML" attributeName="stroke-dasharray" repeatCount="indefinite" dur="37.06178568166794s" values="0,0,0,0,0,2263.283447265625; 
          0,0,0,618.630808919271,407.39102050781247,1237.261617838542; 
          0,0,754.4278157552084,0,1508.8556315104167,2263.283447265625; 
          0,0,1508.8556315104167,0,754.4278157552084,2263.283447265625; 
          0,0,1886.0695393880208,377.2139078776042,0,0; 
          0,2263.283447265625,0,754.4278157552084,0,2263.283447265625" keyTimes="0; 0.16666666666666666; 0.3333; 0.6666; 0.8333; 1"></animate></path>
<path d="M392.088 37.4599C408.007 23.6683 426.338 13.0594 447.081 8.23712C460.009 5.24733 472.937 2.78798 485.865 0.76264C498.697 -1.11803 511.191 -1.45559 522.141 2.54688C593.246 30.4195 669.947 35.2417 745.683 33.795C841.197 32.3484 910.179 120.113 928.173 207.01C932.514 225.142 939.075 238.933 944.526 253.014C951.665 295.161 953.595 340.49 938.158 379.55C913.074 443.204 893.778 505.893 874.964 571.958C861.94 618.251 834.443 656.829 789.098 673.562C777.473 680.458 764.786 685.714 751.472 689.476C731.452 695.166 709.937 697.529 688.181 697.288C677.328 697.191 666.425 696.323 656.15 692.61C625.084 674.189 590.834 664.063 554.655 665.027C498.215 665.992 439.362 671.296 386.781 646.703C363.144 635.611 343.511 619.553 327.35 600.361C319.246 590.764 312.203 580.3 308.103 568.196C295.609 530.969 288.855 492.391 277.76 453.813C273.419 437.417 264.736 423.433 258.465 407.519C240.616 360.984 247.273 315.8 262.034 271.58C267.051 256.969 273.901 243.37 281.33 230.35C302.845 195.822 316.834 158.209 330.341 119.149C337.095 100.342 348.19 83.4642 361.118 68.2259C370.139 57.3758 380.462 47.0562 392.088 37.4599Z" stroke="url(#paint11_radial_16_421)" stroke-width="2" stroke-dasharray="0,0,0,0,0,2263.283447265625"><animate attributeType="XML" attributeName="stroke-dasharray" repeatCount="indefinite" dur="36.330116955973814s" values="0,0,0,0,0,2263.283447265625; 
          0,0,0,618.630808919271,407.39102050781247,1237.261617838542; 
          0,0,754.4278157552084,0,1508.8556315104167,2263.283447265625; 
          0,0,1508.8556315104167,0,754.4278157552084,2263.283447265625; 
          0,0,1886.0695393880208,377.2139078776042,0,0; 
          0,2263.283447265625,0,754.4278157552084,0,2263.283447265625" keyTimes="0; 0.16666666666666666; 0.3333; 0.6666; 0.8333; 1"></animate></path>
<path d="M355.571 69.0458C384.659 37.6529 420.791 14.6508 460.251 -0.201671C473.324 -5.02391 486.541 -8.15838 499.614 -9.7015C604.776 -15.874 715.727 -20.214 811.723 38.1352C821.709 44.3076 831.067 51.0588 839.847 58.2439C848.578 65.4773 856.731 73.1447 863.774 81.3425C917.416 155.798 955.525 241.152 969.514 333.739C971.589 347.82 972.505 361.804 972.216 375.644C959.867 476.96 899.567 565.207 829.138 638.023C819.007 648.535 808.105 657.842 796.624 666.04C785.095 674.238 772.987 681.278 760.396 687.258C672.359 708.427 580.222 709.874 490.014 701.676C406.078 693.478 344.814 626.931 307.139 556.575C298.6 544.905 290.496 532.946 282.922 520.794C252.532 472.186 230.92 418.948 225.373 364.457C223.781 348.881 223.54 333.257 224.746 317.584C244.476 238.741 285.962 165.442 331.065 97.9792C338.543 88.0936 346.695 78.4009 355.571 69.0458Z" stroke="#F89BA5" stroke-width="2" stroke-dasharray="0,0,0,0,0,2320.17626953125"><animate attributeType="XML" attributeName="stroke-dasharray" repeatCount="indefinite" dur="36.530798496478766s" values="0,0,0,0,0,2320.17626953125; 
          0,0,0,634.1815136718751,417.63172851562496,1268.3630273437502; 
          0,0,773.39208984375,0,1546.7841796875,2320.17626953125; 
          0,0,1546.7841796875,0,773.39208984375,2320.17626953125; 
          0,0,1933.480224609375,386.696044921875,0,0; 
          0,2320.17626953125,0,773.39208984375,0,2320.17626953125" keyTimes="0; 0.16666666666666666; 0.3333; 0.6666; 0.8333; 1"></animate></path>
<path d="M355.571 69.0458C384.659 37.6529 420.791 14.6508 460.251 -0.201671C473.324 -5.02391 486.541 -8.15838 499.614 -9.7015C604.776 -15.874 715.727 -20.214 811.723 38.1352C821.709 44.3076 831.067 51.0588 839.847 58.2439C848.578 65.4773 856.731 73.1447 863.774 81.3425C917.416 155.798 955.525 241.152 969.514 333.739C971.589 347.82 972.505 361.804 972.216 375.644C959.867 476.96 899.567 565.207 829.138 638.023C819.007 648.535 808.105 657.842 796.624 666.04C785.095 674.238 772.987 681.278 760.396 687.258C672.359 708.427 580.222 709.874 490.014 701.676C406.078 693.478 344.814 626.931 307.139 556.575C298.6 544.905 290.496 532.946 282.922 520.794C252.532 472.186 230.92 418.948 225.373 364.457C223.781 348.881 223.54 333.257 224.746 317.584C244.476 238.741 285.962 165.442 331.065 97.9792C338.543 88.0936 346.695 78.4009 355.571 69.0458Z" stroke="url(#paint12_radial_16_421)" stroke-width="2" stroke-dasharray="0,0,0,0,0,2320.17626953125"><animate attributeType="XML" attributeName="stroke-dasharray" repeatCount="indefinite" dur="36.94762513461957s" values="0,0,0,0,0,2320.17626953125; 
          0,0,0,634.1815136718751,417.63172851562496,1268.3630273437502; 
          0,0,773.39208984375,0,1546.7841796875,2320.17626953125; 
          0,0,1546.7841796875,0,773.39208984375,2320.17626953125; 
          0,0,1933.480224609375,386.696044921875,0,0; 
          0,2320.17626953125,0,773.39208984375,0,2320.17626953125" keyTimes="0; 0.16666666666666666; 0.3333; 0.6666; 0.8333; 1"></animate></path>
<path d="M302.122 109.36C336.951 53.0842 390.159 10.3108 450.989 -13.6557C463.097 -18.3815 475.543 -22.3358 487.844 -24.7469C502.074 -27.8814 517.029 -29.328 531.5 -28.8458C557.067 -28.8458 582.634 -29.8103 608.201 -29.8103C697.926 -30.196 792.524 -3.96298 860.059 55.206C871.299 65.0433 881.622 75.8452 889.823 87.6597C933.335 161.102 972.409 238.258 985.434 325.059C987.46 338.947 988.424 352.835 988.473 366.627C988.473 380.322 987.508 393.921 984.951 406.555C977.185 445.133 961.748 480.335 941.487 514.573C900.001 585.46 857.068 653.454 783.262 692.996C771.588 699.265 759.673 704.521 747.902 707.27C632.321 722.894 504.969 748.452 396.912 683.834C353.979 658.758 326.483 619.216 300.675 578.613C292.136 565.303 283.598 552.958 275.445 540.372C259.189 515.248 244.813 488.822 232.416 461.528C212.155 417.164 205.161 369.424 208.971 322.358C210.322 306.783 213.458 291.978 218.089 278.042C232.416 234.401 255.088 193.894 275.687 152.808C283.646 138.293 292.377 123.778 302.122 109.36Z" stroke="#F89BA5" stroke-width="2" stroke-dasharray="0,0,0,0,0,2423.84375"><animate attributeType="XML" attributeName="stroke-dasharray" repeatCount="indefinite" dur="36.674986537891215s" values="0,0,0,0,0,2423.84375; 
          0,0,0,662.5172916666668,436.291875,1325.0345833333336; 
          0,0,807.9479166666666,0,1615.8958333333333,2423.84375; 
          0,0,1615.8958333333333,0,807.9479166666666,2423.84375; 
          0,0,2019.8697916666667,403.9739583333333,0,0; 
          0,2423.84375,0,807.9479166666666,0,2423.84375" keyTimes="0; 0.16666666666666666; 0.3333; 0.6666; 0.8333; 1"></animate></path>
<path d="M302.122 109.36C336.951 53.0842 390.159 10.3108 450.989 -13.6557C463.097 -18.3815 475.543 -22.3358 487.844 -24.7469C502.074 -27.8814 517.029 -29.328 531.5 -28.8458C557.067 -28.8458 582.634 -29.8103 608.201 -29.8103C697.926 -30.196 792.524 -3.96298 860.059 55.206C871.299 65.0433 881.622 75.8452 889.823 87.6597C933.335 161.102 972.409 238.258 985.434 325.059C987.46 338.947 988.424 352.835 988.473 366.627C988.473 380.322 987.508 393.921 984.951 406.555C977.185 445.133 961.748 480.335 941.487 514.573C900.001 585.46 857.068 653.454 783.262 692.996C771.588 699.265 759.673 704.521 747.902 707.27C632.321 722.894 504.969 748.452 396.912 683.834C353.979 658.758 326.483 619.216 300.675 578.613C292.136 565.303 283.598 552.958 275.445 540.372C259.189 515.248 244.813 488.822 232.416 461.528C212.155 417.164 205.161 369.424 208.971 322.358C210.322 306.783 213.458 291.978 218.089 278.042C232.416 234.401 255.088 193.894 275.687 152.808C283.646 138.293 292.377 123.778 302.122 109.36Z" stroke="url(#paint13_radial_16_421)" stroke-width="2" stroke-dasharray="0,0,0,0,0,2423.84375"><animate attributeType="XML" attributeName="stroke-dasharray" repeatCount="indefinite" dur="37.21511383787928s" values="0,0,0,0,0,2423.84375; 
          0,0,0,662.5172916666668,436.291875,1325.0345833333336; 
          0,0,807.9479166666666,0,1615.8958333333333,2423.84375; 
          0,0,1615.8958333333333,0,807.9479166666666,2423.84375; 
          0,0,2019.8697916666667,403.9739583333333,0,0; 
          0,2423.84375,0,807.9479166666666,0,2423.84375" keyTimes="0; 0.16666666666666666; 0.3333; 0.6666; 0.8333; 1"></animate></path>
<path d="M235.358 172.627C253.159 141.331 273.419 111.915 300.433 87.6113C314.182 74.7359 327.013 62.6321 337.385 50.7693C354.413 30.9981 372.793 12.5771 392.715 -3.43271C402.653 -11.4376 412.976 -18.7674 423.637 -25.3257C525.229 -66.9899 638.592 -64.0965 747.131 -39.9853C811.289 -25.5186 866.764 13.0594 897.155 70.3959C905.356 82.4997 913.557 94.5553 918.381 108.54C936.712 165.442 962.278 217.523 986.398 271.532C1026.92 361.418 1012.79 464.566 957.069 541.481C949.109 552.476 940.281 562.94 930.682 572.729C901.014 598.48 876.412 628.378 846.021 654.9C798.988 696.275 745.587 723.617 686.108 739.097C674.193 742.183 662.084 744.835 649.687 747.005C641.004 748.452 632.321 748.934 623.638 747.005C549.349 730.127 482.778 712.285 408.007 701.676C308.152 687.691 234.345 591.247 236.13 492.728C234.635 477.876 230.824 465.434 227.013 452.945C204.051 378.152 183.212 300.61 215.098 225.961C220.115 208.312 226.868 190.518 235.358 172.627Z" stroke="#F89BA5" stroke-width="2" stroke-dasharray="0,0,0,0,0,2551.498291015625"><animate attributeType="XML" attributeName="stroke-dasharray" repeatCount="indefinite" dur="35.74661030101498s" values="0,0,0,0,0,2551.498291015625; 
          0,0,0,697.4095328776043,459.2696923828125,1394.8190657552086; 
          0,0,850.4994303385416,0,1700.9988606770833,2551.498291015625; 
          0,0,1700.9988606770833,0,850.4994303385416,2551.498291015625; 
          0,0,2126.248575846354,425.2497151692708,0,0; 
          0,2551.498291015625,0,850.4994303385416,0,2551.498291015625" keyTimes="0; 0.16666666666666666; 0.3333; 0.6666; 0.8333; 1"></animate></path>
<path d="M235.358 172.627C253.159 141.331 273.419 111.915 300.433 87.6113C314.182 74.7359 327.013 62.6321 337.385 50.7693C354.413 30.9981 372.793 12.5771 392.715 -3.43271C402.653 -11.4376 412.976 -18.7674 423.637 -25.3257C525.229 -66.9899 638.592 -64.0965 747.131 -39.9853C811.289 -25.5186 866.764 13.0594 897.155 70.3959C905.356 82.4997 913.557 94.5553 918.381 108.54C936.712 165.442 962.278 217.523 986.398 271.532C1026.92 361.418 1012.79 464.566 957.069 541.481C949.109 552.476 940.281 562.94 930.682 572.729C901.014 598.48 876.412 628.378 846.021 654.9C798.988 696.275 745.587 723.617 686.108 739.097C674.193 742.183 662.084 744.835 649.687 747.005C641.004 748.452 632.321 748.934 623.638 747.005C549.349 730.127 482.778 712.285 408.007 701.676C308.152 687.691 234.345 591.247 236.13 492.728C234.635 477.876 230.824 465.434 227.013 452.945C204.051 378.152 183.212 300.61 215.098 225.961C220.115 208.312 226.868 190.518 235.358 172.627Z" stroke="url(#paint14_radial_16_421)" stroke-width="2" stroke-dasharray="0,0,0,0,0,2551.498291015625"><animate attributeType="XML" attributeName="stroke-dasharray" repeatCount="indefinite" dur="36.38564534807085s" values="0,0,0,0,0,2551.498291015625; 
          0,0,0,697.4095328776043,459.2696923828125,1394.8190657552086; 
          0,0,850.4994303385416,0,1700.9988606770833,2551.498291015625; 
          0,0,1700.9988606770833,0,850.4994303385416,2551.498291015625; 
          0,0,2126.248575846354,425.2497151692708,0,0; 
          0,2551.498291015625,0,850.4994303385416,0,2551.498291015625" keyTimes="0; 0.16666666666666666; 0.3333; 0.6666; 0.8333; 1"></animate></path>
<path d="M210.032 210.482C250.698 95.3751 338.205 -7.57981 452.58 -48.5207C466.859 -53.6323 481.572 -57.7794 496.623 -60.7209C632.224 -79.6241 789.34 -55.8987 889.774 38.762C902.316 50.5765 913.894 63.5483 923.494 77.5328C985.144 171.808 1029.38 289.904 1018.53 402.311C1016.93 418.273 1014.23 434.09 1009.6 448.508C971.444 551.126 904.873 654.177 811.385 712.43C798.023 720.724 784.13 728.15 769.658 734.516C754.366 741.219 738.447 745.558 721.563 747.005C642.933 754.239 566.715 764.847 486.637 751.345C407.042 738.325 339.025 695.407 296.236 629.342C286.878 616.274 277.712 604.411 268.884 592.5C207.041 510.185 166.81 410.557 178.484 309.338C180.365 293.328 183.549 277.222 188.566 261.791C194.982 244.431 202.893 227.119 210.032 210.482Z" stroke="#F89BA5" stroke-width="2" stroke-dasharray="0,0,0,0,0,2630.647216796875"><animate attributeType="XML" attributeName="stroke-dasharray" repeatCount="indefinite" dur="37.282269801670736s" values="0,0,0,0,0,2630.647216796875; 
          0,0,0,719.0435725911459,473.51649902343746,1438.0871451822918; 
          0,0,876.8824055989584,0,1753.7648111979167,2630.647216796875; 
          0,0,1753.7648111979167,0,876.8824055989584,2630.647216796875; 
          0,0,2192.206013997396,438.4412027994792,0,0; 
          0,2630.647216796875,0,876.8824055989584,0,2630.647216796875" keyTimes="0; 0.16666666666666666; 0.3333; 0.6666; 0.8333; 1"></animate></path>
<path d="M210.032 210.482C250.698 95.3751 338.205 -7.57981 452.58 -48.5207C466.859 -53.6323 481.572 -57.7794 496.623 -60.7209C632.224 -79.6241 789.34 -55.8987 889.774 38.762C902.316 50.5765 913.894 63.5483 923.494 77.5328C985.144 171.808 1029.38 289.904 1018.53 402.311C1016.93 418.273 1014.23 434.09 1009.6 448.508C971.444 551.126 904.873 654.177 811.385 712.43C798.023 720.724 784.13 728.15 769.658 734.516C754.366 741.219 738.447 745.558 721.563 747.005C642.933 754.239 566.715 764.847 486.637 751.345C407.042 738.325 339.025 695.407 296.236 629.342C286.878 616.274 277.712 604.411 268.884 592.5C207.041 510.185 166.81 410.557 178.484 309.338C180.365 293.328 183.549 277.222 188.566 261.791C194.982 244.431 202.893 227.119 210.032 210.482Z" stroke="url(#paint15_radial_16_421)" stroke-width="2" stroke-dasharray="0,0,0,0,0,2630.647216796875"><animate attributeType="XML" attributeName="stroke-dasharray" repeatCount="indefinite" dur="36.128754561079305s" values="0,0,0,0,0,2630.647216796875; 
          0,0,0,719.0435725911459,473.51649902343746,1438.0871451822918; 
          0,0,876.8824055989584,0,1753.7648111979167,2630.647216796875; 
          0,0,1753.7648111979167,0,876.8824055989584,2630.647216796875; 
          0,0,2192.206013997396,438.4412027994792,0,0; 
          0,2630.647216796875,0,876.8824055989584,0,2630.647216796875" keyTimes="0; 0.16666666666666666; 0.3333; 0.6666; 0.8333; 1"></animate></path>
<path d="M166.279 301.671C171.151 214.147 209.26 129.758 273.949 70.2512C286.492 57.5205 296.863 45.5614 307.621 33.8915C329.135 10.6483 352.532 -11.2929 377.616 -31.7875C388.711 -40.7086 400.24 -48.6653 412.107 -55.6576C423.974 -62.6016 436.179 -68.5812 448.046 -72.3425C600.965 -103.591 796.334 -103.591 904.149 27.5262C913.46 37.5082 921.998 47.9725 929.958 58.7743C937.917 69.6244 945.298 80.812 952.099 92.2889C954.511 98.4614 958.371 104.248 960.3 110.999C973.807 160.186 993.585 205.033 1014.81 250.844C1062.09 355.487 1041.82 476.043 974.675 565.158C964.786 579.866 956.2 593.465 947.131 606.533C879.789 682.387 792.958 741.218 694.549 772.563C681.283 776.758 667.969 779.845 654.607 781.918C641.244 784.04 627.834 785.197 614.472 785.487C568.644 771.55 525.229 747.439 477.472 745.51C348.672 740.206 217.943 652.441 206.221 518.431C202.555 507.629 199.034 496.827 195.753 485.977C182.536 442.577 172.888 398.019 167.678 353.124C166.086 336.584 165.507 319.368 166.279 301.671Z" stroke="#F89BA5" stroke-width="2" stroke-dasharray="0,0,0,0,0,2750.716796875"><animate attributeType="XML" attributeName="stroke-dasharray" repeatCount="indefinite" dur="36.78076503388413s" values="0,0,0,0,0,2750.716796875; 
          0,0,0,751.8625911458334,495.1290234375,1503.725182291667; 
          0,0,916.9055989583334,0,1833.8111979166667,2750.716796875; 
          0,0,1833.8111979166667,0,916.9055989583334,2750.716796875; 
          0,0,2292.2639973958335,458.4527994791667,0,0; 
          0,2750.716796875,0,916.9055989583334,0,2750.716796875" keyTimes="0; 0.16666666666666666; 0.3333; 0.6666; 0.8333; 1"></animate></path>
<path d="M166.279 301.671C171.151 214.147 209.26 129.758 273.949 70.2512C286.492 57.5205 296.863 45.5614 307.621 33.8915C329.135 10.6483 352.532 -11.2929 377.616 -31.7875C388.711 -40.7086 400.24 -48.6653 412.107 -55.6576C423.974 -62.6016 436.179 -68.5812 448.046 -72.3425C600.965 -103.591 796.334 -103.591 904.149 27.5262C913.46 37.5082 921.998 47.9725 929.958 58.7743C937.917 69.6244 945.298 80.812 952.099 92.2889C954.511 98.4614 958.371 104.248 960.3 110.999C973.807 160.186 993.585 205.033 1014.81 250.844C1062.09 355.487 1041.82 476.043 974.675 565.158C964.786 579.866 956.2 593.465 947.131 606.533C879.789 682.387 792.958 741.218 694.549 772.563C681.283 776.758 667.969 779.845 654.607 781.918C641.244 784.04 627.834 785.197 614.472 785.487C568.644 771.55 525.229 747.439 477.472 745.51C348.672 740.206 217.943 652.441 206.221 518.431C202.555 507.629 199.034 496.827 195.753 485.977C182.536 442.577 172.888 398.019 167.678 353.124C166.086 336.584 165.507 319.368 166.279 301.671Z" stroke="url(#paint16_radial_16_421)" stroke-width="2" stroke-dasharray="0,0,0,0,0,2750.716796875"><animate attributeType="XML" attributeName="stroke-dasharray" repeatCount="indefinite" dur="36.15144087838711s" values="0,0,0,0,0,2750.716796875; 
          0,0,0,751.8625911458334,495.1290234375,1503.725182291667; 
          0,0,916.9055989583334,0,1833.8111979166667,2750.716796875; 
          0,0,1833.8111979166667,0,916.9055989583334,2750.716796875; 
          0,0,2292.2639973958335,458.4527994791667,0,0; 
          0,2750.716796875,0,916.9055989583334,0,2750.716796875" keyTimes="0; 0.16666666666666666; 0.3333; 0.6666; 0.8333; 1"></animate></path>
<path d="M144.282 353.896C144.137 316.379 149.444 279.248 160.346 243.515C164.253 226.926 169.608 212.267 175.493 197.8C182.247 184.201 194.306 174.557 204.919 163.465C218.426 148.516 228.991 135.689 236.95 117.268C243.173 102.705 250.409 87.7562 257.597 74.2057C264.736 60.7034 272.599 47.2975 281.089 34.3257C332.078 -43.6018 407.187 -107.111 504.583 -94.1871C519.923 -97.4663 535.504 -99.9738 550.217 -100.649C699.374 -109.425 863.388 -63.6141 951.907 64.8023C962.23 77.6777 970.576 90.8424 978.342 104.296C1033.29 196.016 1063.24 308.133 1049.11 414.27C1047.08 429.412 1044.19 444.458 1040.28 459.31C997.541 583.724 910.903 704.28 790.064 759.881C774.965 766.825 759.335 772.708 743.271 777.386C587.94 804.824 394.018 808.2 287.312 671.007C277.471 658.999 268.016 648.198 258.996 637.155C204.774 571.09 164.543 492.873 149.058 408.966C146.115 391.124 144.475 372.751 144.282 353.896Z" stroke="#F89BA5" stroke-width="2" stroke-dasharray="0,0,0,0,0,2846.04931640625"><animate attributeType="XML" attributeName="stroke-dasharray" repeatCount="indefinite" dur="36.592594690925175s" values="0,0,0,0,0,2846.04931640625; 
          0,0,0,777.9201464843751,512.2888769531249,1555.8402929687502; 
          0,0,948.68310546875,0,1897.3662109375,2846.04931640625; 
          0,0,1897.3662109375,0,948.68310546875,2846.04931640625; 
          0,0,2371.707763671875,474.341552734375,0,0; 
          0,2846.04931640625,0,948.68310546875,0,2846.04931640625" keyTimes="0; 0.16666666666666666; 0.3333; 0.6666; 0.8333; 1"></animate></path>
<path d="M144.282 353.896C144.137 316.379 149.444 279.248 160.346 243.515C164.253 226.926 169.608 212.267 175.493 197.8C182.247 184.201 194.306 174.557 204.919 163.465C218.426 148.516 228.991 135.689 236.95 117.268C243.173 102.705 250.409 87.7562 257.597 74.2057C264.736 60.7034 272.599 47.2975 281.089 34.3257C332.078 -43.6018 407.187 -107.111 504.583 -94.1871C519.923 -97.4663 535.504 -99.9738 550.217 -100.649C699.374 -109.425 863.388 -63.6141 951.907 64.8023C962.23 77.6777 970.576 90.8424 978.342 104.296C1033.29 196.016 1063.24 308.133 1049.11 414.27C1047.08 429.412 1044.19 444.458 1040.28 459.31C997.541 583.724 910.903 704.28 790.064 759.881C774.965 766.825 759.335 772.708 743.271 777.386C587.94 804.824 394.018 808.2 287.312 671.007C277.471 658.999 268.016 648.198 258.996 637.155C204.774 571.09 164.543 492.873 149.058 408.966C146.115 391.124 144.475 372.751 144.282 353.896Z" stroke="url(#paint17_radial_16_421)" stroke-width="2" stroke-dasharray="0,0,0,0,0,2846.04931640625"><animate attributeType="XML" attributeName="stroke-dasharray" repeatCount="indefinite" dur="35.886219190712325s" values="0,0,0,0,0,2846.04931640625; 
          0,0,0,777.9201464843751,512.2888769531249,1555.8402929687502; 
          0,0,948.68310546875,0,1897.3662109375,2846.04931640625; 
          0,0,1897.3662109375,0,948.68310546875,2846.04931640625; 
          0,0,2371.707763671875,474.341552734375,0,0; 
          0,2846.04931640625,0,948.68310546875,0,2846.04931640625" keyTimes="0; 0.16666666666666666; 0.3333; 0.6666; 0.8333; 1"></animate></path>
<path d="M149.106 419.575C112.782 382.926 91.5562 327.47 108.922 276.836C116.158 256.583 137.384 245.974 145.584 226.685C158.609 193.894 169.704 160.138 186.588 129.324C191.991 119.294 196.188 109.504 200.77 100.631C226.144 49.2263 266.183 6.30831 318.282 -20.6963C363.144 -43.843 405.113 -66.5076 449.01 -91.1011C484.225 -110.872 520.887 -124.375 559.768 -129.293C570.622 -131.319 581.572 -132.669 592.764 -133.151C603.57 -133.585 614.52 -133.392 623.637 -131.56C658.852 -122.446 690.69 -106.05 726.387 -97.37C805.017 -78.081 883.648 -57.3453 931.887 12.5772C952.63 41.9929 963.243 73.8198 977.522 105.116C983.648 115.339 989.871 125.418 996.19 135.352C1021.37 175.087 1047.03 214.002 1064.16 257.981C1068.4 269.362 1072.02 279.681 1072.99 289.085C1084.81 359.297 1052 424.397 1020.65 486.122C1014.86 497.213 1010.52 509.269 1010.52 521.324C1009.55 600.891 981.574 688.656 905.404 725.45C892.476 732.539 880.416 739.049 867.246 744.112C860.493 746.523 853.257 747.97 846.503 751.345C805.5 769.67 763.049 782.208 719.007 789.634C704.583 792.238 691.896 795.662 679.161 798.796C660.154 803.57 641.052 807.766 621.708 811.238C602.412 814.71 583.454 816.976 567.294 816.156C490.979 813.552 420.067 781.243 351.084 749.416C298.986 725.305 250.312 685.136 222.189 634.213C215.146 621.482 209.598 608.125 208.054 594.14C210.708 541.095 198.648 487.086 166.569 444.216C160.925 436.019 155.088 427.821 149.106 419.575Z" stroke="#F89BA5" stroke-width="2" stroke-dasharray="0,0,0,0,0,2992.011474609375"><animate attributeType="XML" attributeName="stroke-dasharray" repeatCount="indefinite" dur="36.56813490855599s" values="0,0,0,0,0,2992.011474609375; 
          0,0,0,817.8164697265627,538.5620654296874,1635.6329394531253; 
          0,0,997.337158203125,0,1994.67431640625,2992.011474609375; 
          0,0,1994.67431640625,0,997.337158203125,2992.011474609375; 
          0,0,2493.3428955078125,498.6685791015625,0,0; 
          0,2992.011474609375,0,997.337158203125,0,2992.011474609375" keyTimes="0; 0.16666666666666666; 0.3333; 0.6666; 0.8333; 1"></animate></path>
<path d="M149.106 419.575C112.782 382.926 91.5562 327.47 108.922 276.836C116.158 256.583 137.384 245.974 145.584 226.685C158.609 193.894 169.704 160.138 186.588 129.324C191.991 119.294 196.188 109.504 200.77 100.631C226.144 49.2263 266.183 6.30831 318.282 -20.6963C363.144 -43.843 405.113 -66.5076 449.01 -91.1011C484.225 -110.872 520.887 -124.375 559.768 -129.293C570.622 -131.319 581.572 -132.669 592.764 -133.151C603.57 -133.585 614.52 -133.392 623.637 -131.56C658.852 -122.446 690.69 -106.05 726.387 -97.37C805.017 -78.081 883.648 -57.3453 931.887 12.5772C952.63 41.9929 963.243 73.8198 977.522 105.116C983.648 115.339 989.871 125.418 996.19 135.352C1021.37 175.087 1047.03 214.002 1064.16 257.981C1068.4 269.362 1072.02 279.681 1072.99 289.085C1084.81 359.297 1052 424.397 1020.65 486.122C1014.86 497.213 1010.52 509.269 1010.52 521.324C1009.55 600.891 981.574 688.656 905.404 725.45C892.476 732.539 880.416 739.049 867.246 744.112C860.493 746.523 853.257 747.97 846.503 751.345C805.5 769.67 763.049 782.208 719.007 789.634C704.583 792.238 691.896 795.662 679.161 798.796C660.154 803.57 641.052 807.766 621.708 811.238C602.412 814.71 583.454 816.976 567.294 816.156C490.979 813.552 420.067 781.243 351.084 749.416C298.986 725.305 250.312 685.136 222.189 634.213C215.146 621.482 209.598 608.125 208.054 594.14C210.708 541.095 198.648 487.086 166.569 444.216C160.925 436.019 155.088 427.821 149.106 419.575Z" stroke="url(#paint18_radial_16_421)" stroke-width="2" stroke-dasharray="0,0,0,0,0,2992.011474609375"><animate attributeType="XML" attributeName="stroke-dasharray" repeatCount="indefinite" dur="36.48853000358179s" values="0,0,0,0,0,2992.011474609375; 
          0,0,0,817.8164697265627,538.5620654296874,1635.6329394531253; 
          0,0,997.337158203125,0,1994.67431640625,2992.011474609375; 
          0,0,1994.67431640625,0,997.337158203125,2992.011474609375; 
          0,0,2493.3428955078125,498.6685791015625,0,0; 
          0,2992.011474609375,0,997.337158203125,0,2992.011474609375" keyTimes="0; 0.16666666666666666; 0.3333; 0.6666; 0.8333; 1"></animate></path>
<path d="M92.039 554.694C84.803 534.392 86.009 513.03 89.3858 491.474C91.0742 480.721 93.6309 469.148 95.6569 458.346C105.064 400.768 126.289 348.206 137.384 288.892C157.645 181.356 196.236 73.3376 275.011 -2.32342C287.216 -13.3181 299.903 -23.7342 313.072 -33.5716C324.022 -41.7694 335.31 -49.5814 346.84 -56.9112C359.141 -64.241 371.442 -71.1851 384.708 -77.5022C442.257 -104.121 504.969 -119.552 567.68 -119.07C655.476 -119.07 749.06 -137.395 832.128 -100.022C841.969 -94.4283 850.99 -88.1112 861.458 -78.7078C964.691 35.7241 1074.68 164.96 1092.52 323.371C1092.28 338.272 1091.22 353.173 1089.44 368.025C1084.18 412.583 1072.94 456.658 1061.02 499.528C1055.86 515.2 1049.98 530.631 1043.37 545.725C1023.54 591.15 997.011 633.683 963.243 671.296C917.802 721.544 863.677 761.376 802.992 788.235C790.739 793.588 777.377 798.314 765.799 802.751C667.536 831.877 564.785 817.892 462.518 800.05C448.143 797.542 434.057 794.36 420.26 790.502C406.464 786.644 392.86 781.822 379.739 776.373C334.201 752.792 301.398 714.696 269.56 673.225C230.486 623.074 172.599 605.714 119.535 576.298C114.229 572.922 108.923 569.547 103.568 565.93C98.889 562.313 95.078 558.6 92.039 554.694Z" stroke="#F89BA5" stroke-width="2" stroke-dasharray="0,0,0,0,0,3076.240478515625"><animate attributeType="XML" attributeName="stroke-dasharray" repeatCount="indefinite" dur="37.290233840315565s" values="0,0,0,0,0,3076.240478515625; 
          0,0,0,840.8390641276043,553.7232861328125,1681.6781282552085; 
          0,0,1025.4134928385417,0,2050.8269856770835,3076.240478515625; 
          0,0,2050.8269856770835,0,1025.4134928385417,3076.240478515625; 
          0,0,2563.533732096354,512.7067464192709,0,0; 
          0,3076.240478515625,0,1025.4134928385417,0,3076.240478515625" keyTimes="0; 0.16666666666666666; 0.3333; 0.6666; 0.8333; 1"></animate></path>
<path d="M92.039 554.694C84.803 534.392 86.009 513.03 89.3858 491.474C91.0742 480.721 93.6309 469.148 95.6569 458.346C105.064 400.768 126.289 348.206 137.384 288.892C157.645 181.356 196.236 73.3376 275.011 -2.32342C287.216 -13.3181 299.903 -23.7342 313.072 -33.5716C324.022 -41.7694 335.31 -49.5814 346.84 -56.9112C359.141 -64.241 371.442 -71.1851 384.708 -77.5022C442.257 -104.121 504.969 -119.552 567.68 -119.07C655.476 -119.07 749.06 -137.395 832.128 -100.022C841.969 -94.4283 850.99 -88.1112 861.458 -78.7078C964.691 35.7241 1074.68 164.96 1092.52 323.371C1092.28 338.272 1091.22 353.173 1089.44 368.025C1084.18 412.583 1072.94 456.658 1061.02 499.528C1055.86 515.2 1049.98 530.631 1043.37 545.725C1023.54 591.15 997.011 633.683 963.243 671.296C917.802 721.544 863.677 761.376 802.992 788.235C790.739 793.588 777.377 798.314 765.799 802.751C667.536 831.877 564.785 817.892 462.518 800.05C448.143 797.542 434.057 794.36 420.26 790.502C406.464 786.644 392.86 781.822 379.739 776.373C334.201 752.792 301.398 714.696 269.56 673.225C230.486 623.074 172.599 605.714 119.535 576.298C114.229 572.922 108.923 569.547 103.568 565.93C98.889 562.313 95.078 558.6 92.039 554.694Z" stroke="url(#paint19_radial_16_421)" stroke-width="2" stroke-dasharray="0,0,0,0,0,3076.240478515625"><animate attributeType="XML" attributeName="stroke-dasharray" repeatCount="indefinite" dur="36.244771724574775s" values="0,0,0,0,0,3076.240478515625; 
          0,0,0,840.8390641276043,553.7232861328125,1681.6781282552085; 
          0,0,1025.4134928385417,0,2050.8269856770835,3076.240478515625; 
          0,0,2050.8269856770835,0,1025.4134928385417,3076.240478515625; 
          0,0,2563.533732096354,512.7067464192709,0,0; 
          0,3076.240478515625,0,1025.4134928385417,0,3076.240478515625" keyTimes="0; 0.16666666666666666; 0.3333; 0.6666; 0.8333; 1"></animate></path>
<path d="M176.602 596.551C163.916 518.431 129.183 448.991 89.6268 379.068C82.0049 365.807 76.9398 351.774 74.0937 337.404C71.2958 323.13 70.7652 308.567 72.5983 295.016C74.6725 276.354 81.4261 259.476 90.1092 242.598C101.204 222.345 118.57 207.396 126.289 186.178C156.68 97.931 204.919 10.6483 285.093 -39.6959C296.236 -46.8328 307.766 -53.2464 319.488 -59.3224C342.98 -71.5709 367.486 -82.6621 391.123 -95.9233C402.701 -102.192 414.278 -108.027 425.856 -114.778C437.964 -121.867 450.41 -128.281 463.048 -133.923C477.761 -140.529 492.812 -146.123 508.056 -150.656C584.178 -173.32 665.22 -169.704 738.013 -134.598C753.353 -130.258 768.452 -125.339 783.262 -119.745C842.403 -97.4664 897.155 -64.2411 942.404 -19.4907C954.222 -8.44777 965.51 3.17386 976.316 15.4224C987.122 27.6709 992.814 40.1123 998.603 52.6983C1003.28 64.1753 1009.07 75.2664 1014.38 86.8398C1052 166.889 1105.55 240.187 1113.27 330.363C1114.33 342.805 1114.57 355.198 1113.89 367.495C1109.41 404.144 1089.15 436.453 1077.09 470.691C1072.02 484.772 1066.96 499.19 1061.94 513.705C1041.39 570.993 1021.61 629.825 986.977 680.362C978.487 692.562 969.176 704.136 958.901 714.793C938.303 736.107 913.798 753.949 883.793 766.68C870.286 771.551 856.972 776.18 844.719 781.533C783.985 808.875 719.151 825.897 651.616 841.57C602.894 853.143 556.585 855.554 507.38 847.839C464.447 841.087 426.82 824.692 389.869 804.872C375.976 798.7 362.421 791.9 349.251 784.329C322.961 769.236 298.214 751.008 275.59 729.501C261.311 717.397 247.659 704.425 234.683 690.633C221.803 676.842 210.418 662.568 199.999 647.812C189.531 632.959 179.497 617.48 176.602 596.551Z" stroke="#F89BA5" stroke-width="2" stroke-dasharray="0,0,0,0,0,3178.145263671875"><animate attributeType="XML" attributeName="stroke-dasharray" repeatCount="indefinite" dur="36.4210080781115s" values="0,0,0,0,0,3178.145263671875; 
          0,0,0,868.6930387369792,572.0661474609375,1737.3860774739585; 
          0,0,1059.3817545572917,0,2118.7635091145835,3178.145263671875; 
          0,0,2118.7635091145835,0,1059.3817545572917,3178.145263671875; 
          0,0,2648.454386393229,529.6908772786459,0,0; 
          0,3178.145263671875,0,1059.3817545572917,0,3178.145263671875" keyTimes="0; 0.16666666666666666; 0.3333; 0.6666; 0.8333; 1"></animate></path>
<path d="M176.602 596.551C163.916 518.431 129.183 448.991 89.6268 379.068C82.0049 365.807 76.9398 351.774 74.0937 337.404C71.2958 323.13 70.7652 308.567 72.5983 295.016C74.6725 276.354 81.4261 259.476 90.1092 242.598C101.204 222.345 118.57 207.396 126.289 186.178C156.68 97.931 204.919 10.6483 285.093 -39.6959C296.236 -46.8328 307.766 -53.2464 319.488 -59.3224C342.98 -71.5709 367.486 -82.6621 391.123 -95.9233C402.701 -102.192 414.278 -108.027 425.856 -114.778C437.964 -121.867 450.41 -128.281 463.048 -133.923C477.761 -140.529 492.812 -146.123 508.056 -150.656C584.178 -173.32 665.22 -169.704 738.013 -134.598C753.353 -130.258 768.452 -125.339 783.262 -119.745C842.403 -97.4664 897.155 -64.2411 942.404 -19.4907C954.222 -8.44777 965.51 3.17386 976.316 15.4224C987.122 27.6709 992.814 40.1123 998.603 52.6983C1003.28 64.1753 1009.07 75.2664 1014.38 86.8398C1052 166.889 1105.55 240.187 1113.27 330.363C1114.33 342.805 1114.57 355.198 1113.89 367.495C1109.41 404.144 1089.15 436.453 1077.09 470.691C1072.02 484.772 1066.96 499.19 1061.94 513.705C1041.39 570.993 1021.61 629.825 986.977 680.362C978.487 692.562 969.176 704.136 958.901 714.793C938.303 736.107 913.798 753.949 883.793 766.68C870.286 771.551 856.972 776.18 844.719 781.533C783.985 808.875 719.151 825.897 651.616 841.57C602.894 853.143 556.585 855.554 507.38 847.839C464.447 841.087 426.82 824.692 389.869 804.872C375.976 798.7 362.421 791.9 349.251 784.329C322.961 769.236 298.214 751.008 275.59 729.501C261.311 717.397 247.659 704.425 234.683 690.633C221.803 676.842 210.418 662.568 199.999 647.812C189.531 632.959 179.497 617.48 176.602 596.551Z" stroke="url(#paint20_radial_16_421)" stroke-width="2" stroke-dasharray="0,0,0,0,0,3178.145263671875"><animate attributeType="XML" attributeName="stroke-dasharray" repeatCount="indefinite" dur="36.84571525891859s" values="0,0,0,0,0,3178.145263671875; 
          0,0,0,868.6930387369792,572.0661474609375,1737.3860774739585; 
          0,0,1059.3817545572917,0,2118.7635091145835,3178.145263671875; 
          0,0,2118.7635091145835,0,1059.3817545572917,3178.145263671875; 
          0,0,2648.454386393229,529.6908772786459,0,0; 
          0,3178.145263671875,0,1059.3817545572917,0,3178.145263671875" keyTimes="0; 0.16666666666666666; 0.3333; 0.6666; 0.8333; 1"></animate></path>
</g>
</g>
<defs>
<radialGradient id="paint0_radial_16_421" cx="0" cy="0" r="1" gradientUnits="userSpaceOnUse" gradientTransform="translate(608.513 340.182) rotate(90) scale(188.785 180.926)">
<stop offset="0.958333" stop-color="#00F0FF" stop-opacity="0.54"></stop>
<stop offset="1" stop-color="#0085FF" stop-opacity="0"></stop>
</radialGradient>
<radialGradient id="paint1_radial_16_421" cx="0" cy="0" r="1" gradientUnits="userSpaceOnUse" gradientTransform="translate(600.126 349.091) rotate(90) scale(197.326 200.98)">
<stop offset="0.958333" stop-color="#00F0FF" stop-opacity="0.54"></stop>
<stop offset="1" stop-color="#0085FF" stop-opacity="0"></stop>
</radialGradient>
<radialGradient id="paint2_radial_16_421" cx="0" cy="0" r="1" gradientUnits="userSpaceOnUse" gradientTransform="translate(605.304 333.167) rotate(90) scale(231.729 225.35)">
<stop offset="0.958333" stop-color="#00F0FF" stop-opacity="0.54"></stop>
<stop offset="1" stop-color="#0085FF" stop-opacity="0"></stop>
</radialGradient>
<radialGradient id="paint3_radial_16_421" cx="0" cy="0" r="1" gradientUnits="userSpaceOnUse" gradientTransform="translate(598.965 346.519) rotate(90) scale(224.597 231.871)">
<stop offset="0.958333" stop-color="#00F0FF" stop-opacity="0.54"></stop>
<stop offset="1" stop-color="#0085FF" stop-opacity="0"></stop>
</radialGradient>
<radialGradient id="paint4_radial_16_421" cx="0" cy="0" r="1" gradientUnits="userSpaceOnUse" gradientTransform="translate(593.56 346.434) rotate(90) scale(238.56 241.029)">
<stop offset="0.958333" stop-color="#00F0FF" stop-opacity="0.54"></stop>
<stop offset="1" stop-color="#0085FF" stop-opacity="0"></stop>
</radialGradient>
<radialGradient id="paint5_radial_16_421" cx="0" cy="0" r="1" gradientUnits="userSpaceOnUse" gradientTransform="translate(598.716 345.173) rotate(90) scale(250.659 261.887)">
<stop offset="0.958333" stop-color="#00F0FF" stop-opacity="0.54"></stop>
<stop offset="1" stop-color="#0085FF" stop-opacity="0"></stop>
</radialGradient>
<radialGradient id="paint6_radial_16_421" cx="0" cy="0" r="1" gradientUnits="userSpaceOnUse" gradientTransform="translate(596.657 346.537) rotate(90) scale(266.38 277.672)">
<stop offset="0.958333" stop-color="#00F0FF" stop-opacity="0.54"></stop>
<stop offset="1" stop-color="#0085FF" stop-opacity="0"></stop>
</radialGradient>
<radialGradient id="paint7_radial_16_421" cx="0" cy="0" r="1" gradientUnits="userSpaceOnUse" gradientTransform="translate(612.169 349.335) rotate(90) scale(295.873 278.707)">
<stop offset="0.958333" stop-color="#00F0FF" stop-opacity="0.54"></stop>
<stop offset="1" stop-color="#0085FF" stop-opacity="0"></stop>
</radialGradient>
<radialGradient id="paint8_radial_16_421" cx="0" cy="0" r="1" gradientUnits="userSpaceOnUse" gradientTransform="translate(596.162 346.158) rotate(90) scale(295.003 308.688)">
<stop offset="0.958333" stop-color="#00F0FF" stop-opacity="0.54"></stop>
<stop offset="1" stop-color="#0085FF" stop-opacity="0"></stop>
</radialGradient>
<radialGradient id="paint9_radial_16_421" cx="0" cy="0" r="1" gradientUnits="userSpaceOnUse" gradientTransform="translate(597.331 346.838) rotate(90) scale(310.535 323.65)">
<stop offset="0.958333" stop-color="#00F0FF" stop-opacity="0.54"></stop>
<stop offset="1" stop-color="#0085FF" stop-opacity="0"></stop>
</radialGradient>
<radialGradient id="paint10_radial_16_421" cx="0" cy="0" r="1" gradientUnits="userSpaceOnUse" gradientTransform="translate(609.272 342.433) rotate(90) scale(341.547 351.001)">
<stop offset="0.958333" stop-color="#00F0FF" stop-opacity="0.54"></stop>
<stop offset="1" stop-color="#0085FF" stop-opacity="0"></stop>
</radialGradient>
<radialGradient id="paint11_radial_16_421" cx="0" cy="0" r="1" gradientUnits="userSpaceOnUse" gradientTransform="translate(598.809 348.36) rotate(90) scale(348.945 351.082)">
<stop offset="0.958333" stop-color="#00F0FF" stop-opacity="0.54"></stop>
<stop offset="1" stop-color="#0085FF" stop-opacity="0"></stop>
</radialGradient>
<radialGradient id="paint12_radial_16_421" cx="0" cy="0" r="1" gradientUnits="userSpaceOnUse" gradientTransform="translate(598.126 346.592) rotate(90) scale(359.717 374.142)">
<stop offset="0.958333" stop-color="#00F0FF" stop-opacity="0.54"></stop>
<stop offset="1" stop-color="#0085FF" stop-opacity="0"></stop>
</radialGradient>
<radialGradient id="paint13_radial_16_421" cx="0" cy="0" r="1" gradientUnits="userSpaceOnUse" gradientTransform="translate(598.225 347.917) rotate(90) scale(377.731 390.248)">
<stop offset="0.958333" stop-color="#00F0FF" stop-opacity="0.54"></stop>
<stop offset="1" stop-color="#0085FF" stop-opacity="0"></stop>
</radialGradient>
<radialGradient id="paint14_radial_16_421" cx="0" cy="0" r="1" gradientUnits="userSpaceOnUse" gradientTransform="translate(604.219 345.378) rotate(90) scale(402.899 405.425)">
<stop offset="0.958333" stop-color="#00F0FF" stop-opacity="0.54"></stop>
<stop offset="1" stop-color="#0085FF" stop-opacity="0"></stop>
</radialGradient>
<radialGradient id="paint15_radial_16_421" cx="0" cy="0" r="1" gradientUnits="userSpaceOnUse" gradientTransform="translate(598.318 345.556) rotate(90) scale(412.285 421.849)">
<stop offset="0.958333" stop-color="#00F0FF" stop-opacity="0.54"></stop>
<stop offset="1" stop-color="#0085FF" stop-opacity="0"></stop>
</radialGradient>
<radialGradient id="paint16_radial_16_421" cx="0" cy="0" r="1" gradientUnits="userSpaceOnUse" gradientTransform="translate(603.267 348.003) rotate(90) scale(437.484 437.327)">
<stop offset="0.958333" stop-color="#00F0FF" stop-opacity="0.54"></stop>
<stop offset="1" stop-color="#0085FF" stop-opacity="0"></stop>
</radialGradient>
<radialGradient id="paint17_radial_16_421" cx="0" cy="0" r="1" gradientUnits="userSpaceOnUse" gradientTransform="translate(598.435 345.412) rotate(90) scale(447.105 454.156)">
<stop offset="0.958333" stop-color="#00F0FF" stop-opacity="0.54"></stop>
<stop offset="1" stop-color="#0085FF" stop-opacity="0"></stop>
</radialGradient>
<radialGradient id="paint18_radial_16_421" cx="0" cy="0" r="1" gradientUnits="userSpaceOnUse" gradientTransform="translate(589.108 341.489) rotate(90) scale(474.835 486.347)">
<stop offset="0.958333" stop-color="#00F0FF" stop-opacity="0.54"></stop>
<stop offset="1" stop-color="#0085FF" stop-opacity="0"></stop>
</radialGradient>
<radialGradient id="paint19_radial_16_421" cx="0" cy="0" r="1" gradientUnits="userSpaceOnUse" gradientTransform="translate(589.619 347.991) rotate(90) scale(471.553 502.906)">
<stop offset="0.958333" stop-color="#00F0FF" stop-opacity="0.54"></stop>
<stop offset="1" stop-color="#0085FF" stop-opacity="0"></stop>
</radialGradient>
<radialGradient id="paint20_radial_16_421" cx="0" cy="0" r="1" gradientUnits="userSpaceOnUse" gradientTransform="translate(592.9 343.69) rotate(90) scale(508.612 521.373)">
<stop offset="0.958333" stop-color="#00F0FF" stop-opacity="0.54"></stop>
<stop offset="1" stop-color="#0085FF" stop-opacity="0"></stop>
</radialGradient>
<clipPath id="clip0_16_421">
<rect width="1200" height="694" fill="white" stroke-dasharray="0,0,0,0,0,3788"><animate attributeType="XML" attributeName="stroke-dasharray" repeatCount="indefinite" dur="35.64366678521364s" values="0,0,0,0,0,3788; 
          0,0,0,1035.3866666666668,681.8399999999999,2070.7733333333335; 
          0,0,1262.6666666666667,0,2525.3333333333335,3788; 
          0,0,2525.3333333333335,0,1262.6666666666667,3788; 
          0,0,3156.6666666666665,631.3333333333334,0,0; 
          0,3788,0,1262.6666666666667,0,3788" keyTimes="0; 0.16666666666666666; 0.3333; 0.6666; 0.8333; 1"></animate></rect>
</clipPath>
</defs>
<setting>{"type":"delay","speed":2,"random":0.95,"shift":1,"size":1,"rupture":18}</setting></svg>