<svg width="2721" height="1637" viewBox="0 0 2721 1637" fill="none" xmlns="http://www.w3.org/2000/svg">
<path d="M1091.53 154.659C1053.08 154.659 1014.88 135.533 988.079 102.506C936.526 38.9556 882.842 6.74527 828.501 6.74527H827.726C765.043 7.09771 699.172 50.2522 631.937 134.996L626.871 130.732C695.402 44.3484 762.966 0.362558 827.693 0H828.508C884.879 0 940.25 33.0265 993.097 98.174C1020.31 131.72 1059.68 150.32 1098.66 147.677C1165.23 143.313 1222.63 118.587 1269.25 74.1979C1320.5 25.3774 1399.34 24.9996 1448.79 73.2907C1497.21 120.595 1557.56 142.91 1628.59 139.946C1666.25 138.307 1702.9 120.563 1729.14 91.2736C1784.4 29.5847 1841.13 -0.806054 1898.34 1.08768C1963 3.19557 2029.34 46.8105 2095.5 130.74L2090.42 134.988C2025.51 52.6485 1960.82 9.87339 1898.13 7.83126C1843.26 6.11796 1787.87 35.6538 1733.95 95.8519C1706.55 126.442 1668.24 144.968 1628.86 146.681C1556.09 149.711 1494.03 126.796 1444.28 78.1827C1397.34 32.3115 1322.41 32.755 1273.69 79.154C1225.94 124.622 1167.19 149.942 1099.08 154.413C1096.57 154.578 1094.05 154.659 1091.53 154.659Z" fill="#708090"/>
<path d="M1085.17 171.374C1048.33 171.374 1012.89 155.418 987.374 127.182C933.842 67.9554 878.35 37.9272 822.428 37.9272C822.06 37.9272 821.692 37.9272 821.325 37.9356C758.044 38.3791 691.982 77.2436 624.969 153.442L620.111 148.912C688.41 71.2572 756.095 31.644 821.285 31.1836H822.428C880.245 31.1836 937.341 61.9285 992.169 122.589C1017.33 150.435 1052.68 165.758 1089.06 164.573C1160.41 162.276 1222.16 137.221 1272.61 90.1052C1321.96 44.0114 1398.46 43.9203 1446.77 89.8826C1498.42 139.007 1562.27 161.839 1636.39 157.715C1672.13 155.738 1705.63 140.752 1730.72 115.508C1787.53 58.3552 1846.02 30.4096 1904.26 32.1381C1969.31 34.1886 2035.91 73.4815 2102.24 148.912L2097.38 153.442C2032.3 79.4173 1967.26 40.8749 1904.06 38.8816C1847.75 37.1026 1790.78 64.4985 1735.29 120.332C1709.06 146.722 1674.07 162.382 1636.74 164.45C1560.59 168.617 1495.32 145.224 1442.33 94.8403C1396.47 51.2086 1323.85 51.3317 1277 95.095C1225.38 143.322 1162.21 168.971 1089.26 171.308C1087.9 171.359 1086.53 171.374 1085.17 171.374Z" fill="#708090"/>
<path d="M1080.84 188.435C1077.5 188.435 1074.14 188.384 1070.77 188.286C1040.61 187.455 1010.47 175.433 985.881 154.42C867.923 53.6929 744.053 59.713 617.697 172.386L613.415 167.281C742.567 52.1448 869.289 46.069 990.052 149.233C1013.53 169.281 1042.25 180.752 1070.94 181.551C1149.53 183.79 1218.73 159.97 1276.6 110.952C1326.05 69.067 1394.9 69.239 1444.06 111.34C1503.74 162.455 1575.62 183.79 1657.74 174.807C1683.73 171.958 1709.43 161.113 1732.08 143.444C1855.23 47.3203 1982.04 55.3572 2108.93 167.273L2104.68 172.394C1980.42 62.8158 1856.39 54.8952 1736.02 148.828C1712.44 167.231 1685.61 178.538 1658.43 181.509C1574.53 190.748 1500.98 168.845 1439.88 116.527C1393.17 76.5171 1327.74 76.3772 1280.76 116.156C1224.12 164.143 1156.91 188.435 1080.84 188.435Z" fill="#708090"/>
<path d="M1083.42 205.493C1071.73 205.493 1059.9 204.966 1047.91 203.896C1027.9 202.117 1008.84 196.254 992.754 186.942C867.987 114.64 739.219 116.27 610.044 191.784L606.816 185.92C738.117 109.147 869.051 107.517 995.964 181.064C1011.23 189.907 1029.39 195.48 1048.47 197.177C1132.59 204.62 1208.99 185.468 1275.83 140.198C1328.03 104.849 1393.19 104.043 1441.82 138.115C1511.6 186.991 1592.01 204.751 1680.88 190.836C1696.27 188.433 1712.1 183.047 1727.94 174.821C1855.63 108.473 1986.01 112.21 2115.5 185.897L2112.34 191.809C1984.85 119.242 1856.51 115.545 1730.88 180.85C1714.43 189.396 1697.93 194.994 1681.86 197.507C1591.32 211.669 1509.32 193.554 1438.14 143.697C1391.7 111.156 1329.41 111.997 1279.43 145.83C1220.87 185.492 1155.06 205.493 1083.42 205.493Z" fill="#708090"/>
<path d="M1085.85 222.358C1064.05 222.358 1041.89 220.768 1019.42 217.599C1013.62 216.783 1007.42 215.392 1000.47 213.341C868.97 174.485 734.904 173.876 602.046 211.489L600.303 204.984C734.33 167.025 869.577 167.644 1002.28 206.854C1008.92 208.813 1014.81 210.147 1020.31 210.913C1114.28 224.186 1202.64 209.274 1282.93 166.59C1331.76 140.635 1389.92 140.701 1438.5 166.745C1520.28 210.575 1610.44 223.798 1706.48 205.989C1710.14 205.312 1713.82 204.432 1717.42 203.484C1851.42 168.203 1987.54 168.713 2122.02 204.975L2120.35 211.496C1986.98 175.515 1851.93 175.021 1719.03 210.022C1715.29 211.002 1711.45 211.916 1707.64 212.624C1610.13 230.698 1518.57 217.268 1435.48 172.723C1388.76 147.693 1332.86 147.634 1285.93 172.583C1223.63 205.7 1156.56 222.358 1085.85 222.358Z" fill="#708090"/>
<path d="M1075.42 237.867C1036.19 237.867 998.44 233.833 950.842 225.328C829.553 203.638 702.495 216.196 594.214 231.346L593.335 224.66C702.111 209.468 829.794 196.863 951.962 218.673C1029.15 232.483 1080.19 234.417 1154.24 226.381C1180.68 223.508 1210.06 216.36 1241.18 208.785C1282.31 198.773 1324.84 188.414 1361.17 188.414C1399.18 188.414 1437.84 197.085 1475.23 205.466C1488.62 208.464 1502.45 211.567 1515.89 214.169C1604.19 231.329 1660.97 235.339 1784.09 215.857C1881.05 200.518 2043.5 212.712 2129.02 224.66L2128.14 231.346C2042.99 219.464 1881.36 207.302 1785.08 222.528C1661 242.149 1603.76 238.073 1514.67 220.807C1501.15 218.179 1487.27 215.068 1473.84 212.055C1436.78 203.754 1398.47 195.166 1361.17 195.166C1325.61 195.166 1283.45 205.426 1242.68 215.348C1211.36 222.972 1181.77 230.177 1154.93 233.083C1125.89 236.236 1100.35 237.867 1075.42 237.867Z" fill="#708090"/>
<path d="M1747.54 256.451C1705.46 256.451 1663.43 255.924 1621.87 254.532C1582.09 253.207 1542.03 248.323 1503.29 243.598C1458.1 238.089 1411.39 232.399 1365.27 232.399C1313.87 232.399 1261.52 237.695 1210.89 242.807C1169.5 246.998 1126.71 251.322 1084.47 252.77C978.457 256.426 869.801 254.829 764.715 253.273C706.244 252.416 645.782 251.527 585.825 251.527V244.775C645.831 244.784 706.316 245.672 764.811 246.529C869.824 248.069 978.41 249.657 1084.25 246.035C1126.28 244.593 1168.97 240.271 1210.25 236.096C1261.04 230.959 1313.55 225.647 1365.27 225.647C1411.77 225.647 1458.69 231.371 1504.05 236.904C1542.66 241.605 1582.58 246.472 1622.08 247.797C1727.34 251.305 1835.63 249.246 1940.35 247.261C2004.51 246.043 2070.85 244.784 2136.55 244.775V251.527C2070.9 251.527 2004.6 252.787 1940.47 254.005C1876.99 255.215 1812.2 256.451 1747.54 256.451Z" fill="#708090"/>
<path d="M1650.13 272.122C1600.64 272.122 1550.79 270.055 1502.59 268.053C1454.55 266.07 1404.87 264.011 1355.72 264.011C1303.41 264.011 1249.82 266.07 1198.01 268.053C1145.99 270.055 1092.21 272.122 1039.52 272.122H1039.37L572.337 272.063V265.311L1039.37 265.37H1039.52C1092.09 265.37 1145.81 263.311 1197.76 261.318C1249.64 259.326 1303.29 257.259 1355.72 257.259C1405.01 257.259 1454.75 259.326 1502.85 261.318C1550.99 263.311 1600.77 265.37 1650.13 265.37H1650.27L2150.37 265.311V272.063L1650.27 272.122H1650.13Z" fill="#708090"/>
<path d="M1305.01 293.048C1055.56 293.048 806.002 293.04 554.089 293.031V286.279C1096.03 286.305 1627.27 286.305 2169.24 286.279V293.031C1879.21 293.04 1592.19 293.048 1305.01 293.048Z" fill="#708090"/>
<path d="M2190.03 314.418C1636.85 314.361 1087.3 314.361 533.985 314.418V307.666C1087.3 307.624 1636.87 307.624 2190.03 307.666V314.418Z" fill="#708090"/>
<path d="M2209.67 336.239C1644.17 336.125 1080.68 336.125 514.978 336.239V329.487C1080.68 329.39 1644.18 329.39 2209.67 329.487V336.239Z" fill="#708090"/>
<path d="M2225.05 351.762H499.989V358.514H2225.05V351.762Z" fill="#708090"/>
<path d="M2233.76 374.504H491.262V381.254H2233.76V374.504Z" fill="#708090"/>
<path d="M2238.28 397.714H486.443V404.466H2238.28V397.714Z" fill="#708090"/>
<path d="M1359.62 428.184C1289.26 428.184 1222.23 417.628 1157.37 407.417C1100.29 398.434 1041.27 389.146 980.823 387.269C894.992 384.676 812.303 395.569 724.78 407.163C646.812 417.496 566.193 428.184 483.59 428.184V421.432C565.777 421.432 646.188 410.776 723.948 400.476C807.852 389.36 894.617 377.832 981.014 380.534C1041.87 382.419 1101.09 391.74 1158.35 400.748C1222.97 410.925 1289.77 421.439 1359.62 421.439C1360.14 421.439 1360.65 421.439 1361.17 421.432C1422.61 421.299 1481.45 413.281 1538.35 405.523C1578.59 400.04 1620.2 394.367 1662.73 391.443C1777.74 383.531 1877.29 393.741 1982.64 404.535C2063.68 412.844 2147.47 421.432 2240.64 421.432V428.184C2147.14 428.184 2063.19 419.571 1982 411.254C1876.92 400.485 1777.72 390.331 1663.16 398.18C1620.84 401.085 1579.34 406.743 1539.21 412.21C1482.1 419.999 1423.04 428.044 1361.18 428.184H1359.62Z" fill="#708090"/>
<path d="M1359.68 452.415C1286.99 452.415 1218.75 438.449 1152.74 424.939C1092.48 412.612 1030.17 399.858 965.882 398.293C883.584 396.425 806.367 409.984 724.628 424.476C647.148 438.211 567.025 452.415 481.099 452.415V445.663C566.465 445.663 646.31 431.517 723.517 417.824C805.576 403.283 883.055 389.458 966.04 391.558C1030.89 393.13 1093.48 405.934 1154.02 418.326C1219.71 431.771 1287.63 445.672 1359.69 445.672C1360.18 445.672 1360.67 445.672 1361.17 445.663C1425.75 445.49 1485.6 434.927 1543.46 424.707C1585.06 417.362 1628.07 409.772 1673.01 405.925C1791.85 395.765 1884.33 408.939 1982.28 422.88C2060.99 434.078 2142.38 445.663 2242.62 445.663V452.415C2141.93 452.415 2060.32 440.797 1981.38 429.557C1883.81 415.676 1791.66 402.534 1673.55 412.645C1628.9 416.465 1586.02 424.04 1544.57 431.36C1486.44 441.62 1426.32 452.233 1361.18 452.415H1359.68Z" fill="#708090"/>
<path d="M1360.44 477.167C1285.22 477.167 1215.31 459.704 1147.68 442.807C1081.87 426.364 1019.7 410.834 952.506 409.757C872.174 408.529 799.943 424.767 723.398 442.041C646.885 459.309 567.76 477.167 477.36 477.167V470.415C567.048 470.415 645.823 452.647 722.001 435.455C798.928 418.097 871.575 401.877 952.601 403.005C1020.54 404.108 1085.96 420.445 1149.22 436.254C1216.47 453.051 1286.01 470.415 1360.44 470.415H1361.17C1429.03 470.317 1490.01 457.53 1548.97 445.163C1591.68 436.212 1635.83 426.949 1682.94 422.296C1807.69 409.986 1893.12 425.632 1983.56 442.223C2059.18 456.08 2137.39 470.415 2245.92 470.415V477.167C2136.81 477.167 2058.32 462.775 1982.4 448.859C1892.44 432.375 1807.45 416.797 1683.56 429.016C1636.8 433.627 1592.82 442.858 1550.28 451.775C1491 464.208 1429.69 477.061 1361.18 477.167H1360.44Z" fill="#708090"/>
<path d="M1363.88 502.471H1361.17C1283.57 502.314 1212.16 483.69 1143.09 465.674C1075.72 448.102 1012.08 431.511 943.148 430.58C862.449 429.411 793.231 446.571 719.602 464.652C643.912 483.245 565.65 502.471 470.758 502.471V495.719C564.874 495.719 642.762 476.593 718.084 458.09C792.111 439.91 862.12 422.775 943.229 423.829C1012.94 424.775 1079.92 442.239 1144.7 459.136C1213.38 477.045 1284.4 495.57 1361.18 495.719C1362.08 495.727 1362.99 495.727 1363.88 495.727C1483.97 495.727 1571.59 479.581 1690.69 449.89C1826.36 416.047 1909.5 436.608 2005.79 460.396C2076.08 477.761 2148.77 495.719 2252.28 495.719V502.471C2147.99 502.471 2071.63 483.599 2004.26 466.959C1908.8 443.367 1826.37 423.005 1692.23 456.443C1572.65 486.259 1484.62 502.471 1363.88 502.471Z" fill="#708090"/>
<path d="M2260.77 528.331C2164.78 528.331 2091.65 513.807 2020.93 499.768C1919.25 479.578 1831.43 462.138 1700.68 492.2C1577.44 520.533 1479.87 526.306 1362.81 526.306H1361.11C1275.91 526.265 1198.52 512.127 1123.69 498.466C1062.46 487.284 999.146 475.725 931.989 471.986C848.812 467.318 774.32 482.451 695.386 498.434C622.789 513.13 547.722 528.331 462.234 528.331V521.579C547.082 521.579 621.838 506.454 694.123 491.814C773.474 475.757 848.38 460.549 932.341 465.251C999.897 469.013 1063.41 480.606 1124.83 491.822C1199.38 505.441 1276.48 519.513 1361.11 519.554H1362.81C1479.44 519.554 1576.59 513.815 1699.25 485.613C1831.34 455.254 1924.03 473.666 2022.17 493.139C2092.58 507.129 2165.4 521.579 2260.77 521.579V528.331Z" fill="#708090"/>
<path d="M1359.82 562.284C1278.72 562.284 1200.74 552.601 1125.32 543.247C1060.98 535.259 994.447 527.002 926.475 524.836C842.803 522.192 765.075 530.426 682.8 539.163C610.555 546.838 535.848 554.775 456.083 554.775V548.023C535.512 548.023 610.051 540.109 682.129 532.46C764.627 523.7 842.539 515.383 926.683 518.101C994.941 520.266 1061.62 528.541 1126.11 536.544C1201.33 545.882 1279.11 555.532 1359.82 555.532H1360.87C1484.09 555.401 1584.26 551.35 1702.74 531.62C1832.09 510.073 1934.02 521.106 2041.95 532.791C2111.2 540.283 2182.79 548.023 2266.81 548.023V554.775C2182.45 554.775 2110.68 547.001 2041.27 539.492C1933.8 527.875 1832.29 516.899 1703.77 538.275C1584.87 558.085 1484.42 562.144 1360.87 562.284H1359.82Z" fill="#708090"/>
<path d="M2271.52 575.082H451.199V581.834H2271.52V575.082Z" fill="#708090"/>
<path d="M2276.31 602.762H446.231V609.514H2276.31V602.762Z" fill="#708090"/>
<path d="M2282.57 631.089H439.839V637.841H2282.57V631.089Z" fill="#708090"/>
<path d="M1847.31 680.674C1767.26 680.674 1686.16 671.806 1607.72 663.234C1529.67 654.711 1448.97 645.894 1369.71 645.894C1280.88 645.894 1190.41 654.705 1102.91 663.226C1014.85 671.797 923.782 680.674 833.798 680.674C767.088 680.674 699.061 677.166 633.27 673.773C566.968 670.357 498.414 666.824 430.681 666.824V660.072C498.581 660.072 567.216 663.613 633.597 667.038C699.308 670.423 767.256 673.922 833.798 673.922C923.471 673.922 1014.38 665.07 1102.3 656.507C1189.95 647.968 1280.58 639.142 1369.71 639.142C1449.31 639.142 1530.2 647.985 1608.41 656.533C1686.68 665.079 1767.6 673.922 1847.31 673.922C1920.72 673.922 1995.65 670.423 2068.1 667.03C2141.24 663.613 2216.87 660.072 2291.68 660.072V666.824C2217.02 666.824 2141.46 670.357 2068.39 673.773C1995.87 677.166 1920.86 680.674 1847.31 680.674Z" fill="#708090"/>
<path d="M887.85 718.121C809.483 718.121 730.837 712.654 654.42 707.351C577.707 702.024 498.381 696.516 419.567 696.516V689.764C498.597 689.764 578.043 695.28 654.867 700.615C743.414 706.767 834.948 713.082 925.46 710.932C996.603 709.204 1070.12 691.592 1141.22 674.555C1213.88 657.149 1289 639.149 1359.91 638.895H1361.11C1423.43 638.895 1492.36 656.309 1559.03 673.147C1608.96 685.762 1660.6 698.804 1708.1 704.049C1830.67 717.561 1953.77 708.907 2072.82 700.518C2147.82 695.231 2225.37 689.764 2302.78 689.764V696.516C2225.6 696.516 2148.16 701.966 2073.27 707.244C1953.95 715.651 1830.58 724.354 1707.39 710.752C1659.47 705.465 1607.61 692.366 1557.48 679.702C1491.18 662.953 1422.64 645.638 1361.11 645.638C1360.72 645.638 1360.33 645.638 1359.93 645.647C1289.77 645.893 1215 663.81 1142.7 681.127C1071.28 698.236 997.426 715.931 925.619 717.669C913.043 717.981 900.45 718.121 887.85 718.121Z" fill="#708090"/>
<path d="M869.938 747.038C792.649 747.038 715.065 741.95 639.583 737.001C563.917 732.036 485.671 726.907 408.182 726.907V720.155C485.879 720.155 564.23 725.301 639.999 730.266C731.861 736.293 826.87 742.493 920.467 739.514C993.129 737.166 1069.74 714.094 1143.83 691.781C1220.29 668.751 1292.52 646.995 1360.17 646.461H1361.97C1419.93 646.461 1488.2 668.322 1554.26 689.484C1607.72 706.61 1663 724.313 1711.93 730.069C1837.43 744.824 1966.35 736.912 2091.05 729.286C2164.27 724.799 2239.98 720.155 2314.18 720.155V726.907C2240.17 726.907 2164.56 731.534 2091.43 736.013C1966.48 743.67 1837.24 751.601 1711.2 736.772C1661.65 730.949 1606.06 713.14 1552.32 695.922C1486.73 674.918 1418.94 653.205 1361.97 653.205C1361.38 653.205 1360.8 653.205 1360.22 653.213C1293.48 653.739 1221.68 675.363 1145.66 698.261C1071.18 720.689 994.168 743.885 920.675 746.249C903.791 746.792 886.869 747.038 869.938 747.038Z" fill="#708090"/>
<path d="M842.579 779.023C767.568 779.023 690.64 773.656 615.372 768.401C542.472 763.314 467.1 758.052 396.516 758.052V751.3C467.316 751.3 542.807 756.57 615.812 761.666C730.558 769.695 849.211 777.978 958.588 767.01C1024.94 760.375 1086.65 740.036 1146.32 720.365C1217.91 696.767 1285.53 674.477 1360.66 673.637C1436.92 672.632 1508.58 694.996 1584.31 718.52C1643.02 736.751 1703.73 755.607 1766.53 762.457C1880.15 774.825 1999.69 767.373 2115.29 760.144C2184.83 755.796 2256.74 751.3 2325.84 751.3V758.052C2256.94 758.052 2185.13 762.54 2115.68 766.879C1999.81 774.108 1880 781.625 1765.84 769.16C1702.42 762.251 1641.42 743.306 1582.41 724.975C1507.18 701.608 1436.37 679.541 1360.73 680.389C1286.59 681.212 1219.42 703.353 1148.32 726.788C1088.31 746.565 1026.27 767.019 959.226 773.73C921.241 777.526 882.169 779.023 842.579 779.023Z" fill="#708090"/>
<path d="M805.64 805.539C734.168 805.539 660.876 801.529 588.988 797.593C517.454 793.674 449.882 789.976 384.563 789.976V783.225C450.057 783.225 517.71 786.93 589.34 790.858C711.901 797.559 838.614 804.517 952.889 791.335C1022.27 783.34 1084.81 760.03 1145.3 737.477C1216.83 710.815 1284.4 685.635 1360.9 684.574C1362.43 684.557 1363.96 684.549 1365.49 684.549C1440.29 684.549 1511.06 709.646 1585.91 736.201C1645.42 757.303 1706.96 779.133 1770.92 787.259C1890.56 802.476 2018.03 796.062 2141.3 789.878C2206.37 786.608 2273.64 783.225 2337.79 783.225V789.976C2273.8 789.976 2206.6 793.352 2141.62 796.613C2018.06 802.837 1890.3 809.235 1770.12 793.962C1705.48 785.745 1643.62 763.801 1583.78 742.573C1507.97 715.682 1436.64 690.336 1360.98 691.324C1285.59 692.363 1218.53 717.361 1147.53 743.825C1086.68 766.502 1023.76 789.952 953.624 798.038C906.004 803.522 856.273 805.539 805.64 805.539Z" fill="#708090"/>
<path d="M769.22 834.122C701.24 834.122 631.775 831.158 563.523 828.252C496.502 825.394 433.204 822.694 372.304 822.694V815.942C433.34 815.942 496.71 818.65 563.795 821.509C693.49 827.033 827.612 832.748 947.142 817.927C1018.98 809.008 1082.39 783.573 1143.71 758.98C1215.48 730.193 1283.26 703.005 1361.07 701.844C1362.58 701.827 1364.11 701.811 1365.62 701.811C1440.71 701.811 1512.16 729.328 1587.73 758.427C1648.11 781.68 1710.56 805.723 1775.6 814.797C1900.47 832.22 2034.66 826.605 2164.4 821.178C2225.95 818.61 2289.6 815.942 2350.05 815.942V822.694C2289.73 822.694 2226.15 825.353 2164.67 827.922C2034.61 833.357 1900.16 838.989 1774.73 821.483C1708.95 812.303 1646.16 788.128 1585.44 764.742C1508.93 735.282 1436.53 707.426 1361.17 708.596C1284.54 709.731 1217.29 736.706 1146.09 765.262C1084.39 790.013 1020.59 815.605 947.926 824.628C890.917 831.702 830.68 834.122 769.22 834.122Z" fill="#708090"/>
<path d="M748.463 866.145C681.578 866.145 613.415 863.577 546.378 861.049C480.772 858.57 418.808 856.239 359.115 856.239V849.487C418.929 849.487 480.956 851.835 546.618 854.305C680.332 859.361 818.568 864.573 941.703 849.159C1014.61 840.044 1078.86 814.238 1140.99 789.281C1213.67 760.101 1282.31 732.525 1361.13 731.347C1438.74 730.482 1512.38 758.774 1590.47 789.035C1651.66 812.748 1714.91 837.26 1780.71 846.531C1908.83 864.597 2046.59 859.327 2179.8 854.223C2240.55 851.892 2303.36 849.487 2363.03 849.487V856.239C2303.49 856.239 2240.73 858.636 2180.05 860.958C2046.54 866.071 1908.5 871.349 1779.82 853.218C1713.3 843.84 1649.69 819.188 1588.17 795.35C1510.68 765.32 1437.46 736.914 1361.22 738.099C1283.59 739.251 1215.48 766.605 1143.37 795.572C1080.86 820.677 1016.22 846.631 942.487 855.862C880.716 863.585 815.228 866.145 748.463 866.145Z" fill="#708090"/>
<path d="M2023.43 897.175C1943.02 897.175 1862.87 894.35 1785.27 884.956C1719.79 877.027 1655.77 856.168 1593.85 836.003C1514.06 810.017 1438.75 785.25 1361.22 786.584C1282.94 787.704 1211.84 810.866 1136.56 835.386C1073.47 855.939 1008.23 877.19 937.052 885.087C800.71 900.229 651.152 896.763 506.483 893.411C445.327 891.994 387.568 890.66 330.933 890.66V883.91C387.64 883.91 445.439 885.251 506.635 886.667C651.048 889.994 800.407 893.468 936.35 878.384C1006.88 870.554 1071.8 849.41 1134.58 828.956C1210.34 804.279 1281.89 780.969 1361.13 779.832C1439.86 778.67 1515.51 803.414 1595.82 829.574C1657.45 849.639 1721.18 870.398 1786.04 878.252C1922.62 894.787 2067.42 890.917 2207.48 887.138C2266.48 885.556 2327.49 883.91 2386.01 883.91V890.66C2327.57 890.66 2266.6 892.299 2207.64 893.881C2146.79 895.519 2085.04 897.175 2023.43 897.175Z" fill="#708090"/>
<path d="M2295.75 926.041C2144.03 926.041 1988.68 924.979 1836.21 914.95C1769.93 910.586 1690.85 888.89 1614.38 867.901C1524.76 843.314 1432.09 817.862 1361.31 820.959C1288.16 824.146 1215.43 842.763 1138.43 862.476C1056.99 883.315 972.792 904.871 886.036 907.441C816.466 909.507 746.257 912.423 678.358 915.23C551.052 920.509 419.422 925.967 288.313 925.967V919.215C419.286 919.215 550.86 913.765 678.094 908.495C746.009 905.679 816.242 902.763 885.845 900.704C971.896 898.153 1055.75 876.686 1136.84 855.929C1214.18 836.134 1287.23 817.436 1361.04 814.223C1432.86 811.013 1525.97 836.67 1616.07 861.388C1692.23 882.287 1770.99 903.9 1836.62 908.215C2009.4 919.578 2185.95 919.389 2356.81 919.256L2418.64 919.215V925.967L2356.81 925.999C2336.55 926.025 2316.17 926.041 2295.75 926.041Z" fill="#708090"/>
<path d="M2455.3 962.218C2300.42 962.218 2144.08 955.828 1992.88 949.653C1942.85 947.611 1892.77 945.56 1842.58 943.724C1774.64 941.247 1700.09 930.913 1627.99 920.916C1537.43 908.375 1443.74 895.424 1361.25 897.556C1196.35 901.903 1027.09 915.564 863.392 928.78C659.756 945.215 449.194 962.218 239.757 962.218V955.466C448.938 955.466 659.373 938.479 862.88 922.053C1026.65 908.837 1196.01 895.168 1361.09 890.821C1444.08 888.607 1538.04 901.64 1628.86 914.23C1700.8 924.201 1775.2 934.518 1842.82 936.989C1893.01 938.817 1943.1 940.867 1993.14 942.909C2144.28 949.085 2300.56 955.466 2455.3 955.466V962.218Z" fill="#708090"/>
<path d="M2490.39 999.426C2306.54 999.426 2120.62 993.315 1940.82 987.404C1750.87 981.162 1554.56 974.732 1361.19 975.531C1173.51 976.32 985.256 981.944 803.204 987.379C605.024 993.3 400.104 999.426 193.767 999.426V992.674C400.007 992.674 604.881 986.556 803.011 980.636C985.106 975.201 1173.4 969.577 1361.16 968.779C1554.63 968.062 1751.01 974.418 1941.03 980.668C2120.78 986.571 2306.63 992.674 2490.39 992.674V999.426Z" fill="#708090"/>
<path d="M2518.31 1037.65C2329.64 1037.65 2140.05 1036.59 1956.69 1035.57C1762.18 1034.49 1561.02 1033.4 1361.17 1033.52H1360.46C1264.87 1033.52 1170 1019.86 1078.24 1006.66C995.579 994.766 910.118 982.465 826.182 980.677C716.717 978.175 599.047 993.802 485.172 1008.77C377.098 1022.97 265.357 1037.65 158.833 1037.65V1030.9C264.942 1030.9 376.475 1016.25 484.341 1002.08C598.463 987.083 716.493 971.579 826.31 973.925C910.637 975.73 996.299 988.055 1079.14 999.979C1170.67 1013.15 1265.33 1026.77 1360.46 1026.77H1361.17C1561.12 1026.67 1762.21 1027.75 1956.73 1028.83C2140.08 1029.84 2329.66 1030.9 2518.31 1030.9V1037.65Z" fill="#708090"/>
<path d="M1361.17 1077C1265.06 1077 1169.19 1061.54 1076.48 1046.59C991.871 1032.95 904.396 1018.84 819.087 1017.19C709.054 1014.93 590.298 1031.11 475.505 1046.64C365.466 1061.53 251.686 1076.93 143.189 1076.93V1070.18C251.264 1070.18 364.826 1054.81 474.649 1039.95C589.691 1024.39 708.632 1008.31 819.215 1010.44C904.964 1012.11 992.672 1026.25 1077.49 1039.92C1169.96 1054.84 1265.57 1070.25 1361.17 1070.25L2533.63 1070.18V1076.93L1361.17 1077Z" fill="#708090"/>
<path d="M2536.03 1117.3C2425.06 1117.3 2312.24 1107.21 2203.16 1097.46C2079.67 1086.41 1952.02 1074.98 1829.58 1078.77C1758.43 1080.96 1685.97 1089.23 1615.9 1097.24C1532.78 1106.73 1446.82 1116.55 1361.17 1116.55C1264.82 1116.55 1168.5 1098.59 1075.35 1081.22C989.1 1065.14 899.923 1048.52 813.614 1047.17C707.378 1045.56 591.953 1063.86 480.436 1081.62C370.284 1099.16 256.378 1117.3 147.345 1117.3V1110.55C255.874 1110.55 369.525 1092.45 479.436 1074.95C591.227 1057.15 706.931 1038.87 813.709 1040.42C900.555 1041.78 990.012 1058.46 1076.51 1074.59C1169.38 1091.89 1265.41 1109.8 1361.17 1109.8C1446.46 1109.8 1532.23 1100 1615.18 1090.54C1685.38 1082.52 1757.97 1074.23 1829.39 1072.03C1952.15 1068.21 2080.04 1079.68 2203.72 1090.74C2312.67 1100.48 2425.33 1110.55 2536.03 1110.55V1117.3Z" fill="#708090"/>
<path d="M2530.84 1158.81C2417.7 1158.81 2303.9 1142.43 2193.85 1126.6C2069.43 1108.69 1951.9 1091.82 1836.24 1096.77C1764.05 1099.89 1690.5 1113.06 1619.38 1125.81C1535.5 1140.82 1448.77 1156.36 1361.18 1156.36C1277.16 1156.36 1184.19 1134.13 1094.28 1112.63C991.602 1088.09 894.572 1064.9 809.533 1071.72C717.135 1079.13 627.008 1096.23 539.843 1112.77C420.568 1135.4 297.231 1158.81 163.231 1158.81V1152.05C296.632 1152.05 419.673 1128.71 538.653 1106.13C625.985 1089.57 716.288 1072.43 809.021 1065.01C895.091 1058.05 992.577 1081.4 1095.75 1106.06C1185.31 1127.48 1277.91 1149.61 1361.18 1149.61C1448.2 1149.61 1534.65 1134.13 1618.25 1119.16C1689.58 1106.38 1763.35 1093.17 1835.97 1090.04C1952.21 1085 2070.03 1101.97 2194.75 1119.92C2304.59 1135.72 2418.16 1152.05 2530.84 1152.05V1158.81Z" fill="#708090"/>
<path d="M2523.69 1201.51C2407.56 1201.51 2293.56 1177.79 2183.32 1154.84C2064.32 1130.09 1951.98 1106.69 1843.11 1113.22C1770.63 1117.57 1700.34 1135.14 1625.92 1153.73C1540.59 1175.06 1452.37 1197.12 1361.17 1197.12C1276.89 1197.12 1181.63 1170.33 1089.51 1144.43C985.841 1115.27 887.914 1087.71 805.361 1095.54C714.761 1104.08 627.996 1125.18 544.093 1145.58C431.024 1173.08 314.114 1201.51 182.293 1201.51V1194.76C313.355 1194.76 429.89 1166.43 542.582 1139.02C626.71 1118.56 713.706 1097.4 804.77 1088.82C888.554 1080.94 986.975 1108.62 1091.23 1137.92C1182.93 1163.7 1277.76 1190.37 1361.17 1190.37C1451.58 1190.37 1539.43 1168.41 1624.38 1147.18C1695.8 1129.33 1769.66 1110.88 1842.72 1106.49C1952.37 1099.83 2065.17 1123.38 2184.63 1148.23C2294.55 1171.12 2408.22 1194.76 2523.69 1194.76V1201.51Z" fill="#708090"/>
<path d="M2520.24 1245.47C2400.22 1245.47 2286.28 1215.13 2176.11 1185.8C2061.93 1155.39 1954.16 1126.74 1850.17 1134.61C1777.38 1140.17 1707.28 1161.86 1633.06 1184.82C1546.2 1211.68 1456.39 1239.47 1361.18 1239.47C1276.22 1239.47 1178.7 1208.71 1084.4 1178.96C979.85 1145.99 881.083 1114.85 800.415 1123.22C711.182 1132.48 627.055 1157.15 545.699 1181.02C437.65 1212.7 325.917 1245.47 196.022 1245.47V1238.72C325.006 1238.72 436.292 1206.09 543.911 1174.53C625.536 1150.59 709.952 1125.84 799.761 1116.5C881.82 1108.1 981.128 1139.33 1086.32 1172.51C1180.16 1202.11 1277.19 1232.72 1361.18 1232.72C1455.42 1232.72 1544.77 1205.08 1631.19 1178.36C1705.75 1155.29 1776.18 1133.5 1849.69 1127.89C1954.66 1119.79 2063.02 1148.71 2177.75 1179.26C2287.52 1208.49 2401.05 1238.72 2520.24 1238.72V1245.47Z" fill="#708090"/>
<path d="M2526.09 1290.72C2402.71 1290.72 2288.27 1256.65 2177.59 1223.7C2065.5 1190.34 1959.6 1158.9 1857.42 1167.48C1783.95 1173.7 1713.39 1197.67 1638.7 1223.05C1550.42 1253.05 1459.14 1284.07 1361.17 1284.07C1275.23 1284.07 1175.88 1251.03 1079.8 1219.08C974.087 1183.93 874.243 1150.76 793.767 1159.41C704.853 1169.02 625.335 1194.51 541.144 1221.5C435.004 1255.53 325.253 1290.72 195.868 1290.72V1283.97C324.261 1283.97 433.533 1248.94 539.203 1215.06C619.991 1189.16 703.528 1162.37 793.08 1152.71C874.962 1143.78 975.406 1177.29 1081.81 1212.67C1177.4 1244.45 1276.26 1277.32 1361.17 1277.32C1458.1 1277.32 1548.86 1246.47 1636.65 1216.64C1711.72 1191.14 1782.64 1167.03 1856.88 1160.76C1960.38 1151.95 2066.73 1183.68 2179.4 1217.22C2289.65 1250.04 2403.63 1283.97 2526.09 1283.97V1290.72Z" fill="#708090"/>
<path d="M2546.02 1337.33C2422.14 1337.33 2306.06 1304.53 2193.8 1272.81C2078.74 1240.3 1970.04 1209.63 1864.83 1217.95C1789.93 1223.9 1717.88 1247.21 1641.61 1271.89C1552.17 1300.84 1459.68 1330.77 1361.18 1330.77C1273.8 1330.77 1173.9 1299.01 1077.3 1268.29C969.797 1234.11 868.315 1201.78 784.571 1210.58C694.346 1220 609.332 1245.72 527.114 1270.6C418.68 1303.4 306.564 1337.33 176.285 1337.33V1330.57C305.62 1330.57 417.283 1296.8 525.268 1264.13C607.774 1239.16 693.085 1213.35 783.915 1203.86C868.953 1195.02 971.083 1227.46 1079.22 1261.85C1175.37 1292.42 1274.79 1324.02 1361.18 1324.02C1458.68 1324.02 1550.68 1294.25 1639.65 1265.46C1716.3 1240.66 1788.69 1217.23 1864.33 1211.23C1970.64 1202.75 2079.91 1233.64 2195.53 1266.31C2307.37 1297.9 2423.03 1330.57 2546.02 1330.57V1337.33Z" fill="#708090"/>
<path d="M2577.8 1385.33C2455.52 1385.33 2337.01 1358.79 2222.4 1333.13C2100.35 1305.8 1985.01 1279.94 1872.44 1286.69C1795.22 1291.29 1720.35 1310.93 1641.08 1331.73C1550.9 1355.38 1457.65 1379.85 1361.17 1379.85C1272.09 1379.85 1173.45 1353.83 1078.05 1328.66C973.033 1300.96 864.455 1272.31 773.074 1280.66C681.242 1289.05 592.799 1310.02 507.266 1330.29C393.144 1357.35 275.139 1385.33 144.269 1385.33V1378.58C274.395 1378.58 392.033 1350.69 505.804 1323.72C591.546 1303.39 680.211 1282.37 772.497 1273.94C864.959 1265.51 974.111 1294.28 1079.68 1322.12C1174.68 1347.19 1272.92 1373.1 1361.17 1373.1C1456.82 1373.1 1549.68 1348.75 1639.46 1325.19C1715.54 1305.23 1794.21 1284.59 1872.05 1279.96C1985.54 1273.17 2101.27 1299.1 2223.79 1326.54C2338.07 1352.12 2456.22 1378.58 2577.8 1378.58V1385.33Z" fill="#708090"/>
<path d="M1356.7 1434.84C1274 1434.84 1190.96 1421.48 1110.6 1408.55C1036.96 1396.7 960.825 1384.45 886.645 1382.97C751.021 1380.21 615.893 1394.57 485.199 1408.4C362.431 1421.39 235.484 1434.83 105.422 1434.83V1428.08C235.149 1428.08 361.928 1414.67 484.528 1401.69C615.422 1387.83 750.774 1373.49 886.773 1376.22C961.393 1377.71 1037.76 1390.01 1111.6 1401.89C1193.16 1415 1277.39 1428.19 1361.16 1428.08C1456.77 1427.52 1546.91 1411.03 1634.08 1395.1C1700.65 1382.93 1769.49 1370.34 1840.38 1364.91C1982.29 1353.98 2117.37 1373.57 2260.32 1394.28C2375.01 1410.89 2493.62 1428.08 2616.33 1428.08V1434.83C2493.16 1434.83 2374.33 1417.61 2259.41 1400.96C2116.81 1380.31 1982.11 1360.82 1840.86 1371.63C1770.31 1377.04 1701.63 1389.6 1635.22 1401.75C1547.78 1417.73 1457.37 1434.26 1361.19 1434.83C1359.7 1434.84 1358.2 1434.84 1356.7 1434.84Z" fill="#708090"/>
<path d="M927.575 1486.48C783.122 1486.48 639.629 1486.34 498.523 1486.19C354.479 1486.04 210.146 1485.9 64.9492 1485.9V1479.15C210.146 1479.15 354.487 1479.3 498.523 1479.45C780.367 1479.75 1071.79 1480.05 1361.17 1479.15C1453.92 1478.87 1546.21 1469.93 1635.46 1461.28C1704.82 1454.56 1776.55 1447.62 1848.02 1444.78C1996.45 1438.86 2146.68 1450.15 2291.99 1461.04C2410.89 1469.95 2533.82 1479.15 2656.44 1479.15V1485.9C2533.58 1485.9 2410.52 1476.68 2291.52 1467.76C2146.38 1456.89 1996.29 1445.64 1848.27 1451.52C1776.98 1454.35 1705.35 1461.29 1636.07 1468C1546.68 1476.66 1454.23 1485.61 1361.18 1485.9C1216.67 1486.34 1071.64 1486.48 927.575 1486.48Z" fill="#708090"/>
<path d="M695.712 1566.7C584.346 1566.7 471.16 1559.55 361.703 1552.64C252.343 1545.74 139.258 1538.6 28.0767 1538.6V1531.85C139.458 1531.85 252.646 1539 362.111 1545.9C471.463 1552.81 584.547 1559.94 695.712 1559.94C811.553 1559.94 929.375 1554.24 1043.31 1548.71C1157.32 1543.19 1275.2 1537.47 1391.18 1537.47C1503.02 1537.47 1616.73 1538.9 1726.7 1540.27C1836.63 1541.66 1950.31 1543.08 2062.1 1543.08C2167.22 1543.08 2274.12 1540.23 2377.51 1537.47C2480.91 1534.71 2587.85 1531.85 2693.03 1531.85V1538.6C2587.93 1538.6 2481.04 1541.45 2377.68 1544.21C2274.25 1546.98 2167.31 1549.83 2062.1 1549.83C1950.27 1549.83 1836.57 1548.4 1726.62 1547.02C1616.67 1545.64 1502.98 1544.22 1391.18 1544.22C1275.35 1544.22 1157.55 1549.92 1043.62 1555.45C929.607 1560.97 811.713 1566.7 695.712 1566.7Z" fill="#708090"/>
<path d="M2010.27 1636.96C1901.92 1636.96 1791.85 1625.77 1685.41 1614.96C1579.11 1604.16 1469.2 1593 1361.18 1593C1245.88 1593 1128.57 1604.16 1015.12 1614.96C901.514 1625.78 784.05 1636.96 668.442 1636.96C556.876 1636.96 443.522 1625.78 333.906 1614.96C224.441 1604.16 111.245 1593 0 1593V1586.25C111.558 1586.25 224.912 1597.43 334.528 1608.25C443.993 1619.04 557.189 1630.21 668.442 1630.21C783.747 1630.21 901.057 1619.04 1014.51 1608.25C1128.11 1597.43 1245.58 1586.25 1361.18 1586.25C1469.53 1586.25 1579.6 1597.43 1686.04 1608.25C1792.34 1619.04 1902.25 1630.21 2010.27 1630.21C2128.57 1630.21 2248.93 1619.04 2365.33 1608.25C2481.87 1597.43 2602.4 1586.25 2721 1586.25V1593C2602.68 1593 2482.32 1604.16 2365.92 1614.97C2249.37 1625.78 2128.86 1636.96 2010.27 1636.96Z" fill="#708090"/>
</svg>
