<svg width="4444" height="3196" viewBox="0 0 4444 3196" fill="none" xmlns="http://www.w3.org/2000/svg">
<rect width="4440.36" height="3189.2" transform="matrix(0.999999 -0.00132797 0.000843855 1 0 5.89648)" fill="#1B0531"/>
<path d="M3549.14 2661.82L3537.97 2652.72C3672.55 2538.86 3733.39 2536.39 3914.02 2528.97L3943.1 2527.8C3963.7 2526.89 3983.19 2526.24 4001.59 2525.59C4203.13 2518.3 4278.59 2515.57 4320.09 2351.75C4368.04 2163.47 4359.71 1825.82 4322.14 1640.66C4294 1500.91 4179.08 1423.88 4057.4 1342.3C3969.36 1283.36 3878.33 1222.33 3823.47 1135.41C3702.89 944.401 3848.78 635.632 3977.53 363.035C4036.02 239.424 4091.2 122.578 4112.73 32.7969L4128.46 35.2691C4106.6 126.352 4051.27 243.457 3992.47 367.85C3864.97 637.714 3720.34 943.62 3837.77 1129.43C3891.07 1213.87 3980.84 1274.12 4067.62 1332.28C4186.15 1411.65 4308.78 1493.89 4338.02 1638.45C4375.75 1824.78 4384.08 2164.64 4335.82 2354.1C4291.64 2527.8 4207.06 2530.93 4002.53 2538.34L3944.2 2540.55L3915.12 2541.73C3738.73 2549.14 3679.46 2551.61 3549.14 2661.82Z" fill="#F3E8FF"/>
<path d="M3487.35 2673.27L3476.35 2664.04C3613.12 2551.35 3670.97 2546.93 3862.45 2533.92L3906.63 2531.06C4111 2518.04 4179.23 2513.49 4221.05 2353.44C4273.87 2155.28 4286.61 1819.96 4248.41 1636.76C4218.85 1493.63 4100.47 1416.47 3975.17 1334.36C3883.21 1274.25 3788.25 1211.92 3731.81 1121.88C3612.65 931.91 3760.74 633.42 3891.22 370.062C3954.11 243.587 4013.06 124.27 4034.91 31.7559L4050.64 34.2281C4028.63 128.303 3969.04 248.272 3906.16 375.266C3776.78 635.502 3630.26 931.519 3745.96 1116.16C3800.99 1203.73 3894.68 1265.14 3985.24 1324.34C4107.39 1404.37 4233.63 1487.12 4264.28 1634.68C4302.64 1819.7 4289.75 2156.97 4236.77 2356.31C4191.65 2525.46 4114.15 2530.8 3906.63 2544.07L3864.18 2546.93C3671.76 2560.46 3620.04 2563.98 3487.35 2673.27Z" fill="#F3E8FF"/>
<path d="M3450.72 2700.86L3439.09 2692.01C3560.77 2581.28 3611.23 2571.39 3784.95 2550.96H3790.14C4012.12 2524.94 4058.5 2519.35 4103.62 2359.69C4165.4 2142.26 4223.57 1820.61 4184.89 1629.86C4154.87 1481.4 4027.68 1400.85 3892.33 1315.5C3793.6 1253.17 3691.57 1188.76 3631.99 1095.47C3511.56 906.537 3667.51 620.278 3804.92 367.72C3873.15 242.547 3937.44 124.4 3961.03 31.1055L3976.75 33.7078C3952.85 128.433 3888.08 247.231 3819.54 373.055C3683.39 622.881 3529.01 906.537 3646.61 1089.35C3704.46 1180.43 3805.07 1243.67 3902.39 1305.22C4033.97 1388.23 4169.64 1474.37 4201.09 1627.78C4240.23 1820.35 4181.59 2144.09 4119.65 2362.68C4072.49 2531.06 4018.41 2537.3 3792.97 2563.85H3787.78C3614.38 2584.14 3569.1 2592.99 3450.72 2700.86Z" fill="#F3E8FF"/>
<path d="M3435.16 2740.03L3420.54 2735.08C3475.09 2623.57 3586.24 2594.42 3693.45 2565.93C3803.5 2537.17 3906.79 2509.98 3959.14 2401.85C3991.37 2335.36 4005.04 2252.34 4018.09 2171.93C4026.2 2114.42 4038.27 2057.33 4054.25 2000.96C4060.38 1981.44 4067.14 1961.92 4073.9 1941.36C4109.9 1834.93 4147.01 1724.85 4121.85 1619.45C4085.38 1466.69 3947.19 1381.08 3800.99 1290.39C3678.52 1214.53 3551.97 1136.07 3493.95 1015.06C3403.72 826.385 3554.95 595.427 3701.16 372.015C3782.75 247.362 3859.94 129.475 3887.92 27.8535L3903.64 30.7161C3875.03 134.81 3797.53 252.697 3714.99 378.26C3570.52 599.46 3421.17 827.296 3508.57 1010.24C3564.86 1127.35 3689.68 1205.42 3810.42 1279.98C3951.91 1368.07 4099.69 1459.28 4137.26 1616.85C4163.2 1725.37 4125.47 1837.01 4089.15 1944.88C4082.39 1964.91 4075.63 1984.69 4069.5 2004.21C4053.65 2059.97 4041.74 2116.45 4033.81 2173.36C4020.45 2254.43 4006.77 2338.35 3973.76 2406.27C3918.58 2520.13 3806.65 2549.4 3698.33 2578.03C3590.01 2606.66 3486.88 2634.11 3435.16 2740.03Z" fill="#F3E8FF"/>
<path d="M3433.59 2790.25L3417.86 2787.39C3444.59 2691.49 3508.57 2663.39 3582.62 2631.25C3611.61 2618.98 3639.74 2605.39 3666.89 2590.52C3759.01 2538.47 3766.71 2519.35 3795.33 2449.08C3799.73 2438.41 3804.6 2426.44 3810.26 2413.04C3836.83 2351.1 3857.42 2284.48 3875.98 2220.07C3896.88 2144.82 3923.12 2070.66 3954.58 1997.96C3963.54 1978.58 3973.13 1958.93 3982.88 1938.63C4035.7 1829.72 4090.41 1717.43 4065.73 1605.01C4029.73 1441.58 3875.82 1350.76 3712.79 1254.47C3577.75 1174.45 3438.3 1092.61 3375.42 965.22C3283.29 778.762 3449.15 561.855 3609.35 351.846C3699.27 233.829 3784.16 122.969 3816.55 25.6406L3832.27 29.0237C3799.26 128.824 3713.89 240.855 3623.34 359.392C3465.18 566.54 3301.53 780.713 3390.67 960.926C3451.66 1084.41 3589.22 1165.6 3722.38 1244.19C3880.69 1337.62 4044.5 1434.29 4081.76 1602.93C4107.23 1718.73 4051.74 1833.11 3997.97 1943.71C3988.22 1963.74 3978.63 1983.52 3969.83 2002.91C3938.65 2075.29 3912.77 2149.15 3892.33 2224.11C3872.99 2289.17 3852.87 2355.79 3826.3 2418.24C3820.64 2431.26 3815.76 2443.49 3811.36 2454.16C3782.91 2524.03 3773.32 2547.45 3676.79 2602.1C3649.24 2617.31 3620.63 2631.17 3591.11 2643.61C3516.91 2674.58 3458.74 2700.21 3433.59 2790.25Z" fill="#F3E8FF"/>
<path d="M3442.23 2847.5L3426.51 2846.46C3434.37 2761.75 3490.97 2683.94 3545.52 2608.74C3588.28 2549.92 3632.62 2489.03 3653.84 2424.75C3681.19 2342.78 3741.4 2241.28 3805.23 2133.94C3915.28 1947.48 4041.05 1736.17 4011.65 1587.44C3976.75 1412.43 3796.74 1310.81 3622.71 1212.44C3473.99 1128.39 3320.08 1041.6 3252.17 908.619C3157.84 722.811 3339.58 521.649 3515.97 327.254C3615.01 218.085 3708.55 115.032 3745.96 21.2168L3760.9 25.3806C3722.54 121.147 3628.37 224.981 3528.54 335.061C3354.82 526.594 3175.13 724.633 3266.63 903.545C3332.82 1033.66 3484.68 1118.76 3631.51 1201.77C3808.38 1301.57 3991.21 1404.89 4027.21 1585.23C4057.71 1738.12 3931 1951.38 3819.22 2139.53C3756.34 2246.36 3695.97 2347.72 3669.09 2428.13C3647.08 2494.1 3602.43 2555.78 3559.04 2615.37C3502.92 2693.05 3449.78 2765.92 3442.23 2847.5Z" fill="#F3E8FF"/>
<path d="M3440.66 2909.05C3436.57 2763.83 3450.25 2542.9 3490.34 2400.94C3523.04 2284.61 3620.35 2170.11 3723.48 2048.84C3856.48 1892.7 3993.88 1730.57 3975.96 1567.4C3956 1386.02 3746.43 1269.56 3543.79 1157.14C3398.21 1076.21 3247.61 992.674 3173.25 886.237C3027.35 678.049 3226.85 491.591 3419.91 311.638C3523.35 215.351 3630.1 116.461 3676 17.1816L3690.62 21.7358C3643.46 122.707 3535.93 223.158 3431.7 320.226C3243.05 496.665 3046.53 679.22 3186.77 879.731C3259.4 983.826 3401.83 1061.9 3552.44 1146.34C3758.23 1260.46 3970.93 1378.6 3991.68 1566.23C4010.08 1733.69 3870.94 1897.38 3736.22 2055.86C3634.19 2175.96 3537.66 2290.08 3505.59 2403.28C3465.81 2544.33 3452.29 2763.83 3456.38 2908.27L3440.66 2909.05Z" fill="#F3E8FF"/>
<path d="M3471.32 2971.5H3455.59C3456.54 2886.02 3420.54 2805.08 3385.79 2726.88C3341.93 2627.86 3296.5 2525.59 3324.64 2412.78C3358.28 2278.63 3491.91 2151.24 3621.14 2028.28C3779.6 1877.34 3943.42 1721.2 3928.64 1550.1C3912.13 1360.52 3678.99 1234.69 3453.39 1113.03C3286.75 1022.99 3129.07 938.025 3051.25 828.726C2896.4 611.56 3110.83 448.132 3318.51 290.039C3433.11 202.6 3551.65 112.299 3606.67 13.9297L3620.98 19.3947C3564.07 119.976 3444.43 211.188 3328.25 299.538C3116.18 461.144 2915.89 613.902 3064.3 821.96C3140.39 928.657 3296.34 1012.84 3461.57 1101.97C3690.31 1225.46 3926.75 1352.97 3943.73 1549.06C3959.45 1725.63 3793.13 1883.72 3632.46 2036.61C3504.64 2158.4 3372.27 2283.83 3339.57 2415.25C3312.38 2524.42 3355.29 2620.45 3400.1 2722.2C3435.79 2801.57 3472.26 2883.54 3471.32 2971.5Z" fill="#F3E8FF"/>
<path d="M3466.92 3033.18C3441.29 2961.22 3385.01 2888.49 3325.43 2811.98C3228.43 2686.68 3128.13 2556.95 3162.4 2424.1C3199.66 2279.8 3360.17 2148.38 3515.49 2020.73C3700.37 1869.15 3891.7 1712.49 3879.59 1532.53C3872.36 1423.36 3710.28 1313.54 3603.06 1240.94L3565.33 1214.92C3507.16 1174.32 3435.79 1133.59 3360.96 1090.26C3201.86 999.181 3021.38 896.258 2931.46 772.125C2767.64 546.501 2996.07 404.023 3216.79 266.358C3342.56 188.288 3472.57 106.704 3536.56 9.50586L3550.39 15.7516C3484.84 115.422 3353.41 197.916 3226.23 276.768C3001.1 417.165 2788.55 550.015 2944.82 765.489C3033.17 887.149 3212.08 989.422 3369.29 1079.59C3445.22 1123.05 3516.91 1164.04 3575.55 1204.9L3613.12 1230.92C3723.17 1304.96 3887.77 1416.86 3896.1 1531.88C3908.52 1717.69 3714.68 1876.43 3527.28 2029.97C3373.69 2155.67 3214.91 2285.78 3178.59 2426.31C3145.58 2553.96 3244.15 2681.34 3339.42 2804.43C3399.47 2882.5 3456.38 2955.63 3482.64 3029.28L3466.92 3033.18Z" fill="#F3E8FF"/>
<path d="M3469.74 3087.7C3430.28 3007.03 3343.98 2930.26 3251.22 2849.06C3118.85 2731.96 2981.92 2611.21 2993.55 2474.45C3009.28 2293.59 3210.5 2150.72 3405.13 2012.54C3613.43 1864.85 3828.66 1712.1 3802.87 1518.09C3774.26 1302.22 3522.88 1179 3279.83 1059.82C3066.34 955.721 2845.62 847.073 2771.42 675.578C2698.47 506.425 2744.69 449.564 2930.83 351.325C2985.69 322.439 3037.89 298.497 3088.04 275.336C3234.71 208.065 3361.43 150.033 3465.34 7.42383L3478.71 14.0599C3373.37 159.662 3244.93 218.605 3096.21 287.307C3045.91 310.338 2993.87 334.149 2939 362.905C2758.05 458.281 2715.92 510.459 2785.88 671.674C2858.2 838.746 3076.56 945.702 3287.54 1049.02C3533.89 1169.76 3788.72 1294.68 3818.12 1517.44C3844.85 1718.99 3626.33 1873.96 3415.19 2023.86C3222.92 2159.57 3024.05 2299.97 3009.12 2475.37C2997.96 2606.52 3132.53 2725.32 3262.54 2839.69C3355.61 2921.8 3443.49 2999.48 3484.05 3082.36L3469.74 3087.7Z" fill="#F3E8FF"/>
<path d="M3458.58 3133.24C3370.39 2983.08 3284.08 2922.97 3164.76 2839.69C3126.87 2813.67 3083.79 2783.35 3036.79 2747.57C2952.99 2683.94 2842.47 2587.27 2849.39 2483.56C2862.13 2294.24 3086.62 2148.77 3303.73 2008.24C3532.63 1860.3 3770.33 1705.98 3744.7 1504.43C3716.09 1280.89 3450.56 1153.11 3193.68 1029.5C2968.71 921.37 2736.2 809.469 2659.17 632.769C2614.36 602.582 2589.68 569.532 2585.91 534.661C2581.82 496.927 2601.63 456.59 2646.12 414.432L2647.85 413.261L2827.38 317.755C2887.12 291.731 2943.09 270.132 2997.33 249.963C3149.82 192.842 3281.72 143.657 3393.34 4.04102L3406.55 11.1975C3292.25 154.327 3158.62 203.902 3003.77 261.804C2949.85 281.972 2893.73 302.791 2835.4 328.945L2657.28 423.67C2616.56 462.706 2597.86 499.659 2601.47 533.49C2604.93 565.108 2628.35 595.556 2670.8 623.791L2672.53 624.832V626.654C2747.52 799.841 2978.3 910.961 3201.54 1018.31C3461.88 1143.48 3730.87 1272.95 3760.27 1503C3786.84 1711.83 3546.15 1867.33 3313.48 2018.39C3099.2 2157.23 2877.53 2300.88 2865.11 2484.34C2858.51 2582.45 2966.04 2676.14 3047.48 2737.94C3094.64 2773.6 3137.09 2803 3174.82 2829.81C3295.71 2913.99 3383.12 2974.89 3472.73 3127.52L3458.58 3133.24Z" fill="#F3E8FF"/>
<path d="M3429.18 3166.16C3328.73 3008.85 3228.58 2946.52 3090.24 2860.51C3044.65 2832.15 2993.08 2800.14 2937.27 2761.62C2865.27 2712.05 2715.29 2608.6 2722.52 2490.33C2734.47 2295.15 2975.79 2147.86 3209.88 2005.64C3455.12 1856.26 3708.86 1701.68 3682.76 1494.93C3653.68 1265.92 3377.46 1134.76 3110.2 1007.9C2875.96 896.777 2633.7 781.753 2554.15 600.239C2508.09 570.051 2482.78 537.002 2478.85 502.13C2474.76 464.526 2495.67 424.059 2540.79 382.292L2542.67 380.86L2729.75 292.771C2792.64 268.178 2852.38 249.702 2909.6 231.876C3066.81 183.082 3201.86 140.793 3319.14 2.08789L3332.03 9.50459C3211.92 151.723 3074.36 194.532 2915.26 243.716C2858.2 261.412 2799.24 279.759 2736.99 303.961L2551.64 391.27C2510.13 430.305 2490.95 466.868 2494.57 500.569C2498.03 532.187 2521.92 562.635 2565.63 590.87L2567.36 591.911L2568.14 593.733C2645.02 771.734 2885.55 885.847 3118.38 996.187C3388.94 1124.74 3668.61 1257.59 3698.64 1493.24C3725.84 1707.41 3468.33 1864.2 3219.46 2015.79C2988.84 2156.19 2750.51 2302.05 2739.03 2490.59C2732.27 2602.36 2878 2702.94 2948.12 2750.82C3003.62 2788.95 3055.02 2820.96 3100.46 2849.19C3235.19 2932.99 3341.62 2999.22 3443.96 3159.26L3429.18 3166.16Z" fill="#F3E8FF"/>
<path d="M3376.68 3183.6C3273.07 3020.82 3159.25 2955.11 3015.09 2871.31C2964 2841.78 2905.99 2808.21 2843.89 2767.22C2756.17 2709.84 2609.49 2613.94 2617.19 2493.19C2630.08 2294.11 2881.15 2146.43 3123.88 2003.56C3378.4 1853.92 3641.57 1699.08 3614.38 1489.2C3584.35 1257.07 3301.84 1124.09 3028.45 995.538C2788.39 882.596 2540.32 765.88 2459.35 581.243C2413.29 550.926 2387.82 517.876 2384.05 482.874C2379.81 445.14 2400.56 404.804 2445.68 362.516L2447.88 361.084L2639.52 277.419C2706.02 253.867 2767.64 237.342 2827.38 221.208C2986.17 178.399 3123.41 141.446 3242.57 0.0078125L3255.47 7.42451C3133.31 152.376 2993.71 189.589 2832.26 233.439C2772.83 249.443 2711.52 265.968 2646.12 288.999L2456.37 371.884C2415.02 410.919 2395.84 447.743 2399.61 481.573C2403.23 513.322 2427.13 543.769 2470.83 572.005L2472.72 573.176L2473.5 574.998C2552.11 755.991 2797.98 871.926 3036.32 984.088C3313.01 1114.21 3599.13 1249.01 3629.94 1487.64C3658.24 1705.2 3391.14 1862.25 3133 2014.1C2893.25 2155.15 2645.65 2300.36 2632.91 2493.84C2625.68 2607.7 2768.27 2701.12 2853.01 2756.81C2914.79 2797.28 2969.97 2829.16 3023.42 2860.12C3169.31 2944.44 3284.55 3010.93 3390.04 3176.57L3376.68 3183.6Z" fill="#F3E8FF"/>
<path d="M3296.81 3185.68C3193.21 3024.59 3078.92 2957.06 2934.29 2871.58C2881.31 2840.22 2826.6 2807.95 2765.6 2767.48C2672.69 2705.81 2532.46 2612.51 2539.37 2494.23C2551.16 2294.89 2802.54 2146.82 3045.59 2003.56C3300.11 1853.66 3563.28 1698.69 3536.72 1488.68C3507.16 1255.9 3223.55 1124.36 2949.06 996.059C2708.85 884.418 2459.82 767.312 2378.7 583.196C2332.96 552.878 2307.8 519.698 2303.87 484.566C2299.63 446.702 2319.59 406.496 2364.4 363.947L2366.6 362.516L2559.18 278.72C2626.47 255.169 2688.88 238.644 2749.25 222.639C2908.82 180.481 3046.53 144.569 3164.91 1.43945L3177.96 8.85616C3056.44 154.978 2916.36 192.192 2753.49 235.131C2693.44 251.005 2631.5 267.4 2564.84 290.561L2374.15 373.446C2333.27 412.481 2314.56 449.435 2318.34 483.395C2321.95 515.274 2345.69 545.852 2389.08 574.478L2390.97 575.649V577.34C2469.57 758.464 2716.71 873.618 2955.67 984.869C3233.61 1114.21 3520.84 1247.97 3551.18 1487.51C3578.69 1704.94 3311.75 1862.25 3053.61 2014.36C2813.55 2155.67 2565.31 2301.92 2553.99 2495.01C2547.39 2606.66 2684.01 2697.35 2774.09 2757.46C2834.61 2797.8 2889.17 2830.07 2941.99 2861.56C3088.35 2947.95 3203.9 3016.27 3309.23 3180.08L3296.81 3185.68Z" fill="#F3E8FF"/>
<path d="M3195.1 3185.68C3095.58 3029.54 2988.21 2957.84 2852.22 2866.76C2805.06 2835.4 2757.9 2803.13 2704.13 2764.1C2621.91 2703.85 2484.04 2602.75 2490.17 2490.85C2500.7 2294.11 2744.38 2145 2980.03 2000.96C3227.33 1849.76 3483.11 1693.36 3456.85 1485.56C3427.61 1254.34 3145.42 1126.96 2872.5 1004.13C2633.07 895.997 2385.15 784.226 2304.19 601.801C2258.44 571.484 2233.13 538.434 2229.2 503.302C2224.95 465.568 2244.92 425.232 2289.72 382.813L2291.77 381.382L2484.66 294.073C2551.01 269.481 2613.1 251.655 2673.32 234.349C2834.3 188.157 2973.27 148.211 3091.5 5.73242L3104.39 13.1491C2983.34 159.011 2842 199.608 2678.5 247.361C2618.76 264.536 2556.98 282.232 2491.74 306.304L2300.73 392.963C2260.01 431.998 2241.15 468.951 2245.08 502.782C2249.01 536.612 2272.43 565.108 2315.82 593.864L2317.55 595.035L2318.34 596.857C2396.94 775.639 2642.5 886.499 2880.21 993.846C3156.58 1118.63 3442.55 1247.84 3472.57 1485.82C3499.77 1700.91 3240.37 1859.52 2989.47 2012.93C2756.8 2155.28 2516.11 2302.44 2506.04 2492.93C2500.39 2599.24 2634.49 2697.74 2714.66 2756.55C2767.64 2795.58 2815.75 2827.46 2862.28 2858.69C2999.53 2950.82 3108.16 3023.42 3209.25 3181.64L3195.1 3185.68Z" fill="#F3E8FF"/>
<path d="M3074.05 3185.42C3023.74 3097.98 2915.26 3010.8 2800.5 2918.42C2629.14 2780.62 2451.96 2638.01 2461.71 2483.3C2473.82 2291.25 2703.82 2141.35 2926.27 1996.27C3162.08 1842.86 3404.82 1683.99 3376.67 1479.97C3345.23 1252.39 3066.34 1132.55 2796.57 1016.62C2559.34 914.735 2314.09 809.339 2232.18 630.298C2186.59 600.501 2161.44 567.581 2157.35 532.709C2153.11 494.975 2173.07 454.639 2218.19 411.83L2220.08 410.399L2413.45 317.365C2479 291.341 2540.95 271.303 2600.69 252.306C2763.4 200.259 2903.94 155.498 3021.69 10.9375L3034.59 18.2241C2914.16 166.168 2771.57 211.709 2606.34 264.537C2546.76 283.534 2485.29 303.572 2420.84 329.596L2229.2 421.979C2188.01 461.014 2169.14 498.358 2173.07 532.319C2176.69 563.938 2200.43 594.125 2243.66 621.97L2245.39 623.141V624.833C2324 800.231 2567.67 904.716 2803.01 1005.82C3076.56 1122.92 3359.38 1244.84 3391.61 1479.32C3420.54 1690.76 3173.87 1851.71 2935.7 2007.33C2715.61 2150.46 2488.91 2298.67 2477.12 2484.73C2467.69 2633.59 2642.35 2773.99 2811.19 2909.83C2927.05 3002.99 3036.47 3091.08 3087.88 3180.6L3074.05 3185.42Z" fill="#F3E8FF"/>
<path d="M2938.06 3184.9C2898.29 3099.41 2812.29 3010.02 2719.85 2915.42C2579.78 2771.12 2434.99 2622.01 2450.08 2473.8C2468.79 2290.21 2678.66 2139.53 2881.62 1993.8C3111.46 1828.81 3328.57 1673.06 3296.97 1473.33C3261.76 1250.83 2987.27 1140.88 2721.74 1034.44C2487.34 940.497 2245.08 843.299 2162.23 668.681C2116.95 639.405 2091.8 607.005 2087.71 572.394C2083.15 534.53 2103.43 493.543 2149.18 450.604L2150.91 449.433L2344.75 348.722C2409.83 320.486 2471.3 298.366 2530.88 277.027C2695.64 217.823 2837.76 166.817 2955.35 18.6133L2968.56 25.7697C2848.76 177.227 2704.45 229.014 2537.49 288.868C2478.22 310.207 2416.91 332.197 2352.92 360.042L2160.34 460.233C2118.52 500.179 2099.34 537.653 2103.43 571.613C2107.05 602.842 2130.78 632.508 2173.55 659.963L2175.43 661.004L2176.22 662.696C2255.92 833.67 2496.3 929.957 2728.5 1023.12C2998.11 1131.64 3276.22 1242.63 3312.53 1471.9C3345.23 1678.26 3114.76 1843.64 2892 2003.69C2691.4 2147.6 2483.25 2296.58 2465.8 2474.84C2451.18 2617.97 2593.93 2765.01 2732.11 2907.36C2824.71 3002.73 2912.12 3092.9 2952.21 3180.6L2938.06 3184.9Z" fill="#F3E8FF"/>
<path d="M2791.22 3184.25C2763.4 3097.98 2701.77 3006.64 2636.53 2909.96C2535.92 2760.84 2432.16 2606.65 2450.86 2462.48C2473.5 2289.82 2660.9 2138.36 2842 1991.85C3053.77 1821.26 3253.74 1659.14 3218.21 1466.43C3177.65 1250.57 2908.66 1151.81 2648.32 1056.43C2416.44 971.725 2177.95 884.416 2094 715.263C2048.88 686.768 2023.88 655.019 2019.64 620.798C2014.92 582.804 2035.36 541.426 2082.52 497.707L2084.09 496.666L2278.56 387.367C2342.86 356.529 2404.33 331.807 2463.44 307.995C2630.4 240.594 2774.56 182.562 2891.21 29.2832L2904.42 36.3096C2785.41 192.451 2639.36 251.524 2470.36 319.706C2411.4 343.517 2350.25 368.11 2286.89 397.776L2093.68 506.425C2050.92 547.021 2030.8 584.495 2035.67 618.976C2039.45 649.814 2063.03 678.961 2105.63 705.505L2107.36 706.546L2108.15 708.237C2188.95 874.007 2425.55 960.795 2654.45 1044.59C2918.57 1141.53 3191.64 1241.59 3233.46 1464.48C3270.87 1663.95 3058.64 1835.45 2853.48 2001.35C2674.26 2146.17 2489.07 2295.93 2466.9 2464.04C2448.51 2604.18 2551.32 2756.42 2650.68 2903.71C2716.39 3001.17 2778.65 3093.29 2806.95 3180.99L2791.22 3184.25Z" fill="#F3E8FF"/>
<path d="M2637.79 3183.46C2623.64 3096.94 2589.21 3005.2 2552.9 2908.01C2495.04 2753.43 2435.14 2593.64 2459.36 2450.12C2486.08 2292.16 2648.01 2140.96 2803.96 1994.71C2988.68 1821.91 3179.54 1643.39 3138.19 1458.62C3091.03 1250.44 2828.17 1163.78 2573.8 1080.11C2345.85 1005.29 2110.35 927.875 2025.77 763.016C1934.12 584.494 2032.06 522.298 2213.16 427.573C2276.05 394.523 2337.36 367.068 2396.31 340.524C2565.63 264.275 2711.68 198.435 2827.7 39.4316L2841.22 46.1978C2723 207.804 2575.06 274.684 2403.86 351.714C2345.06 377.737 2284.38 405.713 2221.5 438.502C2028.13 539.604 1957.54 596.856 2040.23 757.811C2122.93 918.767 2354.65 994.105 2579.46 1067.88C2837.92 1152.85 3105.18 1240.68 3153.6 1456.15C3196.36 1647.04 3002.83 1828.03 2815.75 2002.65C2661.06 2147.6 2501.33 2297.36 2474.92 2451.42C2451.18 2592.08 2510.45 2750.69 2567.83 2903.71C2604.46 3001.3 2639.05 3093.55 2653.35 3181.25L2637.79 3183.46Z" fill="#F3E8FF"/>
<path d="M2497.24 3182.56H2481.52C2481.52 3099.93 2474.45 3014.83 2466.9 2924.53C2453.22 2760.32 2439.07 2590.39 2471.3 2437.24C2500.54 2297.5 2634.8 2148.51 2764.66 2004.47C2932.24 1818.4 3105.49 1626.09 3058.8 1450.43C3005.5 1249.79 2748.46 1175.88 2500.07 1104.32C2276.36 1040.04 2045.1 973.418 1958.8 814.544C1865.26 642.529 1969.8 571.615 2148.23 469.993C2211.12 434.471 2271.49 404.153 2330.13 374.877C2501.64 289.259 2649.89 215.483 2765.44 50.3633L2778.96 56.8692C2661.37 224.851 2511.7 299.539 2338.77 385.937C2280.29 415.213 2219.76 445.401 2157.67 480.793C1980.81 581.373 1885.06 646.302 1973.57 809.209C2057.05 963.009 2285.16 1028.59 2505.57 1092.09C2758.21 1164.82 3019.49 1239.9 3074.67 1447.7C3122.94 1629.08 2947.33 1823.87 2777.7 2012.28C2648.95 2155.41 2515.79 2302.83 2487.18 2439.45C2455.74 2591.04 2469.41 2760.19 2483.09 2923.75C2490.17 3014.05 2497.24 3099.54 2497.24 3182.56Z" fill="#F3E8FF"/>
<path d="M2342.07 3183.47L2326.35 3181.78C2356.38 2989.98 2399.77 2795.33 2441.59 2607.05C2455.11 2546.15 2468.63 2485.39 2481.68 2424.88C2508.72 2299.19 2614.21 2160.35 2725.82 2013.32C2876.12 1815.41 3031.6 1610.86 2979.4 1442.62C2919.66 1249.79 2668.6 1187.98 2426.02 1128.26C2205.93 1074.26 1979.55 1018.44 1891.51 865.811C1790.9 691.714 1919.81 612.472 2082.99 512.151C2144.93 474.027 2205.3 441.107 2263.78 409.228C2437.5 314.373 2587.48 232.398 2702.71 61.4238L2716.39 67.6695C2599.58 241.377 2447.88 324.131 2272.59 419.898C2214.26 451.777 2154.05 484.957 2092.58 522.431C1912.58 633.031 1815.26 703.294 1905.82 859.956C1990.87 1007.38 2214.42 1062.42 2430.58 1115.64C2677.56 1176.4 2933.66 1239.25 2994.81 1439.24C3048.58 1612.82 2891.37 1819.96 2739.34 2020.08C2628.51 2166.08 2523.81 2303.87 2497.24 2427.09C2484.19 2487.6 2470.67 2548.49 2457.15 2609.26C2415.33 2797.15 2372.1 2992.32 2342.07 3183.47Z" fill="#F3E8FF"/>
<path d="M2191.94 3184.12L2176.22 3180.99C2212.85 3057.25 2269.44 2938.97 2324.15 2824.47C2387.04 2692.79 2452.12 2556.69 2486.08 2412.91C2529.16 2230.74 2614.99 2081.76 2706.17 1923.54C2719.69 1899.98 2733.37 1876.17 2747.21 1851.84C2759.31 1830.5 2773.46 1807.6 2788.4 1783.27C2855.05 1675.66 2937.9 1541.64 2900.17 1434.94C2834.62 1249.4 2589.21 1198.91 2351.82 1150.12C2136.45 1105.88 1913.84 1060.21 1823.75 913.433C1720.94 746.102 1851.74 660.094 2017.12 551.315C2078.43 510.979 2138.65 475.587 2196.81 441.236C2372.57 337.142 2524.28 248.011 2639.36 71.4414L2653.19 77.557C2536.39 256.859 2375.88 351.585 2205.93 451.905C2147.92 486.126 2087.87 521.388 2026.87 561.595C1866.99 666.6 1740.75 749.615 1838.22 907.577C1925 1049.02 2144.15 1094.04 2356.07 1137.5C2597.7 1187.2 2847.66 1238.47 2915.74 1431.3C2955.2 1542.94 2870.77 1679.44 2802.86 1789.25C2787.92 1813.33 2773.78 1836.23 2761.83 1857.44C2747.99 1881.77 2734.32 1905.58 2720.8 1929.13C2626.47 2093.34 2545.19 2235.3 2502.59 2415.51C2468.16 2560.33 2402.76 2697.09 2339.56 2829.29C2284.69 2943.27 2227.78 3061.15 2191.94 3184.12Z" fill="#F3E8FF"/>
<path d="M2050.61 3184.64L2035.83 3180.47C2086.29 3056.6 2166.94 2944.18 2244.92 2835.4C2341.6 2700.86 2441.43 2562.15 2480.73 2402.76C2532.3 2196 2605.71 2033.88 2696.27 1843.25C2706.8 1821 2719.38 1797.06 2732.74 1771.69C2789.49 1663.95 2860.24 1529.93 2820.31 1427.92C2750.03 1248.36 2509.35 1208.02 2276.52 1168.98C2065.07 1133.46 1846.23 1096.77 1754.42 955.461C1649.56 794.115 1784.76 700.04 1941.34 591.131L1949.2 585.797C2010.05 543.508 2069.94 505.774 2127.8 469.341C2305.29 357.7 2457.94 261.153 2573.49 80.0293L2587.48 86.0147C2470.99 269.871 2308.9 372.274 2137.23 479.751C2079.53 516.054 2019.79 553.658 1959.42 595.686L1951.56 601.151C1794.35 710.71 1669.37 797.238 1768.26 949.215C1856.61 1085.19 2071.67 1121.36 2279.66 1156.23C2516.89 1195.92 2762.14 1237.04 2835.24 1423.88C2877.06 1530.58 2805.06 1667.2 2747.2 1776.89C2733.84 1802.14 2721.42 1825.95 2710.89 1847.94C2620.65 2037.78 2547.55 2199.26 2496.14 2405.1C2456.05 2566.19 2355.44 2706.32 2258.12 2841.78C2180.62 2950.29 2100.6 3062.07 2050.61 3184.64Z" fill="#F3E8FF"/>
<path d="M1922.32 3185.03L1907.86 3180.21C1969.17 3052.96 2070.42 2942.62 2168.2 2835.92C2290.98 2702.03 2418.01 2563.72 2460.77 2394.56C2507.25 2205.95 2566.99 2019.74 2639.67 1836.88C2649.11 1813.33 2660.58 1787.82 2672.85 1760.89C2721.27 1653.67 2781.64 1520.17 2740.76 1422.58C2667.34 1247.06 2430.43 1214.4 2201.22 1184.08C1992.75 1155.97 1776.75 1126.83 1683.68 989.683C1577.09 833.542 1716.54 732.18 1864.16 625.354L1879.88 614.033C1940.09 570.184 1999.83 530.628 2057.52 492.503C2228.88 379.041 2390.81 271.304 2505.73 87.4473L2519.72 93.4327C2403.23 280.412 2240.05 388.409 2067.27 502.653C2009.73 540.777 1950.15 580.723 1890.25 623.792L1874.53 635.112C1725.81 742.98 1597.37 836.144 1697.67 983.437C1787.28 1115.12 1999.04 1143.74 2203.89 1171.33C2437.66 1202.95 2679.29 1235.61 2755.7 1418.55C2798.46 1520.69 2736.99 1656.54 2687.78 1765.7C2675.52 1792.51 2664.04 1817.75 2654.77 1841.3C2582.22 2023.68 2522.64 2209.41 2476.33 2397.56C2432.16 2569.18 2304.66 2708.8 2180.62 2843.73C2083.46 2949.78 1982.85 3059.46 1922.32 3185.03Z" fill="#F3E8FF"/>
<path d="M1811.18 3185.16L1796.71 3180.08C1864.31 3047.23 1981.12 2937.41 2094 2831.24C2239.57 2694.22 2376.98 2564.76 2421.15 2388.84L2438.44 2319.61C2479.32 2154.76 2517.99 1999.13 2574.75 1832.32C2583.39 1806.95 2594.24 1779.5 2606.19 1750.61C2650.05 1639.49 2700.51 1513.54 2660.9 1417.77C2589.37 1243.28 2353.55 1217.52 2124.81 1192.54C1918.24 1170.03 1704.43 1146.73 1610.42 1012.97C1502.73 859.825 1640.13 757.292 1785.55 648.644L1806.77 632.769C1866.67 587.879 1926.25 547.022 1983.79 507.466C2156.72 389.449 2318.81 277.808 2433.89 91.7402L2447.88 97.7256C2331.23 285.876 2167.41 398.688 1993.85 517.615C1936.31 556.651 1876.89 597.768 1817.31 642.528L1796.08 658.403C1655.54 763.277 1522.69 862.427 1623.94 1006.47C1714.18 1134.63 1924.05 1157.53 2127.01 1179.65C2360 1205.68 2601 1231.7 2675.52 1413.87C2716.24 1513.67 2665.46 1641.83 2620.81 1754.9C2609.33 1783.79 2598.48 1810.98 2589.37 1836.1C2532.93 2002.39 2495.04 2157.88 2453.38 2322.48L2436.09 2391.83C2391.28 2570.74 2245.86 2707.5 2105.94 2839.69C1993.7 2945.22 1877.83 3054.26 1811.18 3185.16Z" fill="#F3E8FF"/>
<path d="M1720.78 3185.03L1706.32 3180.21C1774.39 3038.65 1900.31 2928.44 2022.31 2821.74C2172.76 2689.93 2315.03 2565.54 2357.64 2387.41C2365.39 2355.31 2372.94 2323.43 2380.28 2291.77C2417.38 2135.63 2452.44 1986.9 2499.6 1831.28C2507.93 1803.83 2519.09 1773.77 2531.04 1741.76C2571.76 1631.81 2617.98 1507.55 2579.93 1416.47C2506.67 1241.2 2272.74 1218.95 2046.68 1197.35C1841.52 1177.7 1629.44 1157.53 1534.33 1023.9C1426.01 871.406 1567.5 764.059 1704.9 660.095L1730.05 641.098C1789.64 595.556 1849.22 553.919 1906.76 513.712C2079.69 392.963 2242.25 279.501 2357.79 93.5625L2371.79 99.5479C2254.82 287.308 2090.69 402.071 1916.82 523.601C1859.44 563.808 1800.01 605.315 1740.74 650.596L1715.59 669.723C1576.93 774.728 1446.13 873.878 1547.69 1016.62C1638.87 1144.65 1846.39 1164.56 2048.25 1183.69C2279.35 1205.81 2518.15 1228.58 2594.55 1411.65C2634.33 1506.9 2587.48 1633.77 2545.98 1745.67C2534.18 1777.41 2523.18 1807.34 2514.53 1834.41C2467.37 1989.77 2432.47 2137.71 2395.37 2294.24C2387.93 2325.9 2380.38 2357.78 2372.73 2389.88C2329.18 2572.04 2178.73 2703.33 2033.31 2830.72C1913.36 2936.5 1787.59 3045.8 1720.78 3185.03Z" fill="#F3E8FF"/>
<path d="M1647.83 3171.1L1633.21 3166.29C1701.44 3023.16 1828.94 2913.08 1952.19 2806.78C2102.96 2676.66 2245.39 2553.83 2288.62 2375.18C2303.24 2314.41 2317.39 2252.99 2330.91 2193.66C2358.11 2075.25 2386.09 1952.81 2420.37 1831.28C2428.23 1803.05 2439.23 1772.21 2450.71 1739.55C2488.44 1632.59 2531.04 1511.58 2493.94 1422.32C2422.25 1249.66 2193.2 1223.11 1971.69 1197.35C1771.09 1174.06 1562.94 1149.99 1469.56 1018.18C1361.71 866.851 1496.75 763.928 1639.82 654.89L1661.83 637.194C1719.52 592.954 1777.06 552.357 1832.71 513.061C2002.66 392.963 2162.85 279.63 2279.03 95.9043L2292.87 102.02C2176.22 288.348 2014.45 402.982 1843.4 523.471C1787.91 562.506 1730.53 603.233 1672.99 647.343L1650.51 664.518C1512.16 769.784 1381.68 869.194 1483.23 1011.54C1573.32 1137.89 1777.06 1161.57 1973.89 1184.47C2200.11 1210.49 2433.89 1237.95 2508.4 1418.03C2547.08 1511.19 2503.69 1634.42 2465.33 1743.32C2453.85 1775.98 2443 1806.69 2435.14 1834.41C2401.03 1955.68 2372.26 2077.86 2345.85 2196.13C2332.33 2255.6 2318.34 2317.01 2303.56 2378.3C2259.38 2560.46 2108.77 2690.58 1963.04 2816.27C1841.36 2921.15 1714.96 3030.19 1647.83 3171.1Z" fill="#F3E8FF"/>
<path d="M1584.79 3132.72L1570.33 3127.9C1639.03 2984.77 1768.57 2876.78 1893.71 2772.16C2046.83 2644.26 2191.47 2523.38 2233.91 2344.73C2247.59 2286.56 2271.64 2211.23 2296.8 2131.46C2372.89 1892.83 2467.53 1595.77 2402.44 1434.42C2334.21 1265.27 2114.91 1231.31 1902.67 1198.52C1710.72 1168.85 1512.16 1138.14 1422.08 1007.9C1317.06 855.92 1450.22 753.387 1591.08 644.739L1607.74 631.727C1662.93 589.048 1717.79 549.883 1770.46 512.149C1934.43 395.043 2089.28 284.443 2201.37 104.49L2215.36 110.476C2101.86 292.64 1945.9 404.021 1780.83 522.038C1728.01 559.642 1673.46 598.677 1618.59 641.226L1601.77 654.237C1460.28 763.666 1336.87 858.262 1435.76 1001.39C1522.22 1126.3 1717.16 1156.49 1905.66 1185.64C2122.14 1219.08 2345.85 1253.69 2417.38 1430.13C2483.88 1595.25 2388.61 1894.39 2312.05 2134.72C2286.58 2214.22 2262.68 2289.3 2249.16 2347.07C2205.93 2529.23 2052.81 2657.53 1904.71 2781.27C1780.83 2885.1 1652.39 2992.32 1584.79 3132.72Z" fill="#F3E8FF"/>
<path d="M1529.93 3074.43L1515.46 3069.35C1587.62 2929.35 1717.01 2822.13 1841.99 2718.03C2005.96 2582.32 2160.81 2454.03 2194.77 2259.11C2205.14 2200.04 2226.21 2122.88 2248.22 2041.29C2303.09 1838.96 2371.47 1587.18 2323.84 1442.75C2270.7 1281.8 2052.34 1231.57 1841.2 1182.52C1682.74 1145.95 1518.92 1108.22 1428.05 1023.38C1275.56 881.033 1375.39 777.72 1532.91 647.081C1597.37 593.733 1661.83 546.631 1724.24 500.959C1875.47 390.62 2018.38 286.265 2124.18 116.592L2138.17 122.577C2030.96 294.463 1886.64 399.468 1734.61 510.718C1672.52 556.259 1608.85 603.232 1543.92 656.32C1387.81 786.437 1296.16 880.643 1439.85 1014.79C1527.57 1096.77 1689.18 1133.98 1845.45 1170.02C2060.83 1219.6 2283.59 1270.87 2338.93 1438.98C2387.67 1586.53 2318.81 1840 2263.47 2043.76C2241.46 2125.09 2220.55 2201.99 2210.33 2260.67C2175.59 2459.75 2011.78 2595.59 1853.15 2726.88C1729.11 2830.46 1600.83 2936.76 1529.93 3074.43Z" fill="#F3E8FF"/>
<path d="M1481.19 3000.91L1466.73 2995.71C1538.89 2860.9 1671.1 2757.46 1799.39 2657.4C1970.43 2523.77 2131.89 2397.16 2159.4 2204.46C2165.53 2160.35 2175.12 2106.74 2186.12 2050.01C2222.28 1854.83 2267.56 1610.86 2222.44 1465.39C2173.39 1306.78 1974.83 1246.01 1782.25 1187.2C1636.83 1142.57 1486.54 1096.12 1401.64 1008.16C1260.15 860.995 1357.78 757.422 1499.74 637.323C1559.95 586.317 1619.85 541.947 1677.86 498.878C1817.94 394.784 1950.15 296.545 2046.52 133.508L2060.67 139.233C1963.36 304.352 1830.04 402.981 1688.87 508.377C1631.01 551.316 1571.43 595.686 1511.53 646.301C1375.08 761.716 1281.22 861.126 1414.53 999.961C1496.6 1085.58 1644.85 1130.86 1788.22 1174.84C1984.11 1234.82 2186.59 1296.76 2237.69 1462.01C2283.44 1610.08 2237.69 1854.96 2201.53 2051.83C2191.15 2108.43 2181.25 2162.04 2174.96 2205.89C2146.82 2403.67 1976.25 2536.91 1810.23 2667.03C1683.36 2766.05 1551.78 2868.58 1481.19 3000.91Z" fill="#F3E8FF"/>
<path d="M1436.54 2916.85L1422.55 2911.26C1499.43 2779.97 1632.43 2681.73 1761.18 2586.75C1923.27 2467.17 2075.6 2354.1 2122.77 2182.08C2163.8 2030.49 2161.6 1648.6 2105.16 1494.28C2048.72 1339.96 1878.46 1271.26 1713.55 1204.77C1566.4 1145.3 1414.85 1083.89 1340.17 962.487C1265.5 841.087 1357.94 731.658 1445.5 648.383C1511.61 586.725 1582.45 528.659 1657.58 474.546C1777.37 385.155 1880.82 307.865 1970.11 151.594L1984.26 157.059C1893.71 315.802 1789.17 393.873 1668.11 484.305C1593.45 537.981 1523.08 595.614 1457.45 656.841C1373.19 737.123 1284.52 843.82 1354.32 956.111C1426.17 1073.22 1575.83 1134.11 1720.62 1192.67C1888.52 1260.46 2062.24 1330.59 2120.41 1490.11C2177.32 1646.26 2179.52 2031.53 2138.33 2184.55C2091.17 2360.73 1935.84 2474.97 1771.71 2596.11C1644.06 2690.71 1512.16 2788.04 1436.54 2916.85Z" fill="#F3E8FF"/>
<path d="M1394.57 2826.94L1380.58 2820.83C1484.33 2660.26 1578.82 2582.45 1751.28 2468.73L1801.27 2436.07C1967.28 2328.07 2076.86 2256.77 2099.18 2079.81C2117.26 1936.68 2058.78 1665.12 2011.62 1517.83C1961.78 1362.86 1817.78 1285.05 1665.75 1202.55C1552.56 1141.27 1435.6 1078.03 1362.81 980.443C1241.29 817.796 1360.45 708.107 1486.69 592.042L1496.12 583.324C1543.29 539.865 1585.73 505.253 1626.77 471.032C1731.94 384.244 1815.42 315.672 1894.02 171.762L1908.33 177.096C1828.47 323.869 1744.52 393.222 1638.09 480.921C1597.21 514.622 1554.92 549.493 1508.23 592.562L1498.64 601.41C1371.14 718.516 1261.1 819.878 1376.49 974.327C1447.39 1069.31 1562.94 1131.9 1675.19 1192.27C1823.44 1272.43 1976.72 1355.44 2027.97 1515.23C2075.13 1663.43 2134.4 1937.2 2116.16 2081.76C2093.05 2263.92 1981.28 2336.92 1812.12 2446.87L1762.28 2479.53C1590.29 2591.43 1496.91 2668.46 1394.57 2826.94Z" fill="#F3E8FF"/>
<path d="M1352.91 2735.6L1339.23 2729.22C1446.76 2571 1539.36 2498.92 1719.52 2387.28C1739.8 2374.26 1760.24 2362.42 1780.21 2350.45C1933.64 2257.94 2066.17 2178.18 2071.2 2014.75C2074.03 1925.49 2018.85 1806.56 1970.27 1700.77C1944.18 1644.3 1919.65 1591.09 1904.87 1545.54C1856.45 1396.56 1736.82 1307.3 1609.95 1212.96C1512.48 1140.36 1411.7 1065.28 1348.19 960.926C1232.64 771.344 1413.59 606.095 1588.41 446.31C1684.46 358.611 1775.17 275.726 1816.36 191.02L1830.98 195.834C1788.69 282.753 1697.2 366.418 1600.04 455.028C1428.68 611.169 1251.51 773.556 1362.18 955.07C1424.28 1057.21 1524.11 1131.51 1620.48 1203.2C1743.42 1294.29 1870.44 1389.4 1919.18 1542.16C1933.8 1587.05 1958.17 1640.01 1984.11 1696.09C2033.31 1802.53 2088.97 1923.28 2086.14 2015.14C2080.95 2184.29 1945.43 2266.53 1788.69 2360.99C1768.73 2372.96 1748.45 2385.06 1728.17 2397.68C1550.68 2508.15 1459.18 2579.46 1352.91 2735.6Z" fill="#F3E8FF"/>
<path d="M1309.99 2647.77L1296.62 2640.87C1423.34 2471.72 1533.7 2401.46 1717.95 2292.16C1733.67 2282.66 1751.43 2272.64 1770.14 2262.1C1889.94 2194.44 2053.91 2101.93 2055.48 1978.97C2056.42 1902.07 1984.58 1815.02 1915.09 1730.83C1866.04 1671.37 1819.66 1615.29 1799.07 1563.89C1751.91 1446 1657.58 1343.73 1567.03 1244.97C1469.24 1138.67 1368.16 1028.72 1327.6 900.421C1270.37 718.256 1398.18 594.644 1533.7 463.225C1613.88 385.155 1696.88 304.612 1739.49 210.146L1754.26 214.701C1710.72 311.248 1626.77 392.832 1545.65 471.683C1412.96 600.499 1287.66 722.16 1342.84 897.168C1382.62 1022.86 1478.2 1126.96 1579.6 1237.04C1671.26 1336.71 1765.9 1439.89 1814 1559.73C1833.97 1609.43 1879.56 1664.86 1927.98 1723.41C1998.88 1809.29 2072.14 1898.16 2071.2 1979.1C2069.47 2109.21 1901.57 2203.68 1779.1 2272.77C1760.4 2283.31 1742.79 2293.33 1727.07 2302.7C1544.55 2410.96 1435.13 2480.44 1309.99 2647.77Z" fill="#F3E8FF"/>
<path d="M1264.24 2566.97L1249.93 2561.63C1294.6 2478.62 1359.19 2403.99 1439.78 2342.28C1520.37 2280.56 1615.28 2233.06 1718.74 2202.64C1909.12 2146.95 2009.57 2039.47 2017.43 1882.94C1997.94 1819.31 1933.8 1782.36 1865.88 1743.06C1797.97 1703.77 1730.53 1664.99 1695.94 1596.94V1594.86C1685.94 1459.91 1624.46 1331.07 1520.34 1226.89C1409.51 1111.72 1328.69 978.814 1282.95 836.534C1263.93 683.646 1373.66 571.875 1479.78 463.747C1551.78 390.751 1625.82 315.413 1661.83 227.453L1677.55 231.747C1639.82 321.918 1565.14 398.037 1492.82 471.684C1383.88 582.674 1280.9 687.419 1299.14 833.932C1344.38 974.166 1424.13 1105.16 1533.38 1218.69C1638.88 1324.78 1701.17 1455.76 1711.35 1592.91C1744.36 1656.93 1810.86 1695.31 1875.16 1732.39C1945.9 1773.25 2012.72 1811.77 2033.31 1880.73V1881.64V1882.55C2025.3 2045.46 1921.22 2157.23 1723.92 2214.87C1622.5 2244.75 1529.46 2291.37 1450.44 2351.89C1371.43 2412.41 1308.08 2485.58 1264.24 2566.97V2566.97Z" fill="#F3E8FF"/>
<path d="M1212.99 2499.83L1198.84 2494.23C1296.31 2324.17 1456.82 2206.41 1675.82 2144.09C1868.56 2093.08 1970.43 1987.95 1978.76 1831.8C1951.41 1768.05 1881.92 1751.91 1808.34 1734.74C1731.31 1716.78 1644.06 1696.35 1597.05 1617.63L1596.11 1615.03C1591.09 1478.44 1542.26 1345.43 1454.62 1229.62C1361.19 1102.91 1295.37 963.609 1260.15 818.058C1247.26 672.066 1334.2 574.998 1426.32 472.205C1488.42 402.852 1552.09 331.027 1585.11 242.287L1600.83 246.061C1567.66 337.143 1502.57 409.618 1439.53 480.272C1349.29 580.983 1263.93 676.229 1276.35 816.496C1311.16 960.108 1376.01 1097.58 1467.98 1222.72C1556.9 1339.98 1606.55 1474.7 1611.83 1613.08C1656.01 1686.07 1735.56 1704.16 1812.59 1722.51C1889.62 1740.85 1964.45 1758.03 1994.17 1829.07V1830.24V1831.54C1985.99 1994.06 1880.5 2103.36 1680.53 2156.84C1466.1 2217.47 1308.73 2333.02 1212.99 2499.83Z" fill="#F3E8FF"/>
<path d="M1154.51 2449.99L1140.67 2444.01C1253.39 2266.01 1429.94 2143.96 1665.13 2081.5C1872.49 2027.76 1953.77 1925.36 1913.68 1769.22C1831.52 1733.25 1736.1 1723.97 1646.1 1743.19H1644.85H1643.59C1590.3 1740.07 1552.09 1726.8 1529.93 1703.51C1507.76 1680.22 1502.57 1650.81 1510.28 1612.43C1497.91 1511.02 1468.93 1411.48 1424.12 1316.54C1344.77 1169.18 1280.46 1016.58 1231.86 860.346C1204.19 691.193 1283.58 589.831 1367.69 482.224C1420.51 414.693 1475.22 344.69 1507.45 253.607L1523.17 257.251C1490.15 350.155 1434.97 420.939 1381.68 489.381C1299.14 594.906 1221.32 694.576 1248.05 857.874C1296.42 1013.22 1360.42 1164.95 1439.37 1311.46C1484.93 1407.9 1514.39 1509.02 1526.94 1612.04V1613.08C1519.71 1648.6 1525.21 1676.18 1542.66 1695.18C1560.11 1714.18 1595.8 1726.93 1643.9 1729.92C1738.63 1710.28 1838.81 1720.87 1924.52 1759.59L1927.67 1761.02V1763.88C1971.06 1927.05 1883.96 2038.04 1669.21 2093.86C1438.74 2155.28 1265.34 2275.12 1154.51 2449.99Z" fill="#F3E8FF"/>
<path d="M1087.22 2422.02L1073.39 2416.03C1186.74 2237.51 1364.54 2116.76 1602.09 2057.95C1810.86 2005.9 1893.24 1903.89 1853.62 1746.84C1761.35 1716.28 1658.59 1715.44 1565.61 1744.5H1563.26C1506.35 1746.06 1465.79 1735.65 1442.36 1713.4C1418.94 1691.15 1413.59 1661.35 1421.77 1621.27C1407.9 1519.01 1381.94 1418.12 1344.26 1320.05C1277.06 1166.64 1221.77 1009.83 1178.72 850.588C1155.45 685.859 1226.98 586.839 1302.6 482.094C1349.76 416.125 1399.29 348.073 1429.63 258.812L1445.35 262.326C1413.91 353.408 1364.54 422.11 1316.59 488.73C1242.23 591.523 1172.12 688.721 1194.75 848.506C1237.71 1007.02 1292.74 1163.13 1359.51 1315.89C1397.68 1415.14 1424 1517.25 1438.12 1620.75V1622.58C1430.41 1659.4 1436.07 1687.63 1454.78 1704.81C1473.49 1721.99 1510.9 1732.79 1562.16 1730.83C1659.79 1700.61 1767.63 1702.09 1864 1735L1867.93 1736.3L1868.87 1739.68C1911.95 1904.15 1824.07 2015.01 1607.27 2069.27C1373.19 2128.47 1198.53 2246.75 1087.22 2422.02Z" fill="#F3E8FF"/>
<path d="M1012.23 2419.02L998.398 2413.04C1111.12 2235.3 1287.98 2115.46 1523.95 2056.91C1730.53 2004.86 1813.53 1902.33 1777.22 1745.41C1683.01 1715.41 1578.7 1715.41 1484.49 1745.41H1482.13C1425.07 1747.36 1384.19 1737.21 1360.3 1715.09C1336.4 1692.97 1330.43 1663.04 1337.97 1622.83C1321.36 1520.82 1295.87 1419.94 1261.73 1320.96C1202.93 1166.9 1151.68 1008.68 1110.8 850.586C1088.64 686.768 1157.97 584.235 1230.91 475.587C1274.62 410.528 1319.74 344.168 1349.76 259.592L1365.48 263.365C1334.04 349.243 1289.39 416.644 1245.38 481.963C1173.37 588.659 1105.46 689.37 1126.84 848.504C1168.03 1005.43 1218.65 1163.39 1277.45 1316.93C1311.88 1416.89 1337.57 1518.78 1354.32 1621.79V1623.62C1347.25 1660.57 1353.38 1688.67 1372.56 1706.11C1391.74 1723.55 1429.31 1733.82 1480.88 1732.13C1579.84 1701 1689.34 1701.84 1787.59 1734.48L1791.52 1735.78L1792.47 1739.16C1832.08 1903.63 1743.58 2014.62 1529.14 2069.14C1296.63 2126.91 1122.91 2244.67 1012.23 2419.02Z" fill="#F3E8FF"/>
<path d="M949.978 2430.22L935.986 2424.23C986.462 2340.53 1057.15 2266.29 1143.68 2206.11C1230.22 2145.93 1330.75 2101.08 1439.06 2074.34C1636.67 2020.34 1716.38 1919.76 1682.74 1766.75C1593.56 1730.98 1491.92 1722.63 1395.98 1743.19H1394.88H1394.57C1339.39 1741.63 1300.24 1729.01 1275.87 1705.85C1251.51 1682.69 1245.69 1653.8 1251.98 1613.6C1232.96 1514.19 1209.38 1413.87 1182.18 1315.63C1133.76 1164.95 1091 1010.76 1055.15 857.614C1035.81 697.439 1097.91 584.367 1163.47 463.227C1202.59 395.576 1235.23 325.488 1261.1 253.607L1276.82 257.121C1250.87 329.658 1217.96 400.363 1178.4 468.562C1113.63 587.359 1052.64 699.651 1071.34 855.662C1107.03 1008.03 1149.95 1161.96 1198.06 1312.5C1225.57 1411.52 1249.15 1512.5 1268.33 1612.56V1614.38C1262.51 1650.55 1269.27 1678.53 1288.45 1697.39C1307.63 1716.26 1344.73 1728.62 1394.57 1730.18C1494.7 1709.06 1600.65 1718.29 1693.27 1756.21L1696.88 1757.64V1760.89C1733.67 1920.94 1648.46 2030.49 1443.46 2086.18C1337.13 2112.5 1238.46 2156.62 1153.57 2215.8C1068.68 2274.98 999.387 2347.96 949.978 2430.22V2430.22Z" fill="#F3E8FF"/>
<path d="M902.029 2451.16L887.88 2445.57C932.107 2365.36 996.161 2293.72 1075.91 2235.27C1155.65 2176.82 1249.32 2132.86 1350.86 2106.22C1536.21 2049.49 1609.47 1950.08 1574.89 1802.26C1493.21 1757.42 1395.49 1737 1297.88 1744.36H1295.84C1193.81 1729.79 1147.75 1681.91 1158.91 1602.4C1063.64 1440.93 1035.81 1129.43 1017.42 923.06C1015.85 904.193 1014.12 886.237 1012.55 869.452C998.084 713.31 1045.56 583.193 1095.71 445.268C1119.14 380.86 1142.87 314.37 1161.27 244.236L1176.99 246.839C1158.91 317.493 1134.7 384.373 1111.12 449.041C1061.28 585.925 1014.28 715.132 1028.58 868.411C1030.16 885.196 1031.73 903.152 1033.46 922.149C1052.01 1128.26 1079.83 1439.63 1174.95 1598.76L1175.89 1600.45V1602.4C1164.88 1675.79 1205.13 1718.08 1298.67 1732.52C1400.56 1725.03 1502.47 1746.76 1587.31 1794.07L1590.14 1795.5V1798.1C1627.55 1952.55 1548.95 2060.68 1356.68 2119.75C1257.12 2145.63 1165.22 2188.49 1086.91 2245.57C1008.6 2302.65 945.621 2372.69 902.029 2451.16V2451.16Z" fill="#F3E8FF"/>
<path d="M865.555 2479.79L850.935 2474.85C886.471 2399.15 941.586 2330.81 1012.41 2274.62C1083.24 2218.43 1168.07 2175.74 1260.94 2149.55C1430.57 2088.66 1495.03 1990.16 1457.29 1848.72C1383.92 1792.64 1291.18 1756.97 1192.08 1746.71H1190.51C1095.08 1718.34 1052.01 1664.21 1062.38 1585.88C993.21 1441.06 989.437 1214.92 986.293 1033.01C985.349 979.663 984.563 928.918 982.205 884.678C973.401 720.209 1000.91 556.781 1027.48 398.818C1036.76 343.779 1046.35 286.917 1054.36 230.576L1070.09 232.138C1062.07 288.479 1052.48 345.47 1043.2 401.291C1017.26 557.822 989.122 720.729 997.926 884.417C1000.28 929.048 1001.07 979.533 1002.01 1033.14C1005.16 1214.53 1008.93 1440.28 1077.63 1582.89V1584.45V1586.01C1067.41 1659.27 1105.62 1707.8 1194.6 1734.48C1297.4 1745.22 1393.51 1782.51 1469.24 1841.04L1471.13 1842.47V1844.43C1511.37 1991.85 1442.2 2098.81 1265.81 2162.17C1175.18 2187.8 1092.39 2229.5 1023.26 2284.36C954.123 2339.22 900.301 2405.92 865.555 2479.79V2479.79Z" fill="#F3E8FF"/>
<path d="M837.573 2513.88L821.852 2510.24C843.14 2443.56 883.405 2382.07 939.282 2330.91C995.159 2279.75 1065.02 2240.41 1143.03 2216.17C1286.41 2160.09 1355.11 2065.76 1347.41 1936.29C1326.02 1852.88 1247.73 1812.29 1164.88 1769.22C1078.58 1724.46 989.28 1678.14 957.367 1578.86C911.147 1435.73 927.968 1255.9 944.318 1082.07C952.179 999.442 960.039 921.371 960.039 851.108C960.039 751.698 955.637 650.987 951.393 553.659C946.519 442.538 941.488 327.644 943.061 214.182H958.782C957.209 327.384 962.24 442.148 967.114 552.488C971.358 650.076 975.76 750.787 975.76 850.457C975.76 921.241 968.214 999.572 960.039 1082.46C944.318 1255.12 927.025 1433.77 972.459 1574.82C1002.8 1669.03 1089.58 1714.05 1173.22 1756.99C1256.85 1799.93 1340.17 1843.64 1362.97 1933.43C1371.77 2069.79 1300.08 2167.64 1149.95 2226.97C1073.93 2250.59 1005.87 2288.99 951.51 2338.91C897.15 2388.84 858.075 2448.85 837.573 2513.88Z" fill="#F3E8FF"/>
<path d="M814.933 2551.74L799.212 2549.4C827.51 2420.71 913.661 2327.42 1055.46 2272.38C1178.4 2212.01 1232.64 2120.79 1215.66 2001.74C1197.11 1908.05 1121.34 1850.93 1041.63 1790.56C958.78 1727.84 873.101 1663.04 852.978 1553.48C828.453 1423.36 863.196 1284.66 896.997 1150.12C920.107 1057.73 944.16 962.226 947.461 872.575C952.492 736.082 918.063 602.581 884.577 473.504C858.738 381.952 839.317 289.241 826.409 195.833L842.13 194.662C854.91 287.552 874.227 379.745 899.983 470.772C933.469 600.889 968.056 734.911 962.868 872.965C959.409 964.048 935.356 1059.81 912.089 1152.85C878.603 1286.09 844.017 1423.75 868.227 1551.27C888.036 1656.4 971.671 1719.64 1052.63 1780.8C1131.24 1840.13 1212.05 1901.42 1231.54 1999.78C1249.3 2124.83 1192.55 2220.2 1063.17 2283.7C997.832 2307.42 940.809 2344.44 897.407 2391.3C854.004 2438.17 825.633 2493.36 814.933 2551.74V2551.74Z" fill="#F3E8FF"/>
<path d="M794.182 2592.86L779.247 2588.83C808.803 2512.45 870.115 2447.26 929.54 2384.28C1020.57 2287.47 1106.56 2196 1082.51 2069.79C1063.33 1968.69 989.909 1892.57 918.85 1818.92C838.673 1735.78 755.823 1649.77 747.334 1527.07C738.844 1404.37 791.981 1289.73 843.232 1178.74C885.521 1087.66 929.226 992.804 937.558 895.086C950.921 744.149 882.22 595.815 815.72 453.336C773.902 363.165 730.512 269.87 708.346 176.966L724.067 174.494C745.919 265.576 788.995 359.001 830.655 448.652C897.784 592.952 967.114 742.197 953.436 896.127C944.633 995.667 900.614 1091.3 857.853 1183.43C807.231 1293.12 754.723 1406.71 763.526 1526.29C772.33 1645.86 853.136 1729.27 931.741 1810.72C1004.06 1885.67 1078.89 1963.22 1098.7 2067.71C1123.85 2199.65 1031.73 2297.49 942.589 2392.22C883.321 2454.42 822.952 2518.69 794.182 2592.86Z" fill="#F3E8FF"/>
<path d="M773.588 2631.77L757.867 2629.56C774.374 2553.57 815.877 2489.68 855.809 2428C906.587 2349.93 954.537 2276.03 953.751 2180.78C952.807 2058.08 877.189 1953.46 804.086 1852.23C727.211 1745.93 647.662 1635.98 652.693 1503.78C657.095 1385.11 722.966 1287.65 786.479 1193.32C837.101 1117.98 889.609 1040.3 910.675 952.078C952.336 780.323 844.332 607.136 740.416 439.935C682.563 346.901 622.666 250.744 591.538 157.97L607.259 154.457C637.758 245.539 694.668 337.272 754.88 434.08C860.21 603.233 969.314 778.111 926.868 954.55C905.173 1044.72 852.036 1123.7 801.099 1199.43C735.543 1296.76 673.759 1388.62 669.357 1504.04C664.484 1632.33 742.774 1740.72 818.55 1845.47C892.753 1948.13 969.472 2054.3 970.415 2180.52C971.201 2279.02 920.108 2357.74 870.586 2433.99C830.34 2495.01 789.623 2557.86 773.588 2631.77Z" fill="#F3E8FF"/>
<path d="M734.285 2668.59C727.368 2589.48 753.622 2519.47 778.933 2451.81C802.986 2387.53 827.825 2321.7 824.366 2246.88C818.55 2122.75 751.421 2006.29 686.493 1893.61C611.504 1763.49 533.999 1629.08 552.078 1482.96C567.013 1362.47 649.549 1277.76 729.412 1195.79C794.811 1128.65 862.569 1059.29 892.753 970.293C951.392 797.627 804.244 605.964 662.126 419.635C586.193 320.356 514.348 226.671 477.718 140.013L492.496 135.719C528.654 220.946 599.87 314.11 675.331 412.739C819.493 601.019 968.371 795.676 907.845 973.807C876.403 1064.89 808.017 1135.8 741.674 1203.98C659.61 1288.17 582.105 1367.67 567.642 1484.26C550.035 1627.39 623.295 1753.73 700.799 1887.62C766.356 2001.48 834.271 2119.1 840.087 2245.97C843.546 2322.48 818.392 2390.01 793.868 2455.2C767.928 2524.94 743.246 2590.65 750.006 2667.29L734.285 2668.59Z" fill="#F3E8FF"/>
<path d="M702.844 2701.77C695.769 2631.66 694.403 2561.24 698.756 2490.98C704.165 2412.12 701.43 2333.03 690.581 2254.56C673.446 2155.67 622.981 2050.14 569.53 1938.37C490.925 1775.07 410.59 1606.31 439.045 1454.98C462.155 1331.5 566.071 1260.72 666.528 1192.28C739.159 1142.83 814.306 1091.69 858.168 1020.91C964.442 849.675 758.182 611.17 577.076 401.42C487.623 298.887 404.145 202.47 366.414 124.139L381.034 119.455C417.822 196.224 500.986 292.251 589.024 393.873C773.588 607.006 982.835 849.285 872.002 1026.9C826.568 1100.02 750.321 1151.94 676.433 1202.29C573.617 1272.3 476.618 1338.4 454.295 1456.93C426.626 1604.88 506.646 1771.95 583.993 1933.56C637.759 2046.11 688.695 2152.28 705.988 2252.73C716.956 2331.94 719.743 2411.77 714.32 2491.37C709.962 2561.02 711.328 2630.84 718.408 2700.34L702.844 2701.77Z" fill="#F3E8FF"/>
<path d="M662.44 2728.06C653.165 2645.04 633.513 2560.85 614.491 2479.53C600.657 2420.33 586.193 2359.17 575.974 2298.67C560.253 2202.77 513.09 2093.47 465.927 1977.67C387.322 1789.91 305.258 1595.77 343.46 1437.68C374.902 1309.12 491.552 1248.23 604.744 1189.28C686.493 1146.74 770.915 1102.89 822.795 1033.14C925.296 896.779 817.921 780.064 714.162 667.122C699.542 651.117 684.921 635.373 671.244 619.629C630.212 572.917 590.752 530.628 552.55 489.511C441.56 370.844 345.661 268.311 262.969 110.739L277.432 105.664C359.339 261.805 454.608 363.557 564.97 481.574C603.172 522.561 642.789 564.979 683.978 611.692C697.655 627.176 712.119 642.92 726.739 658.794C828.769 769.785 944.318 895.608 836.786 1039.65C783.02 1111.34 697.026 1156.1 613.862 1199.3C498.312 1259.42 389.209 1316.41 359.496 1439.37C322.237 1593.95 403.043 1786.39 481.334 1972.85C530.226 2089.31 575.66 2199.13 592.796 2296.32C603.015 2356.44 617.321 2417.59 631.155 2476.54C652.27 2559.09 668.326 2642.47 679.262 2726.36L662.44 2728.06Z" fill="#F3E8FF"/>
<path d="M609.616 2745.75C604.743 2668.59 573.615 2598.72 540.601 2524.55C513.089 2462.61 484.477 2398.47 472.529 2329.37C456.808 2236.47 414.518 2126.52 369.871 2010.07C291.266 1803.18 208.887 1589.39 252.434 1425.97C288.278 1291.95 414.518 1239.25 536.513 1188.24C625.337 1151.16 717.148 1112.9 774.53 1043.42C885.834 908.099 764.94 784.617 658.194 675.839C640.901 658.273 624.708 641.618 609.459 625.093C563.553 575.388 519.377 530.888 476.773 487.819C357.765 367.981 255.107 264.537 166.44 102.671L180.747 97.3359C268.47 257.511 370.657 360.434 488.879 479.622C531.64 522.691 575.973 567.321 621.879 617.156C637.6 633.551 653.32 650.076 670.299 667.642C780.346 780.063 906.115 907.448 787.421 1050.71C727.838 1123.05 634.298 1162.09 543.745 1199.82C419.392 1251.87 301.956 1300.66 267.841 1428.83C225.08 1588.74 306.358 1800.84 384.806 2006.03C429.61 2123.14 471.9 2233.61 488.093 2327.55C499.726 2395.34 528.024 2458.84 555.379 2520.26C586.821 2591.82 620.307 2665.86 625.337 2744.97L609.616 2745.75Z" fill="#F3E8FF"/>
<path d="M557.267 2752.78H541.546C541.546 2699.82 520.637 2668.85 497.999 2635.67C486.073 2618.95 475.567 2601.55 466.557 2583.62C425.525 2498.01 402.887 2450.9 383.235 2344.34C366.571 2254.29 327.74 2146.69 286.551 2032.7C211.404 1824.52 126.354 1590.3 169.587 1421.15C205.745 1280.88 336.858 1233.65 463.727 1187.98C556.638 1154.54 652.379 1120.06 712.748 1049.15C827.354 914.083 701.272 788.91 589.967 677.919C572.517 660.484 555.852 644.089 540.603 627.824C491.396 575.777 443.918 529.585 398.17 484.695C276.018 366.027 170.687 263.495 81.3916 98.6356L95.6977 93.3008C184.05 256.468 288.752 358.35 410.118 476.237C456.024 520.997 503.501 567.319 553.022 619.366C568.743 635.371 584.464 651.766 602.072 669.071C711.176 777.72 847.005 912.912 725.639 1056.04C662.755 1129.95 564.97 1165.34 470.015 1199.17C341.103 1245.62 219.422 1289.34 184.993 1423.1C142.546 1588.22 227.126 1821.78 301.643 2027.89C342.99 2142.26 381.978 2250.26 398.799 2341.21C418.293 2446.35 439.202 2490.2 481.177 2577.64C490.16 2595.2 500.668 2612.21 512.619 2628.51C535.415 2663.78 557.739 2696.3 557.267 2752.78Z" fill="#F3E8FF"/>
</svg>
