<?xml version="1.0" standalone="no"?>
<svg id="pattern_04" width="1200" height="694" viewBox="0 0 1200 694" fill="none" xmlns="http://www.w3.org/2000/svg" style="max-width: 100%; max-height: 100%;">
<g clip-path="url(#clip0_230_1541)">
<rect width="1200" height="693.571" fill="#221E1E" stroke-dasharray="0,0,908.9141015624999,2878.22798828125"><animate attributeType="XML" attributeName="stroke-dasharray" repeatCount="indefinite" dur="4.784344488377472s" values="0,0,908.9141015624999,2878.22798828125; 
          0,2878.22798828125,908.9141015624999,0; 
          908.9141015624999,2878.22798828125,0,0" keyTimes="0; 0.76; 1"></animate></rect>
<path d="M42.1191 51.6688H43.6844L43.4291 49.2414L42.1191 51.6688ZM43.0147 47.8309H44.4712L45.3459 54H43.948L43.8183 52.7319H41.5457L40.8509 54H39.5033L43.0147 47.8309ZM48.5016 48.9023L48.15 50.5597H49.6107C49.9009 50.5597 50.1255 50.5262 50.2845 50.4593C50.5663 50.3421 50.7449 50.1105 50.8202 49.7645C50.8984 49.3906 50.8272 49.1395 50.6068 49.0112C50.4812 48.9386 50.2789 48.9023 49.9999 48.9023H48.5016ZM51.9628 48.421C52.0633 48.5773 52.1316 48.7503 52.1679 48.94C52.207 49.1297 52.2014 49.346 52.1512 49.5887C52.087 49.8817 51.9503 50.1705 51.741 50.4551C51.5345 50.7369 51.2485 50.9364 50.883 51.0536C51.1425 51.168 51.3085 51.3312 51.3811 51.5432C51.4564 51.7525 51.448 52.0734 51.356 52.5059L51.2681 52.9202C51.2095 53.202 51.1802 53.3931 51.1802 53.4936C51.1802 53.6526 51.2332 53.7698 51.3392 53.8451L51.3099 54H49.8911C49.88 53.8633 49.8744 53.7531 49.8744 53.6694C49.8772 53.4964 49.8967 53.3192 49.933 53.1378L50.046 52.5645C50.1241 52.171 50.1074 51.9088 49.9957 51.7776C49.8869 51.6465 49.6428 51.5809 49.2633 51.5809H47.9324L47.4218 54H46.162L47.472 47.8309H50.498C50.9277 47.8393 51.2485 47.8923 51.4606 47.99C51.6726 48.0876 51.8401 48.2313 51.9628 48.421ZM58.1193 47.8309L57.885 48.9233H56.0393L54.9637 54H53.6662L54.7418 48.9233H52.8878L53.1221 47.8309H58.1193Z" fill="white" stroke-dasharray="0,0,20.790276489257813,65.83587554931641"><animate attributeType="XML" attributeName="stroke-dasharray" repeatCount="indefinite" dur="4.958275321166138s" values="0,0,20.790276489257813,65.83587554931641; 
          0,65.83587554931641,20.790276489257813,0; 
          20.790276489257813,65.83587554931641,0,0" keyTimes="0; 0.76; 1"></animate></path>
<rect x="62.8572" y="45" width="0.714286" height="12.1429" fill="white" stroke-dasharray="0,0,6.171448974609374,19.542921752929686"><animate attributeType="XML" attributeName="stroke-dasharray" repeatCount="indefinite" dur="4.977028018901918s" values="0,0,6.171448974609374,19.542921752929686; 
          0,19.542921752929686,6.171448974609374,0; 
          6.171448974609374,19.542921752929686,0,0" keyTimes="0; 0.76; 1"></animate></rect>
<path d="M69.9542 54V47.8286H72.2085C72.6085 47.8286 72.9371 47.8743 73.1942 47.9657C73.4571 48.0571 73.6628 48.1829 73.8114 48.3429C73.9656 48.5029 74.0714 48.6886 74.1285 48.9C74.1914 49.1057 74.2228 49.3229 74.2228 49.5514C74.2228 49.8943 74.1514 50.1771 74.0085 50.4C73.8714 50.6229 73.6914 50.8 73.4685 50.9314C73.2456 51.0571 72.9914 51.1457 72.7056 51.1971C72.4256 51.2486 72.1428 51.2743 71.8571 51.2743H70.5371V54H69.9542ZM71.8742 50.7771C72.1485 50.7771 72.3942 50.76 72.6114 50.7257C72.8285 50.6914 73.0114 50.6286 73.1599 50.5371C73.3142 50.44 73.4314 50.3114 73.5114 50.1514C73.5971 49.9857 73.6399 49.7714 73.6399 49.5086C73.6399 49.12 73.5114 48.8257 73.2542 48.6257C73.0028 48.4257 72.5999 48.3257 72.0456 48.3257H70.5371V50.7771H71.8742ZM74.018 54L76.4437 47.8286H77.1037L79.4694 54H78.8694L78.158 52.0629H75.3466L74.618 54H74.018ZM75.5437 51.5657H77.9609L76.7523 48.3257L75.5437 51.5657ZM78.9568 47.8286H83.4483V48.3257H81.494V54H80.9111V48.3257H78.9568V47.8286ZM83.7197 47.8286H88.2111V48.3257H86.2568V54H85.6739V48.3257H83.7197V47.8286ZM89.0396 54V47.8286H93.1454V48.3257H89.6225V50.5543H92.8025V51.0514H89.6225V53.5029H93.2311V54H89.0396ZM96.671 50.7C96.8882 50.7 97.0882 50.6771 97.271 50.6314C97.4596 50.5857 97.6225 50.5143 97.7596 50.4171C97.8967 50.3143 98.0053 50.1857 98.0853 50.0314C98.1653 49.8771 98.2053 49.6914 98.2053 49.4743C98.2053 49.2457 98.1625 49.0571 98.0767 48.9086C97.9967 48.76 97.8853 48.6429 97.7425 48.5571C97.6053 48.4714 97.4453 48.4114 97.2625 48.3771C97.0853 48.3429 96.8996 48.3257 96.7053 48.3257H94.8539V50.7H96.671ZM94.8539 51.1971V54H94.271V47.8286H96.6882C97.3682 47.8286 97.8882 47.9571 98.2482 48.2143C98.6082 48.4657 98.7882 48.8771 98.7882 49.4486C98.7882 49.8371 98.7082 50.1457 98.5482 50.3743C98.3939 50.6029 98.1396 50.7971 97.7853 50.9571C97.9682 51.02 98.111 51.1114 98.2139 51.2314C98.3167 51.3514 98.3939 51.4886 98.4453 51.6429C98.4967 51.7971 98.5282 51.96 98.5396 52.1314C98.5567 52.3029 98.5682 52.4686 98.5739 52.6286C98.5796 52.8629 98.5882 53.0571 98.5996 53.2114C98.6167 53.3657 98.6339 53.4914 98.651 53.5886C98.6739 53.6857 98.6996 53.7629 98.7282 53.82C98.7567 53.8714 98.791 53.9114 98.831 53.94V54H98.1882C98.1253 53.8971 98.0796 53.7543 98.051 53.5714C98.0282 53.3886 98.0082 53.1971 97.991 52.9971C97.9796 52.7971 97.9682 52.6029 97.9567 52.4143C97.951 52.2257 97.9367 52.0714 97.9139 51.9514C97.8796 51.7857 97.8225 51.6543 97.7425 51.5571C97.6682 51.4543 97.5767 51.3771 97.4682 51.3257C97.3596 51.2743 97.2367 51.24 97.0996 51.2229C96.9682 51.2057 96.831 51.1971 96.6882 51.1971H94.8539ZM100.58 48.6171H100.562V54H99.9795V47.8286H100.64L104.205 53.22H104.222V47.8286H104.805V54H104.128L100.58 48.6171Z" fill="white" stroke-dasharray="0,0,51.158349609375,162.0014404296875"><animate attributeType="XML" attributeName="stroke-dasharray" repeatCount="indefinite" dur="4.846086463462659s" values="0,0,51.158349609375,162.0014404296875; 
          0,162.0014404296875,51.158349609375,0; 
          51.158349609375,162.0014404296875,0,0" keyTimes="0; 0.76; 1"></animate></path>
<path d="M1054.28 48.3395H1055.18V54.2065H1058.55V55H1054.28V48.3395ZM1062.32 48.1581C1063.5 48.1581 1064.37 48.536 1064.93 49.2916C1065.37 49.8811 1065.6 50.6352 1065.6 51.5541C1065.6 52.5486 1065.34 53.3753 1064.84 54.0342C1064.25 54.8081 1063.4 55.195 1062.3 55.195C1061.28 55.195 1060.47 54.8564 1059.89 54.1793C1059.36 53.5264 1059.1 52.7012 1059.1 51.7038C1059.1 50.803 1059.33 50.0322 1059.77 49.3914C1060.35 48.5692 1061.2 48.1581 1062.32 48.1581ZM1062.41 54.3879C1063.21 54.3879 1063.78 54.1038 1064.14 53.5355C1064.49 52.9642 1064.67 52.3083 1064.67 51.5677C1064.67 50.7849 1064.47 50.1546 1064.05 49.677C1063.65 49.1995 1063.09 48.9607 1062.38 48.9607C1061.69 48.9607 1061.12 49.1979 1060.69 49.6725C1060.25 50.144 1060.04 50.8408 1060.04 51.7627C1060.04 52.5002 1060.22 53.1229 1060.59 53.6307C1060.97 54.1355 1061.58 54.3879 1062.41 54.3879ZM1069.55 48.1672C1070.18 48.1672 1070.72 48.2881 1071.18 48.5299C1071.84 48.8775 1072.24 49.4866 1072.39 50.3571H1071.5C1071.39 49.8705 1071.16 49.5168 1070.82 49.2962C1070.48 49.0725 1070.05 48.9607 1069.53 48.9607C1068.91 48.9607 1068.39 49.1919 1067.97 49.6544C1067.55 50.1168 1067.34 50.806 1067.34 51.7219C1067.34 52.5138 1067.51 53.1592 1067.86 53.6579C1068.21 54.1536 1068.78 54.4015 1069.56 54.4015C1070.16 54.4015 1070.66 54.2277 1071.05 53.8801C1071.45 53.5295 1071.65 52.9642 1071.66 52.1844H1069.58V51.4362H1072.5V55H1071.92L1071.7 54.1431C1071.4 54.4786 1071.13 54.7113 1070.89 54.8413C1070.5 55.065 1069.99 55.1768 1069.38 55.1768C1068.59 55.1768 1067.91 54.9214 1067.35 54.4106C1066.73 53.7698 1066.42 52.8902 1066.42 51.7718C1066.42 50.6564 1066.72 49.7692 1067.32 49.1103C1067.9 48.4816 1068.64 48.1672 1069.55 48.1672ZM1076.69 48.3395H1077.6V55H1076.69V48.3395ZM1079.07 48.3395H1080.14L1083.5 53.735V48.3395H1084.36V55H1083.35L1079.93 49.609V55H1079.07V48.3395Z" fill="white" stroke-dasharray="0,0,37.98457763671875,120.28449584960937"><animate attributeType="XML" attributeName="stroke-dasharray" repeatCount="indefinite" dur="4.952102585907589s" values="0,0,37.98457763671875,120.28449584960937; 
          0,120.28449584960937,37.98457763671875,0; 
          37.98457763671875,120.28449584960937,0,0" keyTimes="0; 0.76; 1"></animate></path>
<path d="M1115.58 52.8509C1115.6 53.2287 1115.69 53.5355 1115.85 53.7713C1116.15 54.2126 1116.68 54.4332 1117.43 54.4332C1117.77 54.4332 1118.08 54.3849 1118.36 54.2882C1118.9 54.1007 1119.16 53.7652 1119.16 53.2816C1119.16 52.9189 1119.05 52.6604 1118.82 52.5063C1118.59 52.3551 1118.23 52.2237 1117.75 52.1118L1116.84 51.9078C1116.25 51.7748 1115.84 51.6282 1115.59 51.468C1115.17 51.1899 1114.96 50.7743 1114.96 50.2211C1114.96 49.6226 1115.16 49.1314 1115.58 48.7476C1115.99 48.3637 1116.58 48.1717 1117.34 48.1717C1118.04 48.1717 1118.63 48.341 1119.11 48.6795C1119.6 49.0151 1119.85 49.5531 1119.85 50.2937H1119C1118.96 49.937 1118.86 49.6634 1118.71 49.473C1118.44 49.1254 1117.97 48.9516 1117.31 48.9516C1116.78 48.9516 1116.4 49.0634 1116.16 49.2871C1115.93 49.5108 1115.81 49.7707 1115.81 50.067C1115.81 50.3934 1115.95 50.6322 1116.22 50.7833C1116.4 50.8801 1116.8 51.001 1117.43 51.1461L1118.37 51.3592C1118.82 51.4619 1119.16 51.6025 1119.41 51.7808C1119.83 52.0922 1120.04 52.5441 1120.04 53.1365C1120.04 53.874 1119.77 54.4015 1119.24 54.7189C1118.7 55.0363 1118.08 55.195 1117.37 55.195C1116.54 55.195 1115.89 54.9834 1115.42 54.5602C1114.96 54.14 1114.73 53.5703 1114.73 52.8509H1115.58ZM1121.39 48.3395H1122.3V55H1121.39V48.3395ZM1126.65 48.1672C1127.28 48.1672 1127.82 48.2881 1128.27 48.5299C1128.94 48.8775 1129.34 49.4866 1129.49 50.3571H1128.6C1128.49 49.8705 1128.26 49.5168 1127.92 49.2962C1127.58 49.0725 1127.15 48.9607 1126.63 48.9607C1126.01 48.9607 1125.49 49.1919 1125.07 49.6544C1124.65 50.1168 1124.44 50.806 1124.44 51.7219C1124.44 52.5138 1124.61 53.1592 1124.96 53.6579C1125.31 54.1536 1125.87 54.4015 1126.66 54.4015C1127.26 54.4015 1127.76 54.2277 1128.15 53.8801C1128.55 53.5295 1128.75 52.9642 1128.76 52.1844H1126.67V51.4362H1129.6V55H1129.02L1128.8 54.1431C1128.49 54.4786 1128.22 54.7113 1127.99 54.8413C1127.59 55.065 1127.09 55.1768 1126.48 55.1768C1125.69 55.1768 1125.01 54.9214 1124.44 54.4106C1123.82 53.7698 1123.51 52.8902 1123.51 51.7718C1123.51 50.6564 1123.81 49.7692 1124.42 49.1103C1124.99 48.4816 1125.74 48.1672 1126.65 48.1672ZM1131 48.3395H1132.06L1135.43 53.735V48.3395H1136.28V55H1135.27L1131.86 49.609V55H1131V48.3395ZM1140.5 48.3395H1141.41V55H1140.5V48.3395ZM1142.88 48.3395H1143.94L1147.31 53.735V48.3395H1148.16V55H1147.15L1143.74 49.609V55H1142.88V48.3395Z" fill="white" stroke-dasharray="0,0,46.1558056640625,146.16005126953127"><animate attributeType="XML" attributeName="stroke-dasharray" repeatCount="indefinite" dur="4.973871358863721s" values="0,0,46.1558056640625,146.16005126953127; 
          0,146.16005126953127,46.1558056640625,0; 
          46.1558056640625,146.16005126953127,0,0" keyTimes="0; 0.76; 1"></animate></path>
<path d="M51.3988 639.054H52.691L54.6043 644.685L56.5041 639.054H57.7827V645.714H56.9257V641.783C56.9257 641.647 56.9288 641.422 56.9348 641.108C56.9409 640.793 56.9439 640.456 56.9439 640.097L55.0441 645.714H54.1509L52.2375 640.097V640.301C52.2375 640.464 52.2406 640.713 52.2466 641.049C52.2557 641.381 52.2602 641.626 52.2602 641.783V645.714H51.3988V639.054ZM59.2426 639.054H64.0986V639.87H60.1222V641.892H63.7994V642.663H60.1222V644.921H64.1666V645.714H59.2426V639.054ZM65.35 639.054H66.4155L69.7798 644.449V639.054H70.6367V645.714H69.6256L66.2115 640.323V645.714H65.35V639.054ZM73.0397 639.054V643.171C73.0397 643.654 73.1304 644.056 73.3118 644.377C73.5808 644.86 74.0342 645.102 74.672 645.102C75.4367 645.102 75.9566 644.841 76.2317 644.318C76.3798 644.034 76.4539 643.651 76.4539 643.171V639.054H77.3697V642.794C77.3697 643.614 77.2594 644.244 77.0387 644.685C76.6337 645.489 75.869 645.891 74.7445 645.891C73.6201 645.891 72.8569 645.489 72.4548 644.685C72.2342 644.244 72.1238 643.614 72.1238 642.794V639.054H73.0397ZM81.5592 639.054H82.4705V645.714H81.5592V639.054ZM88.7864 639.054V639.847H86.5421V645.714H85.6262V639.847H83.3819V639.054H88.7864ZM89.7023 639.054H94.5583V639.87H90.5819V641.892H94.259V642.663H90.5819V644.921H94.6263V645.714H89.7023V639.054ZM95.787 639.054H97.0792L98.9926 644.685L100.892 639.054H102.171V645.714H101.314V641.783C101.314 641.647 101.317 641.422 101.323 641.108C101.329 640.793 101.332 640.456 101.332 640.097L99.4324 645.714H98.5392L96.6258 640.097V640.301C96.6258 640.464 96.6288 640.713 96.6349 641.049C96.6439 641.381 96.6485 641.626 96.6485 641.783V645.714H95.787V639.054Z" fill="white" stroke-dasharray="0,0,71.1943505859375,225.44877685546876"><animate attributeType="XML" attributeName="stroke-dasharray" repeatCount="indefinite" dur="4.801176968923235s" values="0,0,71.1943505859375,225.44877685546876; 
          0,225.44877685546876,71.1943505859375,0; 
          71.1943505859375,225.44877685546876,0,0" keyTimes="0; 0.76; 1"></animate></path>
<path d="M130.936 639.054H135.556V639.87H131.839V641.892H135.108V642.686H131.839V645.714H130.936V639.054ZM136.731 639.054H137.642V645.714H136.731V639.054ZM142.208 642.105C142.631 642.105 142.965 642.021 143.21 641.851C143.458 641.682 143.582 641.377 143.582 640.935C143.582 640.461 143.409 640.137 143.065 639.965C142.88 639.875 142.634 639.829 142.326 639.829H140.122V642.105H142.208ZM139.22 639.054H142.303C142.811 639.054 143.23 639.128 143.559 639.276C144.185 639.56 144.498 640.085 144.498 640.849C144.498 641.248 144.414 641.575 144.248 641.829C144.085 642.083 143.855 642.287 143.559 642.441C143.819 642.547 144.014 642.686 144.144 642.858C144.277 643.03 144.351 643.31 144.366 643.697L144.398 644.59C144.407 644.844 144.428 645.033 144.461 645.157C144.516 645.368 144.612 645.504 144.751 645.565V645.714H143.645C143.615 645.657 143.591 645.583 143.573 645.492C143.555 645.402 143.539 645.226 143.527 644.966L143.473 643.855C143.452 643.42 143.29 643.128 142.988 642.98C142.815 642.899 142.545 642.858 142.176 642.858H140.122V645.714H139.22V639.054ZM146.411 643.565C146.432 643.943 146.521 644.25 146.678 644.486C146.978 644.927 147.505 645.148 148.261 645.148C148.599 645.148 148.908 645.099 149.186 645.003C149.724 644.815 149.993 644.48 149.993 643.996C149.993 643.633 149.879 643.375 149.653 643.221C149.423 643.069 149.063 642.938 148.574 642.826L147.671 642.622C147.082 642.489 146.665 642.343 146.42 642.182C145.997 641.904 145.785 641.489 145.785 640.935C145.785 640.337 145.992 639.846 146.406 639.462C146.821 639.078 147.407 638.886 148.166 638.886C148.864 638.886 149.456 639.055 149.943 639.394C150.433 639.729 150.677 640.267 150.677 641.008H149.83C149.784 640.651 149.688 640.378 149.539 640.187C149.264 639.84 148.797 639.666 148.138 639.666C147.606 639.666 147.224 639.778 146.991 640.001C146.759 640.225 146.642 640.485 146.642 640.781C146.642 641.108 146.778 641.347 147.05 641.498C147.229 641.594 147.632 641.715 148.261 641.86L149.195 642.074C149.645 642.176 149.993 642.317 150.238 642.495C150.661 642.807 150.872 643.258 150.872 643.851C150.872 644.588 150.603 645.116 150.065 645.433C149.53 645.751 148.908 645.909 148.197 645.909C147.369 645.909 146.721 645.698 146.252 645.275C145.784 644.854 145.554 644.285 145.563 643.565H146.411ZM156.862 639.054V639.847H154.618V645.714H153.702V639.847H151.457V639.054H156.862ZM160.199 639.054H163.196C163.788 639.054 164.266 639.222 164.629 639.557C164.991 639.89 165.173 640.358 165.173 640.963C165.173 641.483 165.011 641.936 164.688 642.323C164.364 642.707 163.867 642.899 163.196 642.899H161.101V645.714H160.199V639.054ZM164.261 640.967C164.261 640.478 164.08 640.145 163.717 639.97C163.518 639.876 163.244 639.829 162.897 639.829H161.101V642.137H162.897C163.302 642.137 163.63 642.051 163.881 641.879C164.135 641.706 164.261 641.402 164.261 640.967ZM169.181 638.872C170.357 638.872 171.227 639.25 171.793 640.006C172.234 640.595 172.454 641.35 172.454 642.268C172.454 643.263 172.202 644.09 171.697 644.749C171.105 645.522 170.26 645.909 169.163 645.909C168.138 645.909 167.333 645.571 166.746 644.894C166.223 644.241 165.962 643.416 165.962 642.418C165.962 641.517 166.185 640.747 166.633 640.106C167.207 639.284 168.056 638.872 169.181 638.872ZM169.272 645.102C170.067 645.102 170.641 644.818 170.995 644.25C171.351 643.679 171.53 643.023 171.53 642.282C171.53 641.499 171.324 640.869 170.913 640.391C170.505 639.914 169.946 639.675 169.235 639.675C168.546 639.675 167.984 639.912 167.549 640.387C167.113 640.858 166.896 641.555 166.896 642.477C166.896 643.215 167.082 643.837 167.453 644.345C167.828 644.85 168.434 645.102 169.272 645.102ZM173.738 639.054H174.649V645.714H173.738V639.054ZM176.118 639.054H177.183L180.548 644.449V639.054H181.405V645.714H180.394L176.979 640.323V645.714H176.118V639.054ZM187.675 639.054V639.847H185.431V645.714H184.515V639.847H182.271V639.054H187.675Z" fill="white" stroke-dasharray="0,0,70.9639599609375,224.71920654296875"><animate attributeType="XML" attributeName="stroke-dasharray" repeatCount="indefinite" dur="4.963154466253609s" values="0,0,70.9639599609375,224.71920654296875; 
          0,224.71920654296875,70.9639599609375,0; 
          70.9639599609375,224.71920654296875,0,0" keyTimes="0; 0.76; 1"></animate></path>
<path d="M208.697 639.054V639.847H206.453V645.714H205.537V639.847H203.292V639.054H208.697ZM209.731 639.054H210.642V645.714H209.731V639.054ZM216.958 639.054V639.847H214.714V645.714H213.798V639.847H211.553V639.054H216.958ZM217.788 639.054H218.69V644.921H222.063V645.714H217.788V639.054ZM223.043 639.054H227.899V639.87H223.922V641.892H227.599V642.663H223.922V644.921H227.967V645.714H223.043V639.054Z" fill="white" stroke-dasharray="0,0,29.6994580078125,94.04828369140625"><animate attributeType="XML" attributeName="stroke-dasharray" repeatCount="indefinite" dur="4.95751062715103s" values="0,0,29.6994580078125,94.04828369140625; 
          0,94.04828369140625,29.6994580078125,0; 
          29.6994580078125,94.04828369140625,0,0" keyTimes="0; 0.76; 1"></animate></path>
<path d="M244.873 639.054H245.784V641.806H249.248V639.054H250.159V645.714H249.248V642.599H245.784V645.714H244.873V639.054ZM252.54 639.054V643.171C252.54 643.654 252.631 644.056 252.812 644.377C253.081 644.86 253.534 645.102 254.172 645.102C254.937 645.102 255.457 644.841 255.732 644.318C255.88 644.034 255.954 643.651 255.954 643.171V639.054H256.87V642.794C256.87 643.614 256.76 644.244 256.539 644.685C256.134 645.489 255.369 645.891 254.245 645.891C253.12 645.891 252.357 645.489 251.955 644.685C251.734 644.244 251.624 643.614 251.624 642.794V639.054H252.54ZM258.475 639.054H259.386V645.714H258.475V639.054ZM261.427 645.714H260.338L262.723 642.3L260.488 639.054H261.617L263.317 641.602L265.004 639.054H266.079L263.843 642.3L266.187 645.714H265.067L263.272 642.976L261.427 645.714Z" fill="white" stroke-dasharray="0,0,28.047584838867188,88.8173519897461"><animate attributeType="XML" attributeName="stroke-dasharray" repeatCount="indefinite" dur="4.944418394143716s" values="0,0,28.047584838867188,88.8173519897461; 
          0,88.8173519897461,28.047584838867188,0; 
          28.047584838867188,88.8173519897461,0,0" keyTimes="0; 0.76; 1"></animate></path>
<path d="M283.44 643.565C283.461 643.943 283.55 644.25 283.707 644.486C284.006 644.927 284.534 645.148 285.289 645.148C285.628 645.148 285.936 645.099 286.214 645.003C286.752 644.815 287.021 644.48 287.021 643.996C287.021 643.633 286.908 643.375 286.681 643.221C286.452 643.069 286.092 642.938 285.602 642.826L284.7 642.622C284.111 642.489 283.693 642.343 283.449 642.182C283.025 641.904 282.814 641.489 282.814 640.935C282.814 640.337 283.021 639.846 283.435 639.462C283.849 639.078 284.436 638.886 285.194 638.886C285.892 638.886 286.485 639.055 286.972 639.394C287.461 639.729 287.706 640.267 287.706 641.008H286.858C286.813 640.651 286.716 640.378 286.568 640.187C286.293 639.84 285.826 639.666 285.167 639.666C284.635 639.666 284.253 639.778 284.02 640.001C283.787 640.225 283.671 640.485 283.671 640.781C283.671 641.108 283.807 641.347 284.079 641.498C284.257 641.594 284.661 641.715 285.289 641.86L286.223 642.074C286.674 642.176 287.021 642.317 287.266 642.495C287.689 642.807 287.901 643.258 287.901 643.851C287.901 644.588 287.632 645.116 287.094 645.433C286.559 645.751 285.936 645.909 285.226 645.909C284.398 645.909 283.749 645.698 283.281 645.275C282.812 644.854 282.583 644.285 282.592 643.565H283.44ZM293.891 639.054V639.847H291.646V645.714H290.73V639.847H288.486V639.054H293.891ZM297.45 642.985L296.439 640.042L295.364 642.985H297.45ZM295.967 639.054H296.987L299.404 645.714H298.415L297.74 643.719H295.106L294.385 645.714H293.46L295.967 639.054ZM304.382 639.054V639.847H302.138V645.714H301.222V639.847H298.978V639.054H304.382ZM305.298 639.054H310.154V639.87H306.178V641.892H309.855V642.663H306.178V644.921H310.222V645.714H305.298V639.054ZM311.383 639.054H312.675L314.588 644.685L316.488 639.054H317.767V645.714H316.91V641.783C316.91 641.647 316.913 641.422 316.919 641.108C316.925 640.793 316.928 640.456 316.928 640.097L315.028 645.714H314.135L312.222 640.097V640.301C312.222 640.464 312.225 640.713 312.231 641.049C312.24 641.381 312.244 641.626 312.244 641.783V645.714H311.383V639.054ZM319.227 639.054H324.083V639.87H320.106V641.892H323.783V642.663H320.106V644.921H324.151V645.714H319.227V639.054ZM325.334 639.054H326.4L329.764 644.449V639.054H330.621V645.714H329.61L326.196 640.323V645.714H325.334V639.054ZM336.891 639.054V639.847H334.647V645.714H333.731V639.847H331.487V639.054H336.891Z" fill="white" stroke-dasharray="0,0,75.29889404296874,238.44649780273437"><animate attributeType="XML" attributeName="stroke-dasharray" repeatCount="indefinite" dur="4.826007913651314s" values="0,0,75.29889404296874,238.44649780273437; 
          0,238.44649780273437,75.29889404296874,0; 
          75.29889404296874,238.44649780273437,0,0" keyTimes="0; 0.76; 1"></animate></path>
<g clip-path="url(#clip1_230_1541)">
<path d="M79.3395 983.048C79.3395 983.048 -40.3805 448.838 235.129 436.028C385.999 429.028 354.319 623.028 540.959 753.518C726.729 883.358 888.279 863.668 971.109 983.518" stroke="white" stroke-width="3" stroke-miterlimit="10" stroke-dasharray="0,0,382.380791015625,1210.8725048828126"><animate attributeType="XML" attributeName="stroke-dasharray" repeatCount="indefinite" dur="4.855030235054911s" values="0,0,382.380791015625,1210.8725048828126; 
          0,1210.8725048828126,382.380791015625,0; 
          382.380791015625,1210.8725048828126,0,0" keyTimes="0; 0.76; 1"></animate></path>
<g opacity="0.99">
<path d="M136.757 1026.02C136.757 1026.02 -29.0672 504.281 244.278 467.508C393.964 447.385 379.313 643.408 576.615 757.135C772.995 870.29 932.214 836.595 1025.17 948.77" stroke="white" stroke-width="3" stroke-miterlimit="10" stroke-dasharray="0,0,382.37912109375,1210.867216796875"><animate attributeType="XML" attributeName="stroke-dasharray" repeatCount="indefinite" dur="4.811593088471621s" values="0,0,382.37912109375,1210.867216796875; 
          0,1210.867216796875,382.37912109375,0; 
          382.37912109375,1210.867216796875,0,0" keyTimes="0; 0.76; 1"></animate></path>
</g>
<g opacity="0.98">
<path d="M197.701 1063.83C197.701 1063.83 -12.9649 558.526 256.135 498.069C403.498 464.977 405.987 661.531 612.45 757.629C817.945 853.238 973.621 805.794 1076 909.44" stroke="white" stroke-width="3" stroke-miterlimit="10" stroke-dasharray="0,0,382.37982421875,1210.869443359375"><animate attributeType="XML" attributeName="stroke-dasharray" repeatCount="indefinite" dur="4.830429286552056s" values="0,0,382.37982421875,1210.869443359375; 
          0,1210.869443359375,382.37982421875,0; 
          382.37982421875,1210.869443359375,0,0" keyTimes="0; 0.76; 1"></animate></path>
</g>
<g opacity="0.9">
<path d="M261.709 1096.18C261.709 1096.18 7.80429 611.159 270.611 527.478C414.529 481.669 434.139 677.258 648.193 754.996C861.238 832.331 1012.19 771.499 1123.21 865.828" stroke="white" stroke-width="3" stroke-miterlimit="10" stroke-dasharray="0,0,382.38014648437496,1210.8704638671875"><animate attributeType="XML" attributeName="stroke-dasharray" repeatCount="indefinite" dur="4.937485391588014s" values="0,0,382.38014648437496,1210.8704638671875; 
          0,1210.8704638671875,382.38014648437496,0; 
          382.38014648437496,1210.8704638671875,0,0" keyTimes="0; 0.76; 1"></animate></path>
</g>
<g opacity="0.84">
<path d="M328.292 1122.83C328.292 1122.83 33.0817 661.786 287.595 555.519C426.972 497.341 463.555 690.476 683.569 749.262C902.544 807.735 1047.62 733.979 1166.44 818.271" stroke="white" stroke-width="3" stroke-miterlimit="10" stroke-dasharray="0,0,382.379619140625,1210.8687939453125"><animate attributeType="XML" attributeName="stroke-dasharray" repeatCount="indefinite" dur="4.829008094649531s" values="0,0,382.379619140625,1210.8687939453125; 
          0,1210.8687939453125,382.379619140625,0; 
          382.379619140625,1210.8687939453125,0,0" keyTimes="0; 0.76; 1"></animate></path>
</g>
<g opacity="0.76">
<path d="M396.945 1143.58C396.945 1143.58 62.6753 710.013 306.958 581.968C440.735 511.864 494.011 701.076 718.312 740.462C941.549 779.628 1079.64 693.508 1205.36 767.124" stroke="white" stroke-width="3" stroke-miterlimit="10" stroke-dasharray="0,0,382.381083984375,1210.8734326171875"><animate attributeType="XML" attributeName="stroke-dasharray" repeatCount="indefinite" dur="4.986272338651481s" values="0,0,382.381083984375,1210.8734326171875; 
          0,1210.8734326171875,382.381083984375,0; 
          382.381083984375,1210.8734326171875,0,0" keyTimes="0; 0.76; 1"></animate></path>
</g>
<g opacity="0.68">
<path d="M467.145 1158.26C467.145 1158.26 96.3599 755.479 328.554 606.63C455.711 525.133 525.275 708.982 752.155 728.67C977.957 748.23 1108.02 650.403 1239.68 712.781" stroke="white" stroke-width="3" stroke-miterlimit="10" stroke-dasharray="0,0,382.38205078125,1210.876494140625"><animate attributeType="XML" attributeName="stroke-dasharray" repeatCount="indefinite" dur="4.986275443911153s" values="0,0,382.38205078125,1210.876494140625; 
          0,1210.876494140625,382.38205078125,0; 
          382.38205078125,1210.876494140625,0,0" keyTimes="0; 0.76; 1"></animate></path>
</g>
<g opacity="0.64">
<path d="M538.358 1166.77C538.358 1166.77 133.879 797.837 352.216 629.318C471.786 537.048 557.11 714.135 784.842 713.974C1011.49 713.779 1132.53 604.989 1269.12 655.655" stroke="white" stroke-width="3" stroke-miterlimit="10" stroke-dasharray="0,0,382.38070312499997,1210.8722265625"><animate attributeType="XML" attributeName="stroke-dasharray" repeatCount="indefinite" dur="4.865969701526215s" values="0,0,382.38070312499997,1210.8722265625; 
          0,1210.8722265625,382.38070312499997,0; 
          382.38070312499997,1210.8722265625,0,0" keyTimes="0; 0.76; 1"></animate></path>
</g>
<g opacity="0.56">
<path d="M610.041 1169.04C610.041 1169.04 174.947 836.761 377.766 649.854C488.839 547.514 589.272 716.49 816.124 696.482C1041.89 676.534 1152.99 557.608 1293.48 596.177" stroke="white" stroke-width="3" stroke-miterlimit="10" stroke-dasharray="0,0,382.381962890625,1210.8762158203126"><animate attributeType="XML" attributeName="stroke-dasharray" repeatCount="indefinite" dur="4.9605549369776005s" values="0,0,382.381962890625,1210.8762158203126; 
          0,1210.8762158203126,382.381962890625,0; 
          382.381962890625,1210.8762158203126,0,0" keyTimes="0; 0.76; 1"></animate></path>
</g>
<g opacity="0.48">
<path d="M681.65 1165.05C681.65 1165.05 219.251 871.96 405.008 668.087C506.74 556.456 621.517 716.036 845.762 676.332C1068.93 636.783 1169.24 508.627 1312.56 534.804" stroke="white" stroke-width="3" stroke-miterlimit="10" stroke-dasharray="0,0,382.3817578125,1210.87556640625"><animate attributeType="XML" attributeName="stroke-dasharray" repeatCount="indefinite" dur="4.9140250988626075s" values="0,0,382.3817578125,1210.87556640625; 
          0,1210.87556640625,382.3817578125,0; 
          382.3817578125,1210.87556640625,0,0" keyTimes="0; 0.76; 1"></animate></path>
</g>
<g opacity="0.4">
<path d="M752.638 1154.84C752.638 1154.84 266.455 903.165 433.737 683.878C525.352 563.806 653.601 712.775 873.532 653.678C1092.41 594.829 1181.16 458.418 1326.22 472.005" stroke="white" stroke-width="3" stroke-miterlimit="10" stroke-dasharray="0,0,382.381787109375,1210.8756591796875"><animate attributeType="XML" attributeName="stroke-dasharray" repeatCount="indefinite" dur="4.926102750495366s" values="0,0,382.381787109375,1210.8756591796875; 
          0,1210.8756591796875,382.381787109375,0; 
          382.381787109375,1210.8756591796875,0,0" keyTimes="0; 0.76; 1"></animate></path>
</g>
<g opacity="0.32">
<path d="M822.467 1138.48C822.467 1138.48 316.2 930.136 463.732 697.104C544.534 569.504 685.278 706.728 899.222 628.688C1112.13 550.987 1188.67 407.359 1334.35 408.252" stroke="white" stroke-width="3" stroke-miterlimit="10" stroke-dasharray="0,0,382.380966796875,1210.8730615234376"><animate attributeType="XML" attributeName="stroke-dasharray" repeatCount="indefinite" dur="4.881511794989583s" values="0,0,382.380966796875,1210.8730615234376; 
          0,1210.8730615234376,382.380966796875,0; 
          382.380966796875,1210.8730615234376,0,0" keyTimes="0; 0.76; 1"></animate></path>
</g>
<g opacity="0.24">
<path d="M890.605 1116.09C890.605 1116.09 368.106 952.669 494.767 707.666C564.14 573.508 716.309 697.944 922.636 601.554C1127.97 505.593 1191.69 355.841 1336.9 344.033" stroke="white" stroke-width="3" stroke-miterlimit="10" stroke-dasharray="0,0,382.38087890624996,1210.872783203125"><animate attributeType="XML" attributeName="stroke-dasharray" repeatCount="indefinite" dur="4.756523227821787s" values="0,0,382.38087890624996,1210.872783203125; 
          0,1210.872783203125,382.38087890624996,0; 
          382.38087890624996,1210.872783203125,0,0" keyTimes="0; 0.76; 1"></animate></path>
</g>
<path d="M1107.32 -289.068C1107.32 -289.068 1227.04 245.142 951.533 257.952C800.663 264.952 832.343 70.9522 645.703 -59.5378C459.933 -189.378 298.383 -169.688 215.553 -289.538" stroke="white" stroke-width="3" stroke-miterlimit="10" stroke-dasharray="0,0,382.3803515625,1210.87111328125"><animate attributeType="XML" attributeName="stroke-dasharray" repeatCount="indefinite" dur="4.768391447469391s" values="0,0,382.3803515625,1210.87111328125; 
          0,1210.87111328125,382.3803515625,0; 
          382.3803515625,1210.87111328125,0,0" keyTimes="0; 0.76; 1"></animate></path>
<g opacity="0.99">
<path d="M1049.91 -332.044C1049.91 -332.044 1215.73 189.699 942.384 226.473C792.698 246.595 807.35 50.5723 610.047 -63.1544C413.667 -176.309 254.448 -142.614 161.488 -254.789" stroke="white" stroke-width="3" stroke-miterlimit="10" stroke-dasharray="0,0,382.381083984375,1210.8734326171875"><animate attributeType="XML" attributeName="stroke-dasharray" repeatCount="indefinite" dur="4.876159327725333s" values="0,0,382.381083984375,1210.8734326171875; 
          0,1210.8734326171875,382.381083984375,0; 
          382.381083984375,1210.8734326171875,0,0" keyTimes="0; 0.76; 1"></animate></path>
</g>
<g opacity="0.98">
<path d="M988.961 -369.851C988.961 -369.851 1199.63 135.454 930.527 195.912C783.164 229.003 780.675 32.4496 574.211 -63.6483C368.717 -159.257 213.041 -111.813 110.657 -215.459" stroke="white" stroke-width="3" stroke-miterlimit="10" stroke-dasharray="0,0,382.38140625,1210.874453125"><animate attributeType="XML" attributeName="stroke-dasharray" repeatCount="indefinite" dur="4.925856475707941s" values="0,0,382.38140625,1210.874453125; 
          0,1210.874453125,382.38140625,0; 
          382.38140625,1210.874453125,0,0" keyTimes="0; 0.76; 1"></animate></path>
</g>
<g opacity="0.9">
<path d="M924.953 -402.2C924.953 -402.2 1178.86 82.8214 916.051 166.502C772.133 212.312 752.523 16.7226 538.469 -61.0151C325.424 -138.35 174.475 -77.5188 63.4478 -171.847" stroke="white" stroke-width="3" stroke-miterlimit="10" stroke-dasharray="0,0,382.38093749999996,1210.87296875"><animate attributeType="XML" attributeName="stroke-dasharray" repeatCount="indefinite" dur="4.859496899547478s" values="0,0,382.38093749999996,1210.87296875; 
          0,1210.87296875,382.38093749999996,0; 
          382.38093749999996,1210.87296875,0,0" keyTimes="0; 0.76; 1"></animate></path>
</g>
<g opacity="0.84">
<path d="M858.37 -428.852C858.37 -428.852 1153.58 32.1941 899.067 138.462C759.69 196.64 723.107 3.50433 503.093 -55.2815C284.118 -113.754 139.045 -39.9982 20.2193 -124.291" stroke="white" stroke-width="3" stroke-miterlimit="10" stroke-dasharray="0,0,382.38093749999996,1210.87296875"><animate attributeType="XML" attributeName="stroke-dasharray" repeatCount="indefinite" dur="4.8625477169642215s" values="0,0,382.38093749999996,1210.87296875; 
          0,1210.87296875,382.38093749999996,0; 
          382.38093749999996,1210.87296875,0,0" keyTimes="0; 0.76; 1"></animate></path>
</g>
<g opacity="0.76">
<path d="M789.716 -449.596C789.716 -449.596 1123.99 -16.033 879.703 112.012C745.927 182.117 692.651 -7.09538 468.35 -46.482C245.112 -85.6472 107.02 0.471981 -18.7005 -73.1435" stroke="white" stroke-width="3" stroke-miterlimit="10" stroke-dasharray="0,0,382.38123046875,1210.873896484375"><animate attributeType="XML" attributeName="stroke-dasharray" repeatCount="indefinite" dur="4.7643290773903715s" values="0,0,382.38123046875,1210.873896484375; 
          0,1210.873896484375,382.38123046875,0; 
          382.38123046875,1210.873896484375,0,0" keyTimes="0; 0.76; 1"></animate></path>
</g>
<g opacity="0.68">
<path d="M719.516 -464.278C719.516 -464.278 1090.3 -61.4988 858.108 87.35C730.951 168.847 661.387 -15.0018 434.507 -34.6895C208.705 -54.2492 78.6437 43.5778 -53.0141 -18.8003" stroke="white" stroke-width="3" stroke-miterlimit="10" stroke-dasharray="0,0,382.38041015625,1210.871298828125"><animate attributeType="XML" attributeName="stroke-dasharray" repeatCount="indefinite" dur="4.785276274377205s" values="0,0,382.38041015625,1210.871298828125; 
          0,1210.871298828125,382.38041015625,0; 
          382.38041015625,1210.871298828125,0,0" keyTimes="0; 0.76; 1"></animate></path>
</g>
<g opacity="0.64">
<path d="M648.304 -472.787C648.304 -472.787 1052.78 -103.857 834.446 64.6626C714.876 156.932 629.553 -20.1543 401.82 -19.9932C175.173 -19.7986 54.1329 88.9918 -82.4606 38.3258" stroke="white" stroke-width="3" stroke-miterlimit="10" stroke-dasharray="0,0,382.38020507812496,1210.8706494140624"><animate attributeType="XML" attributeName="stroke-dasharray" repeatCount="indefinite" dur="4.76598272413636s" values="0,0,382.38020507812496,1210.8706494140624; 
          0,1210.8706494140624,382.38020507812496,0; 
          382.38020507812496,1210.8706494140624,0,0" keyTimes="0; 0.76; 1"></animate></path>
</g>
<g opacity="0.56">
<path d="M576.621 -475.055C576.621 -475.055 1011.72 -142.781 808.897 44.1266C697.823 146.466 597.391 -22.5099 370.539 -2.50117C144.771 17.4463 33.6731 136.372 -106.816 97.8037" stroke="white" stroke-width="3" stroke-miterlimit="10" stroke-dasharray="0,0,382.381318359375,1210.8741748046875"><animate attributeType="XML" attributeName="stroke-dasharray" repeatCount="indefinite" dur="4.768292222984017s" values="0,0,382.381318359375,1210.8741748046875; 
          0,1210.8741748046875,382.381318359375,0; 
          382.381318359375,1210.8741748046875,0,0" keyTimes="0; 0.76; 1"></animate></path>
</g>
<g opacity="0.48">
<path d="M505.013 -471.068C505.013 -471.068 967.411 -177.979 781.654 25.8938C679.922 137.525 565.145 -22.0551 340.9 17.6489C117.73 57.1974 17.4199 185.353 -125.896 159.176" stroke="white" stroke-width="3" stroke-miterlimit="10" stroke-dasharray="0,0,382.38064453124997,1210.872041015625"><animate attributeType="XML" attributeName="stroke-dasharray" repeatCount="indefinite" dur="4.9834335723352305s" values="0,0,382.38064453124997,1210.872041015625; 
          0,1210.872041015625,382.38064453124997,0; 
          382.38064453124997,1210.872041015625,0,0" keyTimes="0; 0.76; 1"></animate></path>
</g>
<g opacity="0.4">
<path d="M434.024 -460.858C434.024 -460.858 920.207 -209.185 752.926 10.1022C661.311 130.175 533.062 -18.7943 313.131 40.3028C94.2568 99.1514 5.49784 235.562 -139.555 221.976" stroke="white" stroke-width="3" stroke-miterlimit="10" stroke-dasharray="0,0,382.3810546875,1210.87333984375"><animate attributeType="XML" attributeName="stroke-dasharray" repeatCount="indefinite" dur="4.903343599371687s" values="0,0,382.3810546875,1210.87333984375; 
          0,1210.87333984375,382.3810546875,0; 
          382.3810546875,1210.87333984375,0,0" keyTimes="0; 0.76; 1"></animate></path>
</g>
<g opacity="0.32">
<path d="M364.195 -444.497C364.195 -444.497 870.463 -236.156 722.93 -3.12356C642.128 124.477 501.384 -12.7477 287.44 65.2929C74.5284 142.994 -2.00382 286.621 -147.689 285.729" stroke="white" stroke-width="3" stroke-miterlimit="10" stroke-dasharray="0,0,382.381083984375,1210.8734326171875"><animate attributeType="XML" attributeName="stroke-dasharray" repeatCount="indefinite" dur="4.777661217185679s" values="0,0,382.381083984375,1210.8734326171875; 
          0,1210.8734326171875,382.381083984375,0; 
          382.381083984375,1210.8734326171875,0,0" keyTimes="0; 0.76; 1"></animate></path>
</g>
<g opacity="0.24">
<path d="M296.057 -422.113C296.057 -422.113 818.557 -258.689 691.896 -13.6851C622.523 120.472 470.354 -3.96361 264.026 92.4264C58.6964 188.388 -5.02657 338.139 -150.235 349.947" stroke="white" stroke-width="3" stroke-miterlimit="10" stroke-dasharray="0,0,382.381083984375,1210.8734326171875"><animate attributeType="XML" attributeName="stroke-dasharray" repeatCount="indefinite" dur="4.9880157246875685s" values="0,0,382.381083984375,1210.8734326171875; 
          0,1210.8734326171875,382.381083984375,0; 
          382.381083984375,1210.8734326171875,0,0" keyTimes="0; 0.76; 1"></animate></path>
</g>
</g>
</g>
<defs>
<clipPath id="clip0_230_1541">
<rect width="1200" height="693.571" fill="white" stroke-dasharray="0,0,908.9141015624999,2878.22798828125"><animate attributeType="XML" attributeName="stroke-dasharray" repeatCount="indefinite" dur="4.937385304445656s" values="0,0,908.9141015624999,2878.22798828125; 
          0,2878.22798828125,908.9141015624999,0; 
          908.9141015624999,2878.22798828125,0,0" keyTimes="0; 0.76; 1"></animate></rect>
</clipPath>
<clipPath id="clip1_230_1541">
<rect width="1710.4" height="1069" fill="white" transform="translate(-255 -188)" stroke-dasharray="0,0,1334.111953125,4224.6878515625"><animate attributeType="XML" attributeName="stroke-dasharray" repeatCount="indefinite" dur="4.935844090981001s" values="0,0,1334.111953125,4224.6878515625; 
          0,4224.6878515625,1334.111953125,0; 
          1334.111953125,4224.6878515625,0,0" keyTimes="0; 0.76; 1"></animate></rect>
</clipPath>
</defs>
<setting_name>pattern_04</setting_name><setting>{"type":"loader","speed":10,"random":0.95,"shift":1,"size":1,"rupture":15}</setting></svg>