<?xml version="1.0" standalone="no"?>
<svg id="pattern_01" width="1200" height="694" viewBox="0 0 1200 694" fill="none" xmlns="http://www.w3.org/2000/svg" style="max-width: 100%; max-height: 100%;">
<rect width="1200" height="693.571" fill="#221E1E" stroke-dasharray="0,0,1817.8282031249998,1969.3138867187502"><animate attributeType="XML" attributeName="stroke-dasharray" repeatCount="indefinite" dur="6.90318307069768s" values="0,0,1817.8282031249998,1969.3138867187502; 
          0,1969.3138867187502,1817.8282031249998,0; 
          1817.8282031249998,1969.3138867187502,0,0" keyTimes="0; 0.52; 1"></animate></rect>
<path d="M42.1191 51.6688H43.6844L43.4291 49.2414L42.1191 51.6688ZM43.0148 47.8309H44.4713L45.346 54H43.9481L43.8184 52.7319H41.5458L40.851 54H39.5033L43.0148 47.8309ZM48.5017 48.9023L48.1501 50.5597H49.6108C49.9009 50.5597 50.1256 50.5262 50.2846 50.4593C50.5664 50.3421 50.745 50.1105 50.8203 49.7645C50.8984 49.3906 50.8273 49.1395 50.6069 49.0112C50.4813 48.9386 50.279 48.9023 50 48.9023H48.5017ZM51.9629 48.421C52.0633 48.5773 52.1317 48.7503 52.168 48.94C52.207 49.1297 52.2014 49.346 52.1512 49.5887C52.0871 49.8817 51.9503 50.1705 51.7411 50.4551C51.5346 50.7369 51.2486 50.9364 50.8831 51.0536C51.1426 51.168 51.3086 51.3312 51.3811 51.5432C51.4565 51.7525 51.4481 52.0734 51.356 52.5059L51.2681 52.9202C51.2095 53.202 51.1802 53.3931 51.1802 53.4936C51.1802 53.6526 51.2333 53.7698 51.3393 53.8451L51.31 54H49.8912C49.88 53.8633 49.8744 53.7531 49.8744 53.6694C49.8772 53.4964 49.8968 53.3192 49.933 53.1378L50.046 52.5645C50.1242 52.171 50.1074 51.9088 49.9958 51.7776C49.887 51.6465 49.6429 51.5809 49.2634 51.5809H47.9325L47.4219 54H46.1621L47.4721 47.8309H50.498C50.9277 47.8393 51.2486 47.8923 51.4607 47.99C51.6727 48.0876 51.8401 48.2313 51.9629 48.421ZM58.1194 47.8309L57.885 48.9233H56.0393L54.9637 54H53.6663L54.7419 48.9233H52.8878L53.1222 47.8309H58.1194Z" fill="white" stroke-dasharray="0,0,41.580604248046875,45.04565460205078"><animate attributeType="XML" attributeName="stroke-dasharray" repeatCount="indefinite" dur="6.247926049025614s" values="0,0,41.580604248046875,45.04565460205078; 
          0,45.04565460205078,41.580604248046875,0; 
          41.580604248046875,45.04565460205078,0,0" keyTimes="0; 0.52; 1"></animate></path>
<rect x="62.8571" y="45" width="0.714286" height="12.1429" fill="white" stroke-dasharray="0,0,12.342897949218749,13.371472778320314"><animate attributeType="XML" attributeName="stroke-dasharray" repeatCount="indefinite" dur="5.943006021798659s" values="0,0,12.342897949218749,13.371472778320314; 
          0,13.371472778320314,12.342897949218749,0; 
          12.342897949218749,13.371472778320314,0,0" keyTimes="0; 0.52; 1"></animate></rect>
<path d="M69.9543 54V47.8286H72.2086C72.6086 47.8286 72.9371 47.8743 73.1943 47.9657C73.4571 48.0571 73.6629 48.1829 73.8114 48.3429C73.9657 48.5029 74.0714 48.6886 74.1286 48.9C74.1914 49.1057 74.2229 49.3229 74.2229 49.5514C74.2229 49.8943 74.1514 50.1771 74.0086 50.4C73.8714 50.6229 73.6914 50.8 73.4686 50.9314C73.2457 51.0571 72.9914 51.1457 72.7057 51.1971C72.4257 51.2486 72.1429 51.2743 71.8571 51.2743H70.5371V54H69.9543ZM71.8743 50.7771C72.1486 50.7771 72.3943 50.76 72.6114 50.7257C72.8286 50.6914 73.0114 50.6286 73.16 50.5371C73.3143 50.44 73.4314 50.3114 73.5114 50.1514C73.5971 49.9857 73.64 49.7714 73.64 49.5086C73.64 49.12 73.5114 48.8257 73.2543 48.6257C73.0029 48.4257 72.6 48.3257 72.0457 48.3257H70.5371V50.7771H71.8743ZM74.0181 54L76.4438 47.8286H77.1038L79.4695 54H78.8695L78.1581 52.0629H75.3467L74.6181 54H74.0181ZM75.5438 51.5657H77.9609L76.7524 48.3257L75.5438 51.5657ZM78.9569 47.8286H83.4483V48.3257H81.494V54H80.9112V48.3257H78.9569V47.8286ZM83.7197 47.8286H88.2112V48.3257H86.2569V54H85.674V48.3257H83.7197V47.8286ZM89.0397 54V47.8286H93.1454V48.3257H89.6226V50.5543H92.8026V51.0514H89.6226V53.5029H93.2311V54H89.0397ZM96.6711 50.7C96.8882 50.7 97.0882 50.6771 97.2711 50.6314C97.4597 50.5857 97.6225 50.5143 97.7597 50.4171C97.8968 50.3143 98.0054 50.1857 98.0854 50.0314C98.1654 49.8771 98.2054 49.6914 98.2054 49.4743C98.2054 49.2457 98.1625 49.0571 98.0768 48.9086C97.9968 48.76 97.8854 48.6429 97.7425 48.5571C97.6054 48.4714 97.4454 48.4114 97.2625 48.3771C97.0854 48.3429 96.8997 48.3257 96.7054 48.3257H94.854V50.7H96.6711ZM94.854 51.1971V54H94.2711V47.8286H96.6882C97.3682 47.8286 97.8882 47.9571 98.2482 48.2143C98.6082 48.4657 98.7882 48.8771 98.7882 49.4486C98.7882 49.8371 98.7082 50.1457 98.5482 50.3743C98.394 50.6029 98.1397 50.7971 97.7854 50.9571C97.9682 51.02 98.1111 51.1114 98.214 51.2314C98.3168 51.3514 98.394 51.4886 98.4454 51.6429C98.4968 51.7971 98.5282 51.96 98.5397 52.1314C98.5568 52.3029 98.5682 52.4686 98.574 52.6286C98.5797 52.8629 98.5882 53.0571 98.5997 53.2114C98.6168 53.3657 98.6339 53.4914 98.6511 53.5886C98.674 53.6857 98.6997 53.7629 98.7282 53.82C98.7568 53.8714 98.7911 53.9114 98.8311 53.94V54H98.1882C98.1254 53.8971 98.0797 53.7543 98.0511 53.5714C98.0282 53.3886 98.0082 53.1971 97.9911 52.9971C97.9797 52.7971 97.9682 52.6029 97.9568 52.4143C97.9511 52.2257 97.9368 52.0714 97.9139 51.9514C97.8797 51.7857 97.8225 51.6543 97.7425 51.5571C97.6682 51.4543 97.5768 51.3771 97.4682 51.3257C97.3597 51.2743 97.2368 51.24 97.0997 51.2229C96.9682 51.2057 96.8311 51.1971 96.6882 51.1971H94.854ZM100.58 48.6171H100.562V54H99.9796V47.8286H100.64L104.205 53.22H104.222V47.8286H104.805V54H104.128L100.58 48.6171Z" fill="white" stroke-dasharray="0,0,102.31627441406249,110.84263061523438"><animate attributeType="XML" attributeName="stroke-dasharray" repeatCount="indefinite" dur="6.828921445271934s" values="0,0,102.31627441406249,110.84263061523438; 
          0,110.84263061523438,102.31627441406249,0; 
          102.31627441406249,110.84263061523438,0,0" keyTimes="0; 0.52; 1"></animate></path>
<path d="M1054.28 48.3395H1055.18V54.2065H1058.55V55H1054.28V48.3395ZM1062.32 48.1581C1063.5 48.1581 1064.37 48.536 1064.93 49.2916C1065.38 49.8811 1065.6 50.6352 1065.6 51.5541C1065.6 52.5486 1065.34 53.3753 1064.84 54.0342C1064.25 54.8081 1063.4 55.195 1062.3 55.195C1061.28 55.195 1060.47 54.8564 1059.89 54.1793C1059.36 53.5264 1059.1 52.7012 1059.1 51.7038C1059.1 50.803 1059.33 50.0322 1059.77 49.3914C1060.35 48.5692 1061.2 48.1581 1062.32 48.1581ZM1062.41 54.3879C1063.21 54.3879 1063.78 54.1038 1064.14 53.5355C1064.49 52.9642 1064.67 52.3083 1064.67 51.5677C1064.67 50.7849 1064.47 50.1546 1064.05 49.677C1063.65 49.1995 1063.09 48.9607 1062.38 48.9607C1061.69 48.9607 1061.13 49.1979 1060.69 49.6725C1060.25 50.144 1060.04 50.8408 1060.04 51.7627C1060.04 52.5002 1060.22 53.1229 1060.59 53.6307C1060.97 54.1355 1061.58 54.3879 1062.41 54.3879ZM1069.55 48.1672C1070.18 48.1672 1070.72 48.2881 1071.18 48.5299C1071.84 48.8775 1072.24 49.4866 1072.39 50.3571H1071.5C1071.39 49.8705 1071.16 49.5168 1070.82 49.2962C1070.48 49.0725 1070.05 48.9607 1069.53 48.9607C1068.91 48.9607 1068.39 49.1919 1067.97 49.6544C1067.55 50.1168 1067.34 50.806 1067.34 51.7219C1067.34 52.5138 1067.52 53.1592 1067.86 53.6579C1068.21 54.1536 1068.78 54.4015 1069.56 54.4015C1070.16 54.4015 1070.66 54.2277 1071.05 53.8801C1071.45 53.5295 1071.65 52.9642 1071.66 52.1844H1069.58V51.4362H1072.5V55H1071.92L1071.7 54.1431C1071.4 54.4786 1071.13 54.7113 1070.89 54.8413C1070.5 55.065 1069.99 55.1768 1069.38 55.1768C1068.59 55.1768 1067.91 54.9214 1067.35 54.4106C1066.73 53.7698 1066.42 52.8902 1066.42 51.7718C1066.42 50.6564 1066.72 49.7692 1067.32 49.1103C1067.9 48.4816 1068.64 48.1672 1069.55 48.1672ZM1076.69 48.3395H1077.6V55H1076.69V48.3395ZM1079.07 48.3395H1080.14L1083.5 53.735V48.3395H1084.36V55H1083.35L1079.93 49.609V55H1079.07V48.3395Z" fill="white" stroke-dasharray="0,0,75.9687451171875,82.29947387695313"><animate attributeType="XML" attributeName="stroke-dasharray" repeatCount="indefinite" dur="6.965236914082948s" values="0,0,75.9687451171875,82.29947387695313; 
          0,82.29947387695313,75.9687451171875,0; 
          75.9687451171875,82.29947387695313,0,0" keyTimes="0; 0.52; 1"></animate></path>
<path d="M1115.58 52.8509C1115.6 53.2287 1115.69 53.5355 1115.85 53.7713C1116.15 54.2126 1116.68 54.4332 1117.43 54.4332C1117.77 54.4332 1118.08 54.3849 1118.36 54.2882C1118.9 54.1007 1119.16 53.7652 1119.16 53.2816C1119.16 52.9189 1119.05 52.6604 1118.82 52.5063C1118.59 52.3551 1118.23 52.2237 1117.75 52.1118L1116.84 51.9078C1116.25 51.7748 1115.84 51.6282 1115.59 51.468C1115.17 51.1899 1114.96 50.7743 1114.96 50.2211C1114.96 49.6226 1115.16 49.1314 1115.58 48.7476C1115.99 48.3637 1116.58 48.1717 1117.34 48.1717C1118.04 48.1717 1118.63 48.341 1119.11 48.6795C1119.6 49.0151 1119.85 49.5531 1119.85 50.2937H1119C1118.96 49.937 1118.86 49.6634 1118.71 49.473C1118.44 49.1254 1117.97 48.9516 1117.31 48.9516C1116.78 48.9516 1116.4 49.0634 1116.16 49.2871C1115.93 49.5108 1115.81 49.7707 1115.81 50.067C1115.81 50.3934 1115.95 50.6322 1116.22 50.7833C1116.4 50.8801 1116.8 51.001 1117.43 51.1461L1118.37 51.3592C1118.82 51.4619 1119.16 51.6025 1119.41 51.7808C1119.83 52.0922 1120.04 52.5441 1120.04 53.1365C1120.04 53.874 1119.77 54.4015 1119.24 54.7189C1118.7 55.0363 1118.08 55.195 1117.37 55.195C1116.54 55.195 1115.89 54.9834 1115.42 54.5602C1114.96 54.14 1114.73 53.5703 1114.73 52.8509H1115.58ZM1121.39 48.3395H1122.3V55H1121.39V48.3395ZM1126.65 48.1672C1127.28 48.1672 1127.82 48.2881 1128.27 48.5299C1128.94 48.8775 1129.34 49.4866 1129.49 50.3571H1128.6C1128.49 49.8705 1128.26 49.5168 1127.92 49.2962C1127.58 49.0725 1127.15 48.9607 1126.63 48.9607C1126.01 48.9607 1125.49 49.1919 1125.07 49.6544C1124.65 50.1168 1124.44 50.806 1124.44 51.7219C1124.44 52.5138 1124.61 53.1592 1124.96 53.6579C1125.31 54.1536 1125.87 54.4015 1126.66 54.4015C1127.26 54.4015 1127.76 54.2277 1128.15 53.8801C1128.55 53.5295 1128.75 52.9642 1128.76 52.1844H1126.67V51.4362H1129.6V55H1129.02L1128.8 54.1431C1128.49 54.4786 1128.22 54.7113 1127.99 54.8413C1127.59 55.065 1127.09 55.1768 1126.48 55.1768C1125.69 55.1768 1125.01 54.9214 1124.44 54.4106C1123.82 53.7698 1123.51 52.8902 1123.51 51.7718C1123.51 50.6564 1123.81 49.7692 1124.42 49.1103C1124.99 48.4816 1125.74 48.1672 1126.65 48.1672ZM1131 48.3395H1132.06L1135.43 53.735V48.3395H1136.28V55H1135.27L1131.86 49.609V55H1131V48.3395ZM1140.5 48.3395H1141.41V55H1140.5V48.3395ZM1142.88 48.3395H1143.94L1147.31 53.735V48.3395H1148.16V55H1147.15L1143.74 49.609V55H1142.88V48.3395Z" fill="white" stroke-dasharray="0,0,92.311611328125,100.00424560546875"><animate attributeType="XML" attributeName="stroke-dasharray" repeatCount="indefinite" dur="7.088014708116582s" values="0,0,92.311611328125,100.00424560546875; 
          0,100.00424560546875,92.311611328125,0; 
          92.311611328125,100.00424560546875,0,0" keyTimes="0; 0.52; 1"></animate></path>
<rect x="1103.21" y="39.6428" width="57.1429" height="23.5714" rx="11.7857" stroke="white" stroke-width="0.714286" stroke-dasharray="0,0,67.54446533203125,73.17317077636719"><animate attributeType="XML" attributeName="stroke-dasharray" repeatCount="indefinite" dur="6.69269311816781s" values="0,0,67.54446533203125,73.17317077636719; 
          0,73.17317077636719,67.54446533203125,0; 
          67.54446533203125,73.17317077636719,0,0" keyTimes="0; 0.52; 1"></animate></rect>
<path d="M51.3989 639.054H52.6911L54.6045 644.685L56.5043 639.054H57.7829V645.714H56.9259V641.783C56.9259 641.647 56.9289 641.422 56.935 641.108C56.941 640.793 56.9441 640.456 56.9441 640.097L55.0443 645.714H54.1511L52.2377 640.097V640.301C52.2377 640.464 52.2407 640.713 52.2468 641.049C52.2559 641.381 52.2604 641.626 52.2604 641.783V645.714H51.3989V639.054ZM59.2428 639.054H64.0988V639.87H60.1224V641.892H63.7995V642.663H60.1224V644.921H64.1668V645.714H59.2428V639.054ZM65.3502 639.054H66.4157L69.7799 644.449V639.054H70.6369V645.714H69.6258L66.2116 640.323V645.714H65.3502V639.054ZM73.0399 639.054V643.171C73.0399 643.654 73.1306 644.056 73.3119 644.377C73.581 644.86 74.0344 645.102 74.6722 645.102C75.4369 645.102 75.9568 644.841 76.2319 644.318C76.38 644.034 76.454 643.651 76.454 643.171V639.054H77.3699V642.794C77.3699 643.614 77.2596 644.244 77.0389 644.685C76.6339 645.489 75.8691 645.891 74.7447 645.891C73.6203 645.891 72.857 645.489 72.455 644.685C72.2344 644.244 72.124 643.614 72.124 642.794V639.054H73.0399ZM81.5594 639.054H82.4707V645.714H81.5594V639.054ZM88.7866 639.054V639.847H86.5423V645.714H85.6264V639.847H83.382V639.054H88.7866ZM89.7025 639.054H94.5585V639.87H90.5821V641.892H94.2592V642.663H90.5821V644.921H94.6265V645.714H89.7025V639.054ZM95.7872 639.054H97.0794L98.9927 644.685L100.893 639.054H102.171V645.714H101.314V641.783C101.314 641.647 101.317 641.422 101.323 641.108C101.329 640.793 101.332 640.456 101.332 640.097L99.4325 645.714H98.5393L96.626 640.097V640.301C96.626 640.464 96.629 640.713 96.635 641.049C96.6441 641.381 96.6486 641.626 96.6486 641.783V645.714H95.7872V639.054Z" fill="white" stroke-dasharray="0,0,142.38840820312498,154.25410888671877"><animate attributeType="XML" attributeName="stroke-dasharray" repeatCount="indefinite" dur="6.341246604898364s" values="0,0,142.38840820312498,154.25410888671877; 
          0,154.25410888671877,142.38840820312498,0; 
          142.38840820312498,154.25410888671877,0,0" keyTimes="0; 0.52; 1"></animate></path>
<rect x="39.6429" y="630.357" width="75.1429" height="23.7143" rx="11.8571" stroke="white" stroke-width="0.714286" stroke-dasharray="0,0,84.90136962890625,91.97648376464844"><animate attributeType="XML" attributeName="stroke-dasharray" repeatCount="indefinite" dur="6.089537274484289s" values="0,0,84.90136962890625,91.97648376464844; 
          0,91.97648376464844,84.90136962890625,0; 
          84.90136962890625,91.97648376464844,0,0" keyTimes="0; 0.52; 1"></animate></rect>
<path d="M130.936 639.054H135.556V639.87H131.839V641.892H135.108V642.686H131.839V645.714H130.936V639.054ZM136.731 639.054H137.642V645.714H136.731V639.054ZM142.208 642.105C142.631 642.105 142.965 642.021 143.21 641.851C143.458 641.682 143.582 641.377 143.582 640.935C143.582 640.461 143.409 640.137 143.065 639.965C142.88 639.875 142.634 639.829 142.326 639.829H140.122V642.105H142.208ZM139.22 639.054H142.303C142.811 639.054 143.23 639.128 143.559 639.276C144.185 639.56 144.498 640.085 144.498 640.849C144.498 641.248 144.414 641.575 144.248 641.829C144.085 642.083 143.855 642.287 143.559 642.441C143.819 642.547 144.014 642.686 144.144 642.858C144.277 643.03 144.351 643.31 144.366 643.697L144.398 644.59C144.407 644.844 144.428 645.033 144.461 645.157C144.516 645.368 144.612 645.504 144.752 645.565V645.714H143.645C143.615 645.657 143.591 645.583 143.573 645.492C143.555 645.402 143.539 645.226 143.527 644.966L143.473 643.855C143.452 643.42 143.29 643.128 142.988 642.98C142.815 642.899 142.545 642.858 142.176 642.858H140.122V645.714H139.22V639.054ZM146.411 643.565C146.432 643.943 146.521 644.25 146.678 644.486C146.978 644.927 147.505 645.148 148.261 645.148C148.599 645.148 148.908 645.099 149.186 645.003C149.724 644.815 149.993 644.48 149.993 643.996C149.993 643.633 149.88 643.375 149.653 643.221C149.423 643.069 149.063 642.938 148.574 642.826L147.671 642.622C147.082 642.489 146.665 642.343 146.42 642.182C145.997 641.904 145.785 641.489 145.785 640.935C145.785 640.337 145.992 639.846 146.406 639.462C146.821 639.078 147.407 638.886 148.166 638.886C148.864 638.886 149.456 639.055 149.943 639.394C150.433 639.729 150.678 640.267 150.678 641.008H149.83C149.784 640.651 149.688 640.378 149.539 640.187C149.264 639.84 148.797 639.666 148.138 639.666C147.606 639.666 147.224 639.778 146.991 640.001C146.759 640.225 146.642 640.485 146.642 640.781C146.642 641.108 146.778 641.347 147.05 641.498C147.229 641.594 147.632 641.715 148.261 641.86L149.195 642.074C149.645 642.176 149.993 642.317 150.238 642.495C150.661 642.807 150.872 643.258 150.872 643.851C150.872 644.588 150.603 645.116 150.065 645.433C149.53 645.751 148.908 645.909 148.197 645.909C147.369 645.909 146.721 645.698 146.252 645.275C145.784 644.854 145.554 644.285 145.563 643.565H146.411ZM156.862 639.054V639.847H154.618V645.714H153.702V639.847H151.457V639.054H156.862ZM160.199 639.054H163.196C163.788 639.054 164.266 639.222 164.629 639.557C164.991 639.89 165.173 640.358 165.173 640.963C165.173 641.483 165.011 641.936 164.688 642.323C164.364 642.707 163.867 642.899 163.196 642.899H161.101V645.714H160.199V639.054ZM164.262 640.967C164.262 640.478 164.08 640.145 163.717 639.97C163.518 639.876 163.244 639.829 162.897 639.829H161.101V642.137H162.897C163.302 642.137 163.63 642.051 163.881 641.879C164.135 641.706 164.262 641.402 164.262 640.967ZM169.181 638.872C170.357 638.872 171.227 639.25 171.793 640.006C172.234 640.595 172.455 641.35 172.455 642.268C172.455 643.263 172.202 644.09 171.697 644.749C171.105 645.522 170.26 645.909 169.163 645.909C168.138 645.909 167.333 645.571 166.746 644.894C166.223 644.241 165.962 643.416 165.962 642.418C165.962 641.517 166.185 640.747 166.633 640.106C167.207 639.284 168.056 638.872 169.181 638.872ZM169.272 645.102C170.067 645.102 170.641 644.818 170.995 644.25C171.351 643.679 171.53 643.023 171.53 642.282C171.53 641.499 171.324 640.869 170.913 640.391C170.505 639.914 169.946 639.675 169.235 639.675C168.546 639.675 167.984 639.912 167.549 640.387C167.113 640.858 166.896 641.555 166.896 642.477C166.896 643.215 167.082 643.837 167.453 644.345C167.828 644.85 168.434 645.102 169.272 645.102ZM173.738 639.054H174.649V645.714H173.738V639.054ZM176.118 639.054H177.184L180.548 644.449V639.054H181.405V645.714H180.394L176.979 640.323V645.714H176.118V639.054ZM187.675 639.054V639.847H185.431V645.714H184.515V639.847H182.271V639.054H187.675Z" fill="white" stroke-dasharray="0,0,141.93046875,153.7580078125"><animate attributeType="XML" attributeName="stroke-dasharray" repeatCount="indefinite" dur="6.0888238925889056s" values="0,0,141.93046875,153.7580078125; 
          0,153.7580078125,141.93046875,0; 
          141.93046875,153.7580078125,0,0" keyTimes="0; 0.52; 1"></animate></path>
<path d="M208.697 639.054V639.847H206.453V645.714H205.537V639.847H203.292V639.054H208.697ZM209.731 639.054H210.642V645.714H209.731V639.054ZM216.958 639.054V639.847H214.714V645.714H213.798V639.847H211.553V639.054H216.958ZM217.788 639.054H218.69V644.921H222.063V645.714H217.788V639.054ZM223.043 639.054H227.899V639.87H223.922V641.892H227.599V642.663H223.922V644.921H227.967V645.714H223.043V639.054Z" fill="white" stroke-dasharray="0,0,59.398916015625,64.34882568359376"><animate attributeType="XML" attributeName="stroke-dasharray" repeatCount="indefinite" dur="6.312555133529139s" values="0,0,59.398916015625,64.34882568359376; 
          0,64.34882568359376,59.398916015625,0; 
          59.398916015625,64.34882568359376,0,0" keyTimes="0; 0.52; 1"></animate></path>
<path d="M244.873 639.054H245.784V641.806H249.248V639.054H250.16V645.714H249.248V642.599H245.784V645.714H244.873V639.054ZM252.54 639.054V643.171C252.54 643.654 252.631 644.056 252.812 644.377C253.081 644.86 253.534 645.102 254.172 645.102C254.937 645.102 255.457 644.841 255.732 644.318C255.88 644.034 255.954 643.651 255.954 643.171V639.054H256.87V642.794C256.87 643.614 256.76 644.244 256.539 644.685C256.134 645.489 255.369 645.891 254.245 645.891C253.12 645.891 252.357 645.489 251.955 644.685C251.734 644.244 251.624 643.614 251.624 642.794V639.054H252.54ZM258.475 639.054H259.386V645.714H258.475V639.054ZM261.427 645.714H260.338L262.723 642.3L260.488 639.054H261.617L263.317 641.602L265.004 639.054H266.079L263.843 642.3L266.187 645.714H265.067L263.272 642.976L261.427 645.714Z" fill="white" stroke-dasharray="0,0,56.096136474609374,60.77081451416016"><animate attributeType="XML" attributeName="stroke-dasharray" repeatCount="indefinite" dur="6.4258276296395795s" values="0,0,56.096136474609374,60.77081451416016; 
          0,60.77081451416016,56.096136474609374,0; 
          56.096136474609374,60.77081451416016,0,0" keyTimes="0; 0.52; 1"></animate></path>
<path d="M283.44 643.565C283.461 643.943 283.55 644.25 283.707 644.486C284.006 644.927 284.534 645.148 285.289 645.148C285.628 645.148 285.936 645.099 286.214 645.003C286.752 644.815 287.021 644.48 287.021 643.996C287.021 643.633 286.908 643.375 286.681 643.221C286.452 643.069 286.092 642.938 285.602 642.826L284.7 642.622C284.111 642.489 283.693 642.343 283.449 642.182C283.025 641.904 282.814 641.489 282.814 640.935C282.814 640.337 283.021 639.846 283.435 639.462C283.849 639.078 284.436 638.886 285.194 638.886C285.893 638.886 286.485 639.055 286.972 639.394C287.461 639.729 287.706 640.267 287.706 641.008H286.858C286.813 640.651 286.716 640.378 286.568 640.187C286.293 639.84 285.826 639.666 285.167 639.666C284.635 639.666 284.253 639.778 284.02 640.001C283.787 640.225 283.671 640.485 283.671 640.781C283.671 641.108 283.807 641.347 284.079 641.498C284.257 641.594 284.661 641.715 285.289 641.86L286.223 642.074C286.674 642.176 287.021 642.317 287.266 642.495C287.689 642.807 287.901 643.258 287.901 643.851C287.901 644.588 287.632 645.116 287.094 645.433C286.559 645.751 285.936 645.909 285.226 645.909C284.398 645.909 283.749 645.698 283.281 645.275C282.812 644.854 282.583 644.285 282.592 643.565H283.44ZM293.891 639.054V639.847H291.646V645.714H290.73V639.847H288.486V639.054H293.891ZM297.45 642.985L296.439 640.042L295.364 642.985H297.45ZM295.967 639.054H296.987L299.404 645.714H298.416L297.74 643.719H295.106L294.385 645.714H293.46L295.967 639.054ZM304.382 639.054V639.847H302.138V645.714H301.222V639.847H298.978V639.054H304.382ZM305.298 639.054H310.154V639.87H306.178V641.892H309.855V642.663H306.178V644.921H310.222V645.714H305.298V639.054ZM311.383 639.054H312.675L314.588 644.685L316.488 639.054H317.767V645.714H316.91V641.783C316.91 641.647 316.913 641.422 316.919 641.108C316.925 640.793 316.928 640.456 316.928 640.097L315.028 645.714H314.135L312.222 640.097V640.301C312.222 640.464 312.225 640.713 312.231 641.049C312.24 641.381 312.244 641.626 312.244 641.783V645.714H311.383V639.054ZM319.227 639.054H324.083V639.87H320.106V641.892H323.783V642.663H320.106V644.921H324.151V645.714H319.227V639.054ZM325.334 639.054H326.4L329.764 644.449V639.054H330.621V645.714H329.61L326.196 640.323V645.714H325.334V639.054ZM336.891 639.054V639.847H334.647V645.714H333.731V639.847H331.487V639.054H336.891Z" fill="white" stroke-dasharray="0,0,150.5974951171875,163.14728637695313"><animate attributeType="XML" attributeName="stroke-dasharray" repeatCount="indefinite" dur="6.6939350079390705s" values="0,0,150.5974951171875,163.14728637695313; 
          0,163.14728637695313,150.5974951171875,0; 
          150.5974951171875,163.14728637695313,0,0" keyTimes="0; 0.52; 1"></animate></path>
<g opacity="0.95">
<path d="M848.884 346.883C848.884 349.971 847.324 353.099 844.106 356.244C840.887 359.391 836.085 362.474 829.811 365.441C817.267 371.372 799.053 376.74 776.465 381.258C731.306 390.289 668.875 395.883 599.884 395.883C530.894 395.883 468.463 390.289 423.304 381.258C400.716 376.74 382.501 371.372 369.958 365.441C363.684 362.474 358.882 359.391 355.662 356.244C352.445 353.099 350.884 349.971 350.884 346.883C350.884 343.795 352.445 340.666 355.662 337.521C358.882 334.375 363.684 331.291 369.958 328.325C382.501 322.393 400.716 317.026 423.304 312.508C468.463 303.476 530.894 297.883 599.884 297.883C668.875 297.883 731.306 303.476 776.465 312.508C799.053 317.026 817.267 322.393 829.811 328.325C836.085 331.291 840.887 334.375 844.106 337.521C847.324 340.666 848.884 343.795 848.884 346.883Z" stroke="white" stroke-width="2" stroke-dasharray="0,0,501.2801953125,543.0535449218751"><animate attributeType="XML" attributeName="stroke-dasharray" repeatCount="indefinite" dur="6.269626225973515s" values="0,0,501.2801953125,543.0535449218751; 
          0,543.0535449218751,501.2801953125,0; 
          501.2801953125,543.0535449218751,0,0" keyTimes="0; 0.52; 1"></animate></path>
<path d="M848.884 346.883C848.884 349.971 847.324 353.099 844.106 356.244C840.887 359.391 836.085 362.474 829.811 365.441C817.267 371.372 799.053 376.74 776.465 381.258C731.306 390.289 668.875 395.883 599.884 395.883C530.894 395.883 468.463 390.289 423.304 381.258C400.716 376.74 382.501 371.372 369.958 365.441C363.684 362.474 358.882 359.391 355.662 356.244C352.445 353.099 350.884 349.971 350.884 346.883C350.884 343.795 352.445 340.666 355.662 337.521C358.882 334.375 363.684 331.291 369.958 328.325C382.501 322.393 400.716 317.026 423.304 312.508C468.463 303.476 530.894 297.883 599.884 297.883C668.875 297.883 731.306 303.476 776.465 312.508C799.053 317.026 817.267 322.393 829.811 328.325C836.085 331.291 840.887 334.375 844.106 337.521C847.324 340.666 848.884 343.795 848.884 346.883Z" stroke="url(#paint0_linear_227_1539)" stroke-width="2" stroke-dasharray="0,0,501.2801953125,543.0535449218751"><animate attributeType="XML" attributeName="stroke-dasharray" repeatCount="indefinite" dur="5.765085010840774s" values="0,0,501.2801953125,543.0535449218751; 
          0,543.0535449218751,501.2801953125,0; 
          501.2801953125,543.0535449218751,0,0" keyTimes="0; 0.52; 1"></animate></path>
</g>
<path d="M847.937 368.585C847.668 371.661 845.841 374.642 842.361 377.494C838.88 380.348 833.828 383.001 827.319 385.41C814.306 390.225 795.693 393.985 772.797 396.517C727.023 401.578 664.342 401.709 595.614 395.696C526.886 389.683 465.18 378.67 420.98 365.737C398.872 359.268 381.195 352.333 369.216 345.331C363.224 341.829 358.709 338.339 355.776 334.923C352.845 331.51 351.563 328.257 351.832 325.181C352.101 322.105 353.928 319.124 357.408 316.272C360.89 313.417 365.942 310.765 372.451 308.356C385.464 303.54 404.077 299.781 426.972 297.249C472.747 292.187 535.428 292.056 604.155 298.069C672.883 304.082 734.589 315.096 778.789 328.029C800.897 334.498 818.575 341.433 830.554 348.435C836.545 351.937 841.06 355.427 843.993 358.842C846.925 362.256 848.206 365.508 847.937 368.585Z" stroke="white" stroke-width="2" stroke-dasharray="0,0,501.28013671875,543.0534814453125"><animate attributeType="XML" attributeName="stroke-dasharray" repeatCount="indefinite" dur="6.999689263939611s" values="0,0,501.28013671875,543.0534814453125; 
          0,543.0534814453125,501.28013671875,0; 
          501.28013671875,543.0534814453125,0,0" keyTimes="0; 0.52; 1"></animate></path>
<path d="M847.937 368.585C847.668 371.661 845.841 374.642 842.361 377.494C838.88 380.348 833.828 383.001 827.319 385.41C814.306 390.225 795.693 393.985 772.797 396.517C727.023 401.578 664.342 401.709 595.614 395.696C526.886 389.683 465.18 378.67 420.98 365.737C398.872 359.268 381.195 352.333 369.216 345.331C363.224 341.829 358.709 338.339 355.776 334.923C352.845 331.51 351.563 328.257 351.832 325.181C352.101 322.105 353.928 319.124 357.408 316.272C360.89 313.417 365.942 310.765 372.451 308.356C385.464 303.54 404.077 299.781 426.972 297.249C472.747 292.187 535.428 292.056 604.155 298.069C672.883 304.082 734.589 315.096 778.789 328.029C800.897 334.498 818.575 341.433 830.554 348.435C836.545 351.937 841.06 355.427 843.993 358.842C846.925 362.256 848.206 365.508 847.937 368.585Z" stroke="url(#paint1_linear_227_1539)" stroke-width="2" stroke-dasharray="0,0,501.28013671875,543.0534814453125"><animate attributeType="XML" attributeName="stroke-dasharray" repeatCount="indefinite" dur="6.787274596296081s" values="0,0,501.28013671875,543.0534814453125; 
          0,543.0534814453125,501.28013671875,0; 
          501.28013671875,543.0534814453125,0,0" keyTimes="0; 0.52; 1"></animate></path>
<g opacity="0.9">
<path d="M847.937 325.181C848.206 328.257 846.924 331.51 843.993 334.923C841.06 338.339 836.545 341.828 830.553 345.331C818.574 352.333 800.897 359.268 778.789 365.737C734.589 378.67 672.883 389.683 604.155 395.696C535.427 401.709 472.746 401.578 426.972 396.517C404.076 393.985 385.463 390.225 372.45 385.41C365.941 383.001 360.889 380.348 357.408 377.494C353.928 374.641 352.101 371.661 351.832 368.584C351.563 365.508 352.844 362.255 355.776 358.842C358.709 355.427 363.224 351.937 369.216 348.434C381.194 341.433 398.872 334.498 420.98 328.029C465.18 315.095 526.886 304.082 595.614 298.069C664.341 292.056 727.023 292.187 772.797 297.249C795.693 299.78 814.306 303.54 827.318 308.356C833.827 310.764 838.88 313.417 842.361 316.271C845.841 319.124 847.668 322.104 847.937 325.181Z" stroke="white" stroke-width="2" stroke-dasharray="0,0,501.28037109375,543.0537353515625"><animate attributeType="XML" attributeName="stroke-dasharray" repeatCount="indefinite" dur="6.614418290104318s" values="0,0,501.28037109375,543.0537353515625; 
          0,543.0537353515625,501.28037109375,0; 
          501.28037109375,543.0537353515625,0,0" keyTimes="0; 0.52; 1"></animate></path>
<path d="M847.937 325.181C848.206 328.257 846.924 331.51 843.993 334.923C841.06 338.339 836.545 341.828 830.553 345.331C818.574 352.333 800.897 359.268 778.789 365.737C734.589 378.67 672.883 389.683 604.155 395.696C535.427 401.709 472.746 401.578 426.972 396.517C404.076 393.985 385.463 390.225 372.45 385.41C365.941 383.001 360.889 380.348 357.408 377.494C353.928 374.641 352.101 371.661 351.832 368.584C351.563 365.508 352.844 362.255 355.776 358.842C358.709 355.427 363.224 351.937 369.216 348.434C381.194 341.433 398.872 334.498 420.98 328.029C465.18 315.095 526.886 304.082 595.614 298.069C664.341 292.056 727.023 292.187 772.797 297.249C795.693 299.78 814.306 303.54 827.318 308.356C833.827 310.764 838.88 313.417 842.361 316.271C845.841 319.124 847.668 322.104 847.937 325.181Z" stroke="url(#paint2_linear_227_1539)" stroke-width="2" stroke-dasharray="0,0,501.28037109375,543.0537353515625"><animate attributeType="XML" attributeName="stroke-dasharray" repeatCount="indefinite" dur="5.753390005420576s" values="0,0,501.28037109375,543.0537353515625; 
          0,543.0537353515625,501.28037109375,0; 
          501.28037109375,543.0537353515625,0,0" keyTimes="0; 0.52; 1"></animate></path>
</g>
<g opacity="0.85">
<path d="M845.101 303.645C845.638 306.686 844.644 310.038 842.022 313.694C839.397 317.352 835.204 321.222 829.54 325.233C818.217 333.252 801.212 341.701 779.751 350.073C736.847 366.809 676.335 383.159 608.393 395.139C540.451 407.119 477.997 412.451 431.956 411.398C408.926 410.872 390.057 408.749 376.674 405.086C369.98 403.253 364.715 401.051 360.998 398.511C357.283 395.973 355.203 393.163 354.667 390.121C354.131 387.08 355.124 383.728 357.747 380.072C360.371 376.414 364.565 372.544 370.229 368.533C381.551 360.514 398.557 352.065 420.017 343.693C462.922 326.957 523.433 310.607 591.376 298.627C659.318 286.647 721.772 281.315 767.813 282.368C790.842 282.894 809.712 285.018 823.095 288.68C829.789 290.513 835.053 292.715 838.77 295.255C842.485 297.793 844.565 300.603 845.101 303.645Z" stroke="white" stroke-width="2" stroke-dasharray="0,0,501.28048828125,543.0538623046875"><animate attributeType="XML" attributeName="stroke-dasharray" repeatCount="indefinite" dur="7.067126091657124s" values="0,0,501.28048828125,543.0538623046875; 
          0,543.0538623046875,501.28048828125,0; 
          501.28048828125,543.0538623046875,0,0" keyTimes="0; 0.52; 1"></animate></path>
<path d="M845.101 303.645C845.638 306.686 844.644 310.038 842.022 313.694C839.397 317.352 835.204 321.222 829.54 325.233C818.217 333.252 801.212 341.701 779.751 350.073C736.847 366.809 676.335 383.159 608.393 395.139C540.451 407.119 477.997 412.451 431.956 411.398C408.926 410.872 390.057 408.749 376.674 405.086C369.98 403.253 364.715 401.051 360.998 398.511C357.283 395.973 355.203 393.163 354.667 390.121C354.131 387.08 355.124 383.728 357.747 380.072C360.371 376.414 364.565 372.544 370.229 368.533C381.551 360.514 398.557 352.065 420.017 343.693C462.922 326.957 523.433 310.607 591.376 298.627C659.318 286.647 721.772 281.315 767.813 282.368C790.842 282.894 809.712 285.018 823.095 288.68C829.789 290.513 835.053 292.715 838.77 295.255C842.485 297.793 844.565 300.603 845.101 303.645Z" stroke="url(#paint3_linear_227_1539)" stroke-width="2" stroke-dasharray="0,0,501.28048828125,543.0538623046875"><animate attributeType="XML" attributeName="stroke-dasharray" repeatCount="indefinite" dur="6.848420286761322s" values="0,0,501.28048828125,543.0538623046875; 
          0,543.0538623046875,501.28048828125,0; 
          501.28048828125,543.0538623046875,0,0" keyTimes="0; 0.52; 1"></animate></path>
</g>
<g opacity="0.8">
<path d="M840.4 282.437C841.199 285.42 840.502 288.846 838.208 292.716C835.912 296.589 832.072 300.81 826.779 305.3C816.198 314.275 799.994 324.174 779.345 334.384C738.062 354.796 679.206 376.357 612.566 394.213C545.927 412.069 484.175 422.825 438.217 425.789C415.23 427.271 396.247 426.801 382.596 424.318C375.768 423.076 370.331 421.341 366.407 419.135C362.485 416.93 360.168 414.312 359.369 411.329C358.57 408.346 359.267 404.92 361.561 401.05C363.857 397.177 367.697 392.956 372.989 388.466C383.57 379.491 399.775 369.592 420.424 359.382C461.707 338.97 520.563 317.409 587.202 299.553C653.842 281.697 715.593 270.941 761.551 267.977C784.539 266.495 803.522 266.965 817.173 269.448C824.001 270.69 829.437 272.425 833.362 274.631C837.284 276.836 839.601 279.454 840.4 282.437Z" stroke="white" stroke-width="2" stroke-dasharray="0,0,501.2801953125,543.0535449218751"><animate attributeType="XML" attributeName="stroke-dasharray" repeatCount="indefinite" dur="6.815106866137664s" values="0,0,501.2801953125,543.0535449218751; 
          0,543.0535449218751,501.2801953125,0; 
          501.2801953125,543.0535449218751,0,0" keyTimes="0; 0.52; 1"></animate></path>
<path d="M840.4 282.437C841.199 285.42 840.502 288.846 838.208 292.716C835.912 296.589 832.072 300.81 826.779 305.3C816.198 314.275 799.994 324.174 779.345 334.384C738.062 354.796 679.206 376.357 612.566 394.213C545.927 412.069 484.175 422.825 438.217 425.789C415.23 427.271 396.247 426.801 382.596 424.318C375.768 423.076 370.331 421.341 366.407 419.135C362.485 416.93 360.168 414.312 359.369 411.329C358.57 408.346 359.267 404.92 361.561 401.05C363.857 397.177 367.697 392.956 372.989 388.466C383.57 379.491 399.775 369.592 420.424 359.382C461.707 338.97 520.563 317.409 587.202 299.553C653.842 281.697 715.593 270.941 761.551 267.977C784.539 266.495 803.522 266.965 817.173 269.448C824.001 270.69 829.437 272.425 833.362 274.631C837.284 276.836 839.601 279.454 840.4 282.437Z" stroke="url(#paint4_linear_227_1539)" stroke-width="2" stroke-dasharray="0,0,501.2801953125,543.0535449218751"><animate attributeType="XML" attributeName="stroke-dasharray" repeatCount="indefinite" dur="6.875910395966859s" values="0,0,501.2801953125,543.0535449218751; 
          0,543.0535449218751,501.2801953125,0; 
          501.2801953125,543.0535449218751,0,0" keyTimes="0; 0.52; 1"></animate></path>
</g>
<g opacity="0.75">
<path d="M833.869 261.721C834.925 264.623 834.529 268.096 832.581 272.152C830.632 276.21 827.174 280.749 822.293 285.683C812.534 295.547 797.254 306.821 777.574 318.791C738.227 342.724 681.474 369.333 616.644 392.929C551.815 416.525 491.235 432.621 445.711 439.579C422.94 443.06 403.988 444.246 390.173 442.962C383.262 442.32 377.695 441.065 373.594 439.209C369.494 437.355 366.958 434.949 365.902 432.047C364.846 429.145 365.242 425.671 367.19 421.615C369.139 417.557 372.597 413.018 377.478 408.084C387.236 398.22 402.517 386.947 422.197 374.976C461.544 351.044 518.297 324.435 583.126 300.839C647.956 277.243 708.535 261.146 754.06 254.188C776.831 250.707 795.783 249.522 809.598 250.805C816.509 251.447 822.075 252.702 826.177 254.558C830.276 256.413 832.813 258.819 833.869 261.721Z" stroke="white" stroke-width="2" stroke-dasharray="0,0,501.28037109375,543.0537353515625"><animate attributeType="XML" attributeName="stroke-dasharray" repeatCount="indefinite" dur="6.823249004135409s" values="0,0,501.28037109375,543.0537353515625; 
          0,543.0537353515625,501.28037109375,0; 
          501.28037109375,543.0537353515625,0,0" keyTimes="0; 0.52; 1"></animate></path>
<path d="M833.869 261.721C834.925 264.623 834.529 268.096 832.581 272.152C830.632 276.21 827.174 280.749 822.293 285.683C812.534 295.547 797.254 306.821 777.574 318.791C738.227 342.724 681.474 369.333 616.644 392.929C551.815 416.525 491.235 432.621 445.711 439.579C422.94 443.06 403.988 444.246 390.173 442.962C383.262 442.32 377.695 441.065 373.594 439.209C369.494 437.355 366.958 434.949 365.902 432.047C364.846 429.145 365.242 425.671 367.19 421.615C369.139 417.557 372.597 413.018 377.478 408.084C387.236 398.22 402.517 386.947 422.197 374.976C461.544 351.044 518.297 324.435 583.126 300.839C647.956 277.243 708.535 261.146 754.06 254.188C776.831 250.707 795.783 249.522 809.598 250.805C816.509 251.447 822.075 252.702 826.177 254.558C830.276 256.413 832.813 258.819 833.869 261.721Z" stroke="url(#paint5_linear_227_1539)" stroke-width="2" stroke-dasharray="0,0,501.28037109375,543.0537353515625"><animate attributeType="XML" attributeName="stroke-dasharray" repeatCount="indefinite" dur="6.078628019465098s" values="0,0,501.28037109375,543.0537353515625; 
          0,543.0537353515625,501.28037109375,0; 
          501.28037109375,543.0537353515625,0,0" keyTimes="0; 0.52; 1"></animate></path>
</g>
<g opacity="0.7">
<path d="M825.556 241.653C826.861 244.452 826.769 247.947 825.182 252.157C823.594 256.37 820.545 261.193 816.113 266.534C807.251 277.21 793.012 289.773 774.449 303.413C737.338 330.684 683.12 362.138 620.594 391.295C558.067 420.451 499.122 441.766 454.377 452.666C431.996 458.117 413.219 460.95 399.345 460.876C392.404 460.839 386.749 460.074 382.502 458.583C378.256 457.092 375.52 454.916 374.215 452.117C372.91 449.319 373.002 445.824 374.589 441.614C376.177 437.401 379.226 432.577 383.658 427.237C392.52 416.56 406.759 403.998 425.322 390.357C462.433 363.087 516.651 331.633 579.177 302.476C641.704 273.32 700.649 252.005 745.394 241.105C767.775 235.653 786.552 232.82 800.426 232.895C807.367 232.932 813.022 233.697 817.269 235.188C821.515 236.679 824.251 238.855 825.556 241.653Z" stroke="white" stroke-width="2" stroke-dasharray="0,0,501.2801953125,543.0535449218751"><animate attributeType="XML" attributeName="stroke-dasharray" repeatCount="indefinite" dur="7.124687685566716s" values="0,0,501.2801953125,543.0535449218751; 
          0,543.0535449218751,501.2801953125,0; 
          501.2801953125,543.0535449218751,0,0" keyTimes="0; 0.52; 1"></animate></path>
<path d="M825.556 241.653C826.861 244.452 826.769 247.947 825.182 252.157C823.594 256.37 820.545 261.193 816.113 266.534C807.251 277.21 793.012 289.773 774.449 303.413C737.338 330.684 683.12 362.138 620.594 391.295C558.067 420.451 499.122 441.766 454.377 452.666C431.996 458.117 413.219 460.95 399.345 460.876C392.404 460.839 386.749 460.074 382.502 458.583C378.256 457.092 375.52 454.916 374.215 452.117C372.91 449.319 373.002 445.824 374.589 441.614C376.177 437.401 379.226 432.577 383.658 427.237C392.52 416.56 406.759 403.998 425.322 390.357C462.433 363.087 516.651 331.633 579.177 302.476C641.704 273.32 700.649 252.005 745.394 241.105C767.775 235.653 786.552 232.82 800.426 232.895C807.367 232.932 813.022 233.697 817.269 235.188C821.515 236.679 824.251 238.855 825.556 241.653Z" stroke="url(#paint6_linear_227_1539)" stroke-width="2" stroke-dasharray="0,0,501.2801953125,543.0535449218751"><animate attributeType="XML" attributeName="stroke-dasharray" repeatCount="indefinite" dur="5.84583242716653s" values="0,0,501.2801953125,543.0535449218751; 
          0,543.0535449218751,501.2801953125,0; 
          501.2801953125,543.0535449218751,0,0" keyTimes="0; 0.52; 1"></animate></path>
</g>
<g opacity="0.65">
<path d="M815.526 222.384C817.07 225.059 817.283 228.548 816.069 232.881C814.854 237.216 812.237 242.287 808.287 247.993C800.389 259.401 787.299 273.157 769.996 288.363C735.403 318.765 684.133 354.824 624.386 389.32C564.638 423.815 507.775 450.186 464.15 464.944C442.329 472.326 423.871 476.784 410.043 477.919C403.126 478.487 397.425 478.218 393.064 477.103C388.705 475.988 385.789 474.059 384.245 471.384C382.701 468.71 382.488 465.22 383.702 460.888C384.917 456.553 387.534 451.482 391.484 445.776C399.382 434.367 412.472 420.611 429.775 405.405C464.368 375.004 515.638 338.944 575.386 304.449C635.133 269.954 691.997 243.582 735.621 228.825C757.442 221.443 775.9 216.984 789.729 215.849C796.646 215.281 802.346 215.551 806.707 216.666C811.066 217.781 813.982 219.71 815.526 222.384Z" stroke="white" stroke-width="2" stroke-dasharray="0,0,501.28054687499997,543.05392578125"><animate attributeType="XML" attributeName="stroke-dasharray" repeatCount="indefinite" dur="6.542246937383636s" values="0,0,501.28054687499997,543.05392578125; 
          0,543.05392578125,501.28054687499997,0; 
          501.28054687499997,543.05392578125,0,0" keyTimes="0; 0.52; 1"></animate></path>
<path d="M815.526 222.384C817.07 225.059 817.283 228.548 816.069 232.881C814.854 237.216 812.237 242.287 808.287 247.993C800.389 259.401 787.299 273.157 769.996 288.363C735.403 318.765 684.133 354.824 624.386 389.32C564.638 423.815 507.775 450.186 464.15 464.944C442.329 472.326 423.871 476.784 410.043 477.919C403.126 478.487 397.425 478.218 393.064 477.103C388.705 475.988 385.789 474.059 384.245 471.384C382.701 468.71 382.488 465.22 383.702 460.888C384.917 456.553 387.534 451.482 391.484 445.776C399.382 434.367 412.472 420.611 429.775 405.405C464.368 375.004 515.638 338.944 575.386 304.449C635.133 269.954 691.997 243.582 735.621 228.825C757.442 221.443 775.9 216.984 789.729 215.849C796.646 215.281 802.346 215.551 806.707 216.666C811.066 217.781 813.982 219.71 815.526 222.384Z" stroke="url(#paint7_linear_227_1539)" stroke-width="2" stroke-dasharray="0,0,501.28054687499997,543.05392578125"><animate attributeType="XML" attributeName="stroke-dasharray" repeatCount="indefinite" dur="6.055065009519722s" values="0,0,501.28054687499997,543.05392578125; 
          0,543.05392578125,501.28054687499997,0; 
          501.28054687499997,543.05392578125,0,0" keyTimes="0; 0.52; 1"></animate></path>
</g>
<g opacity="0.6">
<path d="M803.854 204.064C805.625 206.593 806.142 210.051 805.31 214.473C804.477 218.897 802.312 224.177 798.874 230.206C792.001 242.259 780.16 257.104 764.248 273.76C732.436 307.061 684.504 347.452 627.991 387.023C571.477 426.594 517.128 457.821 474.955 476.325C453.861 485.58 435.862 491.631 422.185 493.967C415.344 495.135 409.642 495.364 405.2 494.633C400.76 493.902 397.688 492.234 395.916 489.705C394.145 487.175 393.629 483.718 394.461 479.296C395.293 474.871 397.458 469.592 400.896 463.563C407.769 451.509 419.611 436.665 435.522 420.009C467.334 386.708 515.266 346.317 571.78 306.746C628.294 267.175 682.642 235.947 724.815 217.444C745.909 208.188 763.908 202.138 777.585 199.802C784.427 198.633 790.128 198.405 794.571 199.136C799.01 199.866 802.083 201.534 803.854 204.064Z" stroke="white" stroke-width="2" stroke-dasharray="0,0,501.28037109375,543.0537353515625"><animate attributeType="XML" attributeName="stroke-dasharray" repeatCount="indefinite" dur="6.761237054813237s" values="0,0,501.28037109375,543.0537353515625; 
          0,543.0537353515625,501.28037109375,0; 
          501.28037109375,543.0537353515625,0,0" keyTimes="0; 0.52; 1"></animate></path>
<path d="M803.854 204.064C805.625 206.593 806.142 210.051 805.31 214.473C804.477 218.897 802.312 224.177 798.874 230.206C792.001 242.259 780.16 257.104 764.248 273.76C732.436 307.061 684.504 347.452 627.991 387.023C571.477 426.594 517.128 457.821 474.955 476.325C453.861 485.58 435.862 491.631 422.185 493.967C415.344 495.135 409.642 495.364 405.2 494.633C400.76 493.902 397.688 492.234 395.916 489.705C394.145 487.175 393.629 483.718 394.461 479.296C395.293 474.871 397.458 469.592 400.896 463.563C407.769 451.509 419.611 436.665 435.522 420.009C467.334 386.708 515.266 346.317 571.78 306.746C628.294 267.175 682.642 235.947 724.815 217.444C745.909 208.188 763.908 202.138 777.585 199.802C784.427 198.633 790.128 198.405 794.571 199.136C799.01 199.866 802.083 201.534 803.854 204.064Z" stroke="url(#paint8_linear_227_1539)" stroke-width="2" stroke-dasharray="0,0,501.28037109375,543.0537353515625"><animate attributeType="XML" attributeName="stroke-dasharray" repeatCount="indefinite" dur="5.972651355469049s" values="0,0,501.28037109375,543.0537353515625; 
          0,543.0537353515625,501.28037109375,0; 
          501.28037109375,543.0537353515625,0,0" keyTimes="0; 0.52; 1"></animate></path>
</g>
<g opacity="0.55">
<path d="M790.63 186.831C792.615 189.197 793.431 192.596 792.987 197.074C792.544 201.554 790.847 207.002 787.948 213.308C782.151 225.914 771.648 241.734 757.249 259.714C728.461 295.66 684.231 340.075 631.381 384.421C578.532 428.767 527.111 464.613 486.712 486.722C466.505 497.78 449.101 505.376 435.68 508.895C428.967 510.656 423.306 511.38 418.817 511.039C414.331 510.698 411.125 509.305 409.14 506.939C407.155 504.574 406.339 501.174 406.782 496.697C407.226 492.217 408.923 486.768 411.822 480.462C417.618 467.856 428.121 452.036 442.521 434.056C471.309 398.11 515.539 353.695 568.388 309.349C621.238 265.003 672.658 229.158 713.058 207.049C733.265 195.99 750.668 188.394 764.09 184.875C770.803 183.115 776.463 182.39 780.952 182.731C785.439 183.072 788.645 184.465 790.63 186.831Z" stroke="white" stroke-width="2" stroke-dasharray="0,0,501.28025390625,543.0536083984375"><animate attributeType="XML" attributeName="stroke-dasharray" repeatCount="indefinite" dur="5.859767917472954s" values="0,0,501.28025390625,543.0536083984375; 
          0,543.0536083984375,501.28025390625,0; 
          501.28025390625,543.0536083984375,0,0" keyTimes="0; 0.52; 1"></animate></path>
<path d="M790.63 186.831C792.615 189.197 793.431 192.596 792.987 197.074C792.544 201.554 790.847 207.002 787.948 213.308C782.151 225.914 771.648 241.734 757.249 259.714C728.461 295.66 684.231 340.075 631.381 384.421C578.532 428.767 527.111 464.613 486.712 486.722C466.505 497.78 449.101 505.376 435.68 508.895C428.967 510.656 423.306 511.38 418.817 511.039C414.331 510.698 411.125 509.305 409.14 506.939C407.155 504.574 406.339 501.174 406.782 496.697C407.226 492.217 408.923 486.768 411.822 480.462C417.618 467.856 428.121 452.036 442.521 434.056C471.309 398.11 515.539 353.695 568.388 309.349C621.238 265.003 672.658 229.158 713.058 207.049C733.265 195.99 750.668 188.394 764.09 184.875C770.803 183.115 776.463 182.39 780.952 182.731C785.439 183.072 788.645 184.465 790.63 186.831Z" stroke="url(#paint9_linear_227_1539)" stroke-width="2" stroke-dasharray="0,0,501.28025390625,543.0536083984375"><animate attributeType="XML" attributeName="stroke-dasharray" repeatCount="indefinite" dur="6.755583107477107s" values="0,0,501.28025390625,543.0536083984375; 
          0,543.0536083984375,501.28025390625,0; 
          501.28025390625,543.0536083984375,0,0" keyTimes="0; 0.52; 1"></animate></path>
</g>
<g opacity="0.5">
<path d="M775.954 170.816C778.138 173 779.247 176.315 779.195 180.814C779.144 185.316 777.929 190.892 775.59 197.426C770.914 210.49 761.83 227.165 749.053 246.331C723.507 284.65 683.317 332.751 634.533 381.534C585.75 430.318 537.649 470.508 499.33 496.054C480.164 508.831 463.489 517.915 450.425 522.591C443.891 524.93 438.315 526.145 433.814 526.196C429.314 526.248 425.999 525.139 423.815 522.955C421.632 520.772 420.523 517.456 420.574 512.957C420.626 508.456 421.841 502.88 424.18 496.346C428.855 483.282 437.939 466.607 450.717 447.44C476.263 409.122 516.453 361.021 565.237 312.238C614.02 263.454 662.121 223.264 700.44 197.718C719.606 184.94 736.281 175.856 749.345 171.181C755.879 168.842 761.455 167.627 765.956 167.575C770.455 167.524 773.771 168.633 775.954 170.816Z" stroke="white" stroke-width="2" stroke-dasharray="0,0,501.28001953125,543.0533544921875"><animate attributeType="XML" attributeName="stroke-dasharray" repeatCount="indefinite" dur="5.943502790158835s" values="0,0,501.28001953125,543.0533544921875; 
          0,543.0533544921875,501.28001953125,0; 
          501.28001953125,543.0533544921875,0,0" keyTimes="0; 0.52; 1"></animate></path>
<path d="M775.954 170.816C778.138 173 779.247 176.315 779.195 180.814C779.144 185.316 777.929 190.892 775.59 197.426C770.914 210.49 761.83 227.165 749.053 246.331C723.507 284.65 683.317 332.751 634.533 381.534C585.75 430.318 537.649 470.508 499.33 496.054C480.164 508.831 463.489 517.915 450.425 522.591C443.891 524.93 438.315 526.145 433.814 526.196C429.314 526.248 425.999 525.139 423.815 522.955C421.632 520.772 420.523 517.456 420.574 512.957C420.626 508.456 421.841 502.88 424.18 496.346C428.855 483.282 437.939 466.607 450.717 447.44C476.263 409.122 516.453 361.021 565.237 312.238C614.02 263.454 662.121 223.264 700.44 197.718C719.606 184.94 736.281 175.856 749.345 171.181C755.879 168.842 761.455 167.627 765.956 167.575C770.455 167.524 773.771 168.633 775.954 170.816Z" stroke="url(#paint10_linear_227_1539)" stroke-width="2" stroke-dasharray="0,0,501.28001953125,543.0533544921875"><animate attributeType="XML" attributeName="stroke-dasharray" repeatCount="indefinite" dur="6.145436741669716s" values="0,0,501.28001953125,543.0533544921875; 
          0,543.0533544921875,501.28001953125,0; 
          501.28001953125,543.0533544921875,0,0" keyTimes="0; 0.52; 1"></animate></path>
</g>
<g opacity="0.45">
<path d="M759.938 156.142C762.304 158.127 763.697 161.333 764.038 165.82C764.379 170.309 763.654 175.969 761.894 182.682C758.375 196.104 750.779 213.507 739.72 233.714C717.611 274.114 681.766 325.534 637.42 378.384C593.074 431.233 548.659 475.463 512.713 504.251C494.733 518.651 478.913 529.153 466.307 534.95C460.001 537.849 454.552 539.546 450.073 539.989C445.595 540.433 442.195 539.617 439.83 537.632C437.464 535.647 436.071 532.441 435.73 527.954C435.389 523.465 436.113 517.805 437.874 511.092C441.393 497.67 448.989 480.267 460.048 460.06C482.157 419.661 518.002 368.24 562.348 315.39C606.694 262.541 651.109 218.311 687.055 189.523C705.035 175.123 720.855 164.621 733.461 158.824C739.767 155.925 745.215 154.228 749.695 153.785C754.173 153.341 757.572 154.157 759.938 156.142Z" stroke="white" stroke-width="2" stroke-dasharray="0,0,501.28001953125,543.0533544921875"><animate attributeType="XML" attributeName="stroke-dasharray" repeatCount="indefinite" dur="6.5647137139863325s" values="0,0,501.28001953125,543.0533544921875; 
          0,543.0533544921875,501.28001953125,0; 
          501.28001953125,543.0533544921875,0,0" keyTimes="0; 0.52; 1"></animate></path>
<path d="M759.938 156.142C762.304 158.127 763.697 161.333 764.038 165.82C764.379 170.309 763.654 175.969 761.894 182.682C758.375 196.104 750.779 213.507 739.72 233.714C717.611 274.114 681.766 325.534 637.42 378.384C593.074 431.233 548.659 475.463 512.713 504.251C494.733 518.651 478.913 529.153 466.307 534.95C460.001 537.849 454.552 539.546 450.073 539.989C445.595 540.433 442.195 539.617 439.83 537.632C437.464 535.647 436.071 532.441 435.73 527.954C435.389 523.465 436.113 517.805 437.874 511.092C441.393 497.67 448.989 480.267 460.048 460.06C482.157 419.661 518.002 368.24 562.348 315.39C606.694 262.541 651.109 218.311 687.055 189.523C705.035 175.123 720.855 164.621 733.461 158.824C739.767 155.925 745.215 154.228 749.695 153.785C754.173 153.341 757.572 154.157 759.938 156.142Z" stroke="url(#paint11_linear_227_1539)" stroke-width="2" stroke-dasharray="0,0,501.28001953125,543.0533544921875"><animate attributeType="XML" attributeName="stroke-dasharray" repeatCount="indefinite" dur="6.560489664732059s" values="0,0,501.28001953125,543.0533544921875; 
          0,543.0533544921875,501.28001953125,0; 
          501.28001953125,543.0533544921875,0,0" keyTimes="0; 0.52; 1"></animate></path>
</g>
<g opacity="0.4">
<path d="M742.704 142.92C745.234 144.691 746.902 147.763 747.632 152.203C748.363 156.645 748.135 162.347 746.966 169.188C744.63 182.865 738.58 200.865 729.324 221.959C710.821 264.131 679.594 318.48 640.022 374.994C600.451 431.507 560.06 479.44 526.76 511.251C510.103 527.163 495.259 539.005 483.206 545.878C477.177 549.315 471.897 551.48 467.473 552.313C463.051 553.145 459.593 552.628 457.063 550.857C454.534 549.086 452.866 546.013 452.135 541.574C451.404 537.132 451.633 531.43 452.802 524.588C455.138 510.911 461.188 492.912 470.443 471.818C488.947 429.646 520.174 375.297 559.745 318.783C599.317 262.27 639.708 214.337 673.008 182.526C689.665 166.614 704.509 154.772 716.562 147.899C722.591 144.461 727.871 142.296 732.295 141.464C736.717 140.632 740.175 141.148 742.704 142.92Z" stroke="white" stroke-width="2" stroke-dasharray="0,0,501.28013671875,543.0534814453125"><animate attributeType="XML" attributeName="stroke-dasharray" repeatCount="indefinite" dur="6.806627477701011s" values="0,0,501.28013671875,543.0534814453125; 
          0,543.0534814453125,501.28013671875,0; 
          501.28013671875,543.0534814453125,0,0" keyTimes="0; 0.52; 1"></animate></path>
<path d="M742.704 142.92C745.234 144.691 746.902 147.763 747.632 152.203C748.363 156.645 748.135 162.347 746.966 169.188C744.63 182.865 738.58 200.865 729.324 221.959C710.821 264.131 679.594 318.48 640.022 374.994C600.451 431.507 560.06 479.44 526.76 511.251C510.103 527.163 495.259 539.005 483.206 545.878C477.177 549.315 471.897 551.48 467.473 552.313C463.051 553.145 459.593 552.628 457.063 550.857C454.534 549.086 452.866 546.013 452.135 541.574C451.404 537.132 451.633 531.43 452.802 524.588C455.138 510.911 461.188 492.912 470.443 471.818C488.947 429.646 520.174 375.297 559.745 318.783C599.317 262.27 639.708 214.337 673.008 182.526C689.665 166.614 704.509 154.772 716.562 147.899C722.591 144.461 727.871 142.296 732.295 141.464C736.717 140.632 740.175 141.148 742.704 142.92Z" stroke="url(#paint12_linear_227_1539)" stroke-width="2" stroke-dasharray="0,0,501.28013671875,543.0534814453125"><animate attributeType="XML" attributeName="stroke-dasharray" repeatCount="indefinite" dur="6.234382056487342s" values="0,0,501.28013671875,543.0534814453125; 
          0,543.0534814453125,501.28013671875,0; 
          501.28013671875,543.0534814453125,0,0" keyTimes="0; 0.52; 1"></animate></path>
</g>
<g opacity="0.35">
<path d="M724.383 131.244C727.057 132.788 728.987 135.704 730.101 140.063C731.217 144.425 731.486 150.125 730.918 157.042C729.783 170.87 725.324 189.329 717.943 211.149C703.185 254.774 676.813 311.637 642.318 371.385C607.823 431.132 571.763 482.402 541.362 516.995C526.156 534.298 512.4 547.389 500.992 555.286C495.285 559.236 490.214 561.853 485.879 563.068C481.547 564.282 478.057 564.069 475.383 562.525C472.709 560.981 470.779 558.066 469.665 553.706C468.549 549.345 468.28 543.645 468.848 536.728C469.983 522.899 474.442 504.441 481.823 482.621C496.581 438.996 522.953 382.132 557.448 322.385C591.943 262.637 628.002 211.367 658.404 176.774C673.61 159.471 687.366 146.381 698.774 138.484C704.481 134.533 709.552 131.916 713.887 130.702C718.219 129.487 721.709 129.7 724.383 131.244Z" stroke="white" stroke-width="2" stroke-dasharray="0,0,501.28025390625,543.0536083984375"><animate attributeType="XML" attributeName="stroke-dasharray" repeatCount="indefinite" dur="7.039665230587878s" values="0,0,501.28025390625,543.0536083984375; 
          0,543.0536083984375,501.28025390625,0; 
          501.28025390625,543.0536083984375,0,0" keyTimes="0; 0.52; 1"></animate></path>
<path d="M724.383 131.244C727.057 132.788 728.987 135.704 730.101 140.063C731.217 144.425 731.486 150.125 730.918 157.042C729.783 170.87 725.324 189.329 717.943 211.149C703.185 254.774 676.813 311.637 642.318 371.385C607.823 431.132 571.763 482.402 541.362 516.995C526.156 534.298 512.4 547.389 500.992 555.286C495.285 559.236 490.214 561.853 485.879 563.068C481.547 564.282 478.057 564.069 475.383 562.525C472.709 560.981 470.779 558.066 469.665 553.706C468.549 549.345 468.28 543.645 468.848 536.728C469.983 522.899 474.442 504.441 481.823 482.621C496.581 438.996 522.953 382.132 557.448 322.385C591.943 262.637 628.002 211.367 658.404 176.774C673.61 159.471 687.366 146.381 698.774 138.484C704.481 134.533 709.552 131.916 713.887 130.702C718.219 129.487 721.709 129.7 724.383 131.244Z" stroke="url(#paint13_linear_227_1539)" stroke-width="2" stroke-dasharray="0,0,501.28025390625,543.0536083984375"><animate attributeType="XML" attributeName="stroke-dasharray" repeatCount="indefinite" dur="6.128384211845501s" values="0,0,501.28025390625,543.0536083984375; 
          0,543.0536083984375,501.28025390625,0; 
          501.28025390625,543.0536083984375,0,0" keyTimes="0; 0.52; 1"></animate></path>
</g>
<g opacity="0.3">
<path d="M705.116 121.213C707.915 122.519 710.091 125.255 711.581 129.5C713.073 133.748 713.837 139.403 713.875 146.343C713.949 160.218 711.116 178.994 705.664 201.375C694.765 246.12 673.45 305.066 644.293 367.592C615.137 430.119 583.683 484.337 556.412 521.448C542.772 540.01 530.209 554.25 519.533 563.111C514.192 567.544 509.368 570.593 505.156 572.181C500.946 573.768 497.451 573.86 494.652 572.555C491.853 571.25 489.678 568.513 488.187 564.268C486.696 560.02 485.931 554.365 485.894 547.425C485.819 533.55 488.652 514.774 494.104 492.393C505.003 447.648 526.319 388.702 555.475 326.176C584.632 263.649 616.086 209.431 643.356 172.32C656.997 153.758 669.559 139.519 680.236 130.657C685.576 126.224 690.4 123.175 694.612 121.587C698.823 120 702.317 119.908 705.116 121.213Z" stroke="white" stroke-width="2" stroke-dasharray="0,0,501.28060546874997,543.0539892578125"><animate attributeType="XML" attributeName="stroke-dasharray" repeatCount="indefinite" dur="6.6133880659514475s" values="0,0,501.28060546874997,543.0539892578125; 
          0,543.0539892578125,501.28060546874997,0; 
          501.28060546874997,543.0539892578125,0,0" keyTimes="0; 0.52; 1"></animate></path>
<path d="M705.116 121.213C707.915 122.519 710.091 125.255 711.581 129.5C713.073 133.748 713.837 139.403 713.875 146.343C713.949 160.218 711.116 178.994 705.664 201.375C694.765 246.12 673.45 305.066 644.293 367.592C615.137 430.119 583.683 484.337 556.412 521.448C542.772 540.01 530.209 554.25 519.533 563.111C514.192 567.544 509.368 570.593 505.156 572.181C500.946 573.768 497.451 573.86 494.652 572.555C491.853 571.25 489.678 568.513 488.187 564.268C486.696 560.02 485.931 554.365 485.894 547.425C485.819 533.55 488.652 514.774 494.104 492.393C505.003 447.648 526.319 388.702 555.475 326.176C584.632 263.649 616.086 209.431 643.356 172.32C656.997 153.758 669.559 139.519 680.236 130.657C685.576 126.224 690.4 123.175 694.612 121.587C698.823 120 702.317 119.908 705.116 121.213Z" stroke="url(#paint14_linear_227_1539)" stroke-width="2" stroke-dasharray="0,0,501.28060546874997,543.0539892578125"><animate attributeType="XML" attributeName="stroke-dasharray" repeatCount="indefinite" dur="6.711363170779937s" values="0,0,501.28060546874997,543.0539892578125; 
          0,543.0539892578125,501.28060546874997,0; 
          501.28060546874997,543.0539892578125,0,0" keyTimes="0; 0.52; 1"></animate></path>
</g>
<g opacity="0.25">
<path d="M685.047 112.898C687.949 113.954 690.355 116.49 692.21 120.589C694.066 124.691 695.32 130.258 695.962 137.168C697.246 150.984 696.06 169.936 692.58 192.706C685.622 238.231 669.525 298.81 645.929 363.64C622.333 428.47 595.724 485.223 571.792 524.569C559.821 544.25 548.547 559.53 538.684 569.288C533.75 574.169 529.21 577.627 525.152 579.576C521.096 581.524 517.623 581.921 514.721 580.864C511.819 579.808 509.413 577.272 507.558 573.173C505.702 569.071 504.448 563.504 503.806 556.594C502.522 542.778 503.708 523.826 507.188 501.056C514.146 455.531 530.243 394.952 553.839 330.122C577.435 265.292 604.044 208.539 627.976 169.193C639.947 149.512 651.221 134.232 661.084 124.474C666.018 119.593 670.558 116.135 674.616 114.186C678.672 112.237 682.145 111.841 685.047 112.898Z" stroke="white" stroke-width="2" stroke-dasharray="0,0,501.28001953125,543.0533544921875"><animate attributeType="XML" attributeName="stroke-dasharray" repeatCount="indefinite" dur="6.84105649214608s" values="0,0,501.28001953125,543.0533544921875; 
          0,543.0533544921875,501.28001953125,0; 
          501.28001953125,543.0533544921875,0,0" keyTimes="0; 0.52; 1"></animate></path>
<path d="M685.047 112.898C687.949 113.954 690.355 116.49 692.21 120.589C694.066 124.691 695.32 130.258 695.962 137.168C697.246 150.984 696.06 169.936 692.58 192.706C685.622 238.231 669.525 298.81 645.929 363.64C622.333 428.47 595.724 485.223 571.792 524.569C559.821 544.25 548.547 559.53 538.684 569.288C533.75 574.169 529.21 577.627 525.152 579.576C521.096 581.524 517.623 581.921 514.721 580.864C511.819 579.808 509.413 577.272 507.558 573.173C505.702 569.071 504.448 563.504 503.806 556.594C502.522 542.778 503.708 523.826 507.188 501.056C514.146 455.531 530.243 394.952 553.839 330.122C577.435 265.292 604.044 208.539 627.976 169.193C639.947 149.512 651.221 134.232 661.084 124.474C666.018 119.593 670.558 116.135 674.616 114.186C678.672 112.237 682.145 111.841 685.047 112.898Z" stroke="url(#paint15_linear_227_1539)" stroke-width="2" stroke-dasharray="0,0,501.28001953125,543.0533544921875"><animate attributeType="XML" attributeName="stroke-dasharray" repeatCount="indefinite" dur="6.671780827337143s" values="0,0,501.28001953125,543.0533544921875; 
          0,543.0533544921875,501.28001953125,0; 
          501.28001953125,543.0533544921875,0,0" keyTimes="0; 0.52; 1"></animate></path>
</g>
<g opacity="0.2">
<path d="M664.33 106.367C667.313 107.166 669.931 109.483 672.136 113.405C674.342 117.329 676.078 122.766 677.319 129.594C679.802 143.245 680.273 162.228 678.79 185.215C675.826 231.173 665.071 292.925 647.215 359.564C629.359 426.204 607.797 485.06 587.385 526.343C577.175 546.992 567.276 563.196 558.301 573.777C553.811 579.07 549.59 582.91 545.718 585.206C541.847 587.5 538.421 588.197 535.438 587.398C532.455 586.599 529.837 584.282 527.632 580.36C525.426 576.435 523.691 570.999 522.449 564.171C519.966 550.52 519.496 531.537 520.978 508.549C523.942 462.591 534.698 400.84 552.554 334.2C570.41 267.561 591.971 208.705 612.383 167.422C622.593 146.773 632.492 130.568 641.468 119.987C645.957 114.695 650.178 110.854 654.051 108.559C657.922 106.265 661.347 105.568 664.33 106.367Z" stroke="white" stroke-width="2" stroke-dasharray="0,0,501.2804296875,543.053798828125"><animate attributeType="XML" attributeName="stroke-dasharray" repeatCount="indefinite" dur="6.384467414981259s" values="0,0,501.2804296875,543.053798828125; 
          0,543.053798828125,501.2804296875,0; 
          501.2804296875,543.053798828125,0,0" keyTimes="0; 0.52; 1"></animate></path>
<path d="M664.33 106.367C667.313 107.166 669.931 109.483 672.136 113.405C674.342 117.329 676.078 122.766 677.319 129.594C679.802 143.245 680.273 162.228 678.79 185.215C675.826 231.173 665.071 292.925 647.215 359.564C629.359 426.204 607.797 485.06 587.385 526.343C577.175 546.992 567.276 563.196 558.301 573.777C553.811 579.07 549.59 582.91 545.718 585.206C541.847 587.5 538.421 588.197 535.438 587.398C532.455 586.599 529.837 584.282 527.632 580.36C525.426 576.435 523.691 570.999 522.449 564.171C519.966 550.52 519.496 531.537 520.978 508.549C523.942 462.591 534.698 400.84 552.554 334.2C570.41 267.561 591.971 208.705 612.383 167.422C622.593 146.773 632.492 130.568 641.468 119.987C645.957 114.695 650.178 110.854 654.051 108.559C657.922 106.265 661.347 105.568 664.33 106.367Z" stroke="url(#paint16_linear_227_1539)" stroke-width="2" stroke-dasharray="0,0,501.2804296875,543.053798828125"><animate attributeType="XML" attributeName="stroke-dasharray" repeatCount="indefinite" dur="6.804619357610433s" values="0,0,501.2804296875,543.053798828125; 
          0,543.053798828125,501.2804296875,0; 
          501.2804296875,543.053798828125,0,0" keyTimes="0; 0.52; 1"></animate></path>
</g>
<g opacity="0.15">
<path d="M643.122 101.667C646.163 102.203 648.973 104.283 651.512 107.998C654.052 111.715 656.254 116.98 658.086 123.674C661.749 137.057 663.873 155.926 664.399 178.955C665.452 224.997 660.119 287.451 648.139 355.393C636.159 423.335 619.81 483.847 603.074 526.751C594.702 548.211 586.253 565.217 578.234 576.54C574.223 582.204 570.352 586.397 566.695 589.022C563.039 591.644 559.687 592.638 556.645 592.101C553.604 591.565 550.794 589.485 548.256 585.77C545.716 582.053 543.514 576.789 541.681 570.095C538.018 556.712 535.895 537.842 535.368 514.813C534.316 468.772 539.648 406.318 551.628 338.376C563.608 270.433 579.958 209.922 596.694 167.017C605.065 145.557 613.515 128.551 621.534 117.228C625.545 111.565 629.415 107.371 633.073 104.747C636.729 102.124 640.081 101.131 643.122 101.667Z" stroke="white" stroke-width="2" stroke-dasharray="0,0,501.2803125,543.053671875"><animate attributeType="XML" attributeName="stroke-dasharray" repeatCount="indefinite" dur="6.754698583750521s" values="0,0,501.2803125,543.053671875; 
          0,543.053671875,501.2803125,0; 
          501.2803125,543.053671875,0,0" keyTimes="0; 0.52; 1"></animate></path>
<path d="M643.122 101.667C646.163 102.203 648.973 104.283 651.512 107.998C654.052 111.715 656.254 116.98 658.086 123.674C661.749 137.057 663.873 155.926 664.399 178.955C665.452 224.997 660.119 287.451 648.139 355.393C636.159 423.335 619.81 483.847 603.074 526.751C594.702 548.211 586.253 565.217 578.234 576.54C574.223 582.204 570.352 586.397 566.695 589.022C563.039 591.644 559.687 592.638 556.645 592.101C553.604 591.565 550.794 589.485 548.256 585.77C545.716 582.053 543.514 576.789 541.681 570.095C538.018 556.712 535.895 537.842 535.368 514.813C534.316 468.772 539.648 406.318 551.628 338.376C563.608 270.433 579.958 209.922 596.694 167.017C605.065 145.557 613.515 128.551 621.534 117.228C625.545 111.565 629.415 107.371 633.073 104.747C636.729 102.124 640.081 101.131 643.122 101.667Z" stroke="url(#paint17_linear_227_1539)" stroke-width="2" stroke-dasharray="0,0,501.2803125,543.053671875"><animate attributeType="XML" attributeName="stroke-dasharray" repeatCount="indefinite" dur="5.9786616627962195s" values="0,0,501.2803125,543.053671875; 
          0,543.053671875,501.2803125,0; 
          501.2803125,543.053671875,0,0" keyTimes="0; 0.52; 1"></animate></path>
</g>
<g opacity="0.1">
<path d="M621.585 98.8289C624.661 99.0981 627.642 100.925 630.494 104.405C633.348 107.886 636.001 112.939 638.41 119.447C643.225 132.46 646.985 151.073 649.517 173.969C654.578 219.743 654.709 282.424 648.696 351.152C642.684 419.88 631.67 481.586 618.737 525.786C612.268 547.894 605.333 565.571 598.331 577.55C594.829 583.542 591.339 588.057 587.924 590.99C584.51 593.921 581.257 595.203 578.181 594.934C575.105 594.665 572.124 592.838 569.272 589.358C566.418 585.877 563.765 580.824 561.356 574.315C556.541 561.303 552.781 542.69 550.249 519.794C545.187 474.02 545.056 411.339 551.069 342.611C557.082 273.883 568.096 212.177 581.029 167.977C587.498 145.869 594.433 128.191 601.435 116.213C604.937 110.221 608.427 105.706 611.842 102.773C615.256 99.8414 618.508 98.5598 621.585 98.8289Z" stroke="white" stroke-width="2" stroke-dasharray="0,0,501.2801953125,543.0535449218751"><animate attributeType="XML" attributeName="stroke-dasharray" repeatCount="indefinite" dur="5.934333068517172s" values="0,0,501.2801953125,543.0535449218751; 
          0,543.0535449218751,501.2801953125,0; 
          501.2801953125,543.0535449218751,0,0" keyTimes="0; 0.52; 1"></animate></path>
<path d="M621.585 98.8289C624.661 99.0981 627.642 100.925 630.494 104.405C633.348 107.886 636.001 112.939 638.41 119.447C643.225 132.46 646.985 151.073 649.517 173.969C654.578 219.743 654.709 282.424 648.696 351.152C642.684 419.88 631.67 481.586 618.737 525.786C612.268 547.894 605.333 565.571 598.331 577.55C594.829 583.542 591.339 588.057 587.924 590.99C584.51 593.921 581.257 595.203 578.181 594.934C575.105 594.665 572.124 592.838 569.272 589.358C566.418 585.877 563.765 580.824 561.356 574.315C556.541 561.303 552.781 542.69 550.249 519.794C545.187 474.02 545.056 411.339 551.069 342.611C557.082 273.883 568.096 212.177 581.029 167.977C587.498 145.869 594.433 128.191 601.435 116.213C604.937 110.221 608.427 105.706 611.842 102.773C615.256 99.8414 618.508 98.5598 621.585 98.8289Z" stroke="url(#paint18_linear_227_1539)" stroke-width="2" stroke-dasharray="0,0,501.2801953125,543.0535449218751"><animate attributeType="XML" attributeName="stroke-dasharray" repeatCount="indefinite" dur="7.109960819247721s" values="0,0,501.2801953125,543.0535449218751; 
          0,543.0535449218751,501.2801953125,0; 
          501.2801953125,543.0535449218751,0,0" keyTimes="0; 0.52; 1"></animate></path>
</g>
<g opacity="0.05">
<path d="M599.884 97.8794C602.972 97.8794 606.1 99.4397 609.245 102.658C612.392 105.877 615.475 110.679 618.442 116.953C624.373 129.497 629.741 147.711 634.259 170.299C643.29 215.458 648.884 277.889 648.884 346.879C648.884 415.87 643.29 478.301 634.259 523.46C629.741 546.048 624.373 564.262 618.442 576.806C615.475 583.08 612.392 587.882 609.245 591.101C606.1 594.319 602.972 595.879 599.884 595.879C596.796 595.879 593.667 594.319 590.522 591.101C587.376 587.882 584.292 583.08 581.326 576.806C575.394 564.262 570.027 546.048 565.509 523.46C556.477 478.301 550.884 415.87 550.884 346.879C550.884 277.889 556.477 215.458 565.509 170.299C570.027 147.711 575.394 129.497 581.326 116.953C584.292 110.679 587.376 105.877 590.522 102.658C593.667 99.4397 596.796 97.8794 599.884 97.8794Z" stroke="white" stroke-width="2" stroke-dasharray="0,0,501.27984375,543.0531640625001"><animate attributeType="XML" attributeName="stroke-dasharray" repeatCount="indefinite" dur="5.885449437587153s" values="0,0,501.27984375,543.0531640625001; 
          0,543.0531640625001,501.27984375,0; 
          501.27984375,543.0531640625001,0,0" keyTimes="0; 0.52; 1"></animate></path>
<path d="M599.884 97.8794C602.972 97.8794 606.1 99.4397 609.245 102.658C612.392 105.877 615.475 110.679 618.442 116.953C624.373 129.497 629.741 147.711 634.259 170.299C643.29 215.458 648.884 277.889 648.884 346.879C648.884 415.87 643.29 478.301 634.259 523.46C629.741 546.048 624.373 564.262 618.442 576.806C615.475 583.08 612.392 587.882 609.245 591.101C606.1 594.319 602.972 595.879 599.884 595.879C596.796 595.879 593.667 594.319 590.522 591.101C587.376 587.882 584.292 583.08 581.326 576.806C575.394 564.262 570.027 546.048 565.509 523.46C556.477 478.301 550.884 415.87 550.884 346.879C550.884 277.889 556.477 215.458 565.509 170.299C570.027 147.711 575.394 129.497 581.326 116.953C584.292 110.679 587.376 105.877 590.522 102.658C593.667 99.4397 596.796 97.8794 599.884 97.8794Z" stroke="url(#paint19_linear_227_1539)" stroke-width="2" stroke-dasharray="0,0,501.27984375,543.0531640625001"><animate attributeType="XML" attributeName="stroke-dasharray" repeatCount="indefinite" dur="6.416331802008446s" values="0,0,501.27984375,543.0531640625001; 
          0,543.0531640625001,501.27984375,0; 
          501.27984375,543.0531640625001,0,0" keyTimes="0; 0.52; 1"></animate></path>
</g>
<defs>
<linearGradient id="paint0_linear_227_1539" x1="599.884" y1="296.883" x2="599.884" y2="396.883" gradientUnits="userSpaceOnUse">
<stop stop-color="#FF0935"></stop>
<stop offset="0.390625" stop-color="#DCFF09" stop-opacity="0"></stop>
</linearGradient>
<linearGradient id="paint1_linear_227_1539" x1="604.243" y1="297.073" x2="595.527" y2="396.693" gradientUnits="userSpaceOnUse">
<stop stop-color="#FF0935"></stop>
<stop offset="0.390625" stop-color="#DCFF09" stop-opacity="0"></stop>
</linearGradient>
<linearGradient id="paint2_linear_227_1539" x1="595.527" y1="297.073" x2="604.242" y2="396.692" gradientUnits="userSpaceOnUse">
<stop stop-color="#FF0935"></stop>
<stop offset="0.390625" stop-color="#DCFF09" stop-opacity="0"></stop>
</linearGradient>
<linearGradient id="paint3_linear_227_1539" x1="591.202" y1="297.643" x2="608.567" y2="396.123" gradientUnits="userSpaceOnUse">
<stop stop-color="#FF0935"></stop>
<stop offset="0.390625" stop-color="#DCFF09" stop-opacity="0"></stop>
</linearGradient>
<linearGradient id="paint4_linear_227_1539" x1="586.943" y1="298.587" x2="612.825" y2="395.179" gradientUnits="userSpaceOnUse">
<stop stop-color="#FF0935"></stop>
<stop offset="0.390625" stop-color="#DCFF09" stop-opacity="0"></stop>
</linearGradient>
<linearGradient id="paint5_linear_227_1539" x1="582.784" y1="299.899" x2="616.986" y2="393.868" gradientUnits="userSpaceOnUse">
<stop stop-color="#FF0935"></stop>
<stop offset="0.390625" stop-color="#DCFF09" stop-opacity="0"></stop>
</linearGradient>
<linearGradient id="paint6_linear_227_1539" x1="578.755" y1="301.57" x2="621.016" y2="392.201" gradientUnits="userSpaceOnUse">
<stop stop-color="#FF0935"></stop>
<stop offset="0.390625" stop-color="#DCFF09" stop-opacity="0"></stop>
</linearGradient>
<linearGradient id="paint7_linear_227_1539" x1="574.886" y1="303.583" x2="624.886" y2="390.186" gradientUnits="userSpaceOnUse">
<stop stop-color="#FF0935"></stop>
<stop offset="0.390625" stop-color="#DCFF09" stop-opacity="0"></stop>
</linearGradient>
<linearGradient id="paint8_linear_227_1539" x1="571.206" y1="305.927" x2="628.564" y2="387.842" gradientUnits="userSpaceOnUse">
<stop stop-color="#FF0935"></stop>
<stop offset="0.390625" stop-color="#DCFF09" stop-opacity="0"></stop>
</linearGradient>
<linearGradient id="paint9_linear_227_1539" x1="567.745" y1="308.583" x2="632.024" y2="385.187" gradientUnits="userSpaceOnUse">
<stop stop-color="#FF0935"></stop>
<stop offset="0.390625" stop-color="#DCFF09" stop-opacity="0"></stop>
</linearGradient>
<linearGradient id="paint10_linear_227_1539" x1="564.53" y1="311.53" x2="635.24" y2="382.241" gradientUnits="userSpaceOnUse">
<stop stop-color="#FF0935"></stop>
<stop offset="0.390625" stop-color="#DCFF09" stop-opacity="0"></stop>
</linearGradient>
<linearGradient id="paint11_linear_227_1539" x1="561.582" y1="314.748" x2="638.186" y2="379.026" gradientUnits="userSpaceOnUse">
<stop stop-color="#FF0935"></stop>
<stop offset="0.390625" stop-color="#DCFF09" stop-opacity="0"></stop>
</linearGradient>
<linearGradient id="paint12_linear_227_1539" x1="558.926" y1="318.21" x2="640.841" y2="375.567" gradientUnits="userSpaceOnUse">
<stop stop-color="#FF0935"></stop>
<stop offset="0.390625" stop-color="#DCFF09" stop-opacity="0"></stop>
</linearGradient>
<linearGradient id="paint13_linear_227_1539" x1="556.582" y1="321.885" x2="643.184" y2="371.885" gradientUnits="userSpaceOnUse">
<stop stop-color="#FF0935"></stop>
<stop offset="0.390625" stop-color="#DCFF09" stop-opacity="0"></stop>
</linearGradient>
<linearGradient id="paint14_linear_227_1539" x1="554.569" y1="325.753" x2="645.2" y2="368.015" gradientUnits="userSpaceOnUse">
<stop stop-color="#FF0935"></stop>
<stop offset="0.390625" stop-color="#DCFF09" stop-opacity="0"></stop>
</linearGradient>
<linearGradient id="paint15_linear_227_1539" x1="552.899" y1="329.78" x2="646.869" y2="363.982" gradientUnits="userSpaceOnUse">
<stop stop-color="#FF0935"></stop>
<stop offset="0.390625" stop-color="#DCFF09" stop-opacity="0"></stop>
</linearGradient>
<linearGradient id="paint16_linear_227_1539" x1="551.588" y1="333.941" x2="648.18" y2="359.823" gradientUnits="userSpaceOnUse">
<stop stop-color="#FF0935"></stop>
<stop offset="0.390625" stop-color="#DCFF09" stop-opacity="0"></stop>
</linearGradient>
<linearGradient id="paint17_linear_227_1539" x1="550.643" y1="338.202" x2="649.124" y2="355.567" gradientUnits="userSpaceOnUse">
<stop stop-color="#FF0935"></stop>
<stop offset="0.390625" stop-color="#DCFF09" stop-opacity="0"></stop>
</linearGradient>
<linearGradient id="paint18_linear_227_1539" x1="550.073" y1="342.524" x2="649.693" y2="351.239" gradientUnits="userSpaceOnUse">
<stop stop-color="#FF0935"></stop>
<stop offset="0.390625" stop-color="#DCFF09" stop-opacity="0"></stop>
</linearGradient>
<linearGradient id="paint19_linear_227_1539" x1="549.884" y1="346.879" x2="649.884" y2="346.879" gradientUnits="userSpaceOnUse">
<stop stop-color="#FF0935"></stop>
<stop offset="0.390625" stop-color="#DCFF09" stop-opacity="0"></stop>
</linearGradient>
</defs>
<setting_name>pattern_01</setting_name><setting>{"type":"loader","speed":7,"random":0.8,"shift":1,"size":1,"rupture":30}</setting></svg>