<?xml version="1.0" standalone="no"?>
<svg id="sphero" width="200" height="200" viewBox="0 0 200 200" fill="none" xmlns="http://www.w3.org/2000/svg" style="max-width: 100%; max-height: 100%;">
<rect width="200" height="200" fill="white" stroke-dasharray="0,0,234.80617570868515,565.1938242913149"><animate attributeType="XML" attributeName="stroke-dasharray" repeatCount="indefinite" dur="2.1216614709427772s" values="0,0,234.80617570868515,565.1938242913149; 
          0,565.1938242913149,234.80617570868515,0; 
          234.80617570868515,565.1938242913149,0,0" keyTimes="0; 0.7064922803641436; 1" begin="0.557008297352383s"></animate></rect>
<path d="M121 136.373C101.984 147.352 82.391 153.074 66.1144 153.49C49.794 153.907 37.0707 149.003 31.3342 139.067C25.5976 129.131 27.7121 115.66 36.2338 101.735C44.7325 87.8472 59.4844 73.7397 78.5002 62.7609C97.516 51.7822 117.109 46.0604 133.386 45.6442C149.706 45.2269 162.43 50.131 168.166 60.067C173.903 70.003 171.788 83.4737 163.267 97.399C154.768 111.287 140.016 125.394 121 136.373Z" stroke="#F89BA5" stroke-width="2" stroke-dasharray="0,0,126.65960427060489,263.61877707705133"><animate attributeType="XML" attributeName="stroke-dasharray" repeatCount="indefinite" dur="2.0740780799223s" values="0,0,126.65960427060489,263.61877707705133; 
          0,263.61877707705133,126.65960427060489,0; 
          126.65960427060489,263.61877707705133,0,0" keyTimes="0; 0.6754634375769388; 1" begin="0.6590230916909241s"></animate></path>
<path d="M121 136.373C101.984 147.352 82.391 153.074 66.1144 153.49C49.794 153.907 37.0707 149.003 31.3342 139.067C25.5976 129.131 27.7121 115.66 36.2338 101.735C44.7325 87.8472 59.4844 73.7397 78.5002 62.7609C97.516 51.7822 117.109 46.0604 133.386 45.6442C149.706 45.2269 162.43 50.131 168.166 60.067C173.903 70.003 171.788 83.4737 163.267 97.399C154.768 111.287 140.016 125.394 121 136.373Z" stroke="#FFD028" stroke-width="2" stroke-dasharray="0,0,115.59830264480732,274.6800787028489"><animate attributeType="XML" attributeName="stroke-dasharray" repeatCount="indefinite" dur="2.2323607533204584s" values="0,0,115.59830264480732,274.6800787028489; 
          0,274.6800787028489,115.59830264480732,0; 
          115.59830264480732,274.6800787028489,0,0" keyTimes="0; 0.7038055189077115; 1" begin="0.4922695558551316s"></animate></path>
<path d="M121 136.373C101.984 147.352 82.391 153.074 66.1144 153.49C49.794 153.907 37.0707 149.003 31.3342 139.067C25.5976 129.131 27.7121 115.66 36.2338 101.735C44.7325 87.8472 59.4844 73.7397 78.5002 62.7609C97.516 51.7822 117.109 46.0604 133.386 45.6442C149.706 45.2269 162.43 50.131 168.166 60.067C173.903 70.003 171.788 83.4737 163.267 97.399C154.768 111.287 140.016 125.394 121 136.373Z" stroke="#F95E28" stroke-width="2" stroke-dasharray="0,0,117.06681773388048,273.21156361377575"><animate attributeType="XML" attributeName="stroke-dasharray" repeatCount="indefinite" dur="2.1947516912297442s" values="0,0,117.06681773388048,273.21156361377575; 
          0,273.21156361377575,117.06681773388048,0; 
          117.06681773388048,273.21156361377575,0,0" keyTimes="0; 0.7000427814381076; 1" begin="0.4799522005180586s"></animate></path>
<path d="M121 136.373C101.984 147.352 82.391 153.074 66.1144 153.49C49.794 153.907 37.0707 149.003 31.3342 139.067C25.5976 129.131 27.7121 115.66 36.2338 101.735C44.7325 87.8472 59.4844 73.7397 78.5002 62.7609C97.516 51.7822 117.109 46.0604 133.386 45.6442C149.706 45.2269 162.43 50.131 168.166 60.067C173.903 70.003 171.788 83.4737 163.267 97.399C154.768 111.287 140.016 125.394 121 136.373Z" stroke="#462BD8" stroke-width="2" stroke-dasharray="0,0,121.0148362924359,269.26354505522033"><animate attributeType="XML" attributeName="stroke-dasharray" repeatCount="indefinite" dur="2.450034674995067s" values="0,0,121.0148362924359,269.26354505522033; 
          0,269.26354505522033,121.0148362924359,0; 
          121.0148362924359,269.26354505522033,0,0" keyTimes="0; 0.6899268776441987; 1" begin="1.1399045343772913s"></animate></path>
<path d="M131.299 153.521C119.54 160.31 107.44 163.838 97.4115 164.095C87.3397 164.352 79.6204 161.322 76.162 155.332C72.7036 149.342 73.9392 141.142 79.1982 132.548C84.4343 123.992 93.5397 115.277 105.299 108.488C117.058 101.699 129.158 98.1708 139.186 97.9144C149.258 97.6568 156.977 100.687 160.435 106.677C163.894 112.667 162.658 120.867 157.399 129.461C152.163 138.017 143.058 146.732 131.299 153.521Z" stroke="#F89BA5" stroke-width="2" stroke-dasharray="0,0,65.51490694120302,174.34272855684387"><animate attributeType="XML" attributeName="stroke-dasharray" repeatCount="indefinite" dur="2.3603447223175325s" values="0,0,65.51490694120302,174.34272855684387; 
          0,174.34272855684387,65.51490694120302,0; 
          65.51490694120302,174.34272855684387,0,0" keyTimes="0; 0.7268591979356167; 1" begin="1.1406189176082508s"></animate></path>
<path d="M131.299 153.521C119.54 160.31 107.44 163.838 97.4115 164.095C87.3397 164.352 79.6204 161.322 76.162 155.332C72.7036 149.342 73.9392 141.142 79.1982 132.548C84.4343 123.992 93.5397 115.277 105.299 108.488C117.058 101.699 129.158 98.1708 139.186 97.9144C149.258 97.6568 156.977 100.687 160.435 106.677C163.894 112.667 162.658 120.867 157.399 129.461C152.163 138.017 143.058 146.732 131.299 153.521Z" stroke="#FFD028" stroke-width="2" stroke-dasharray="0,0,73.56643585486306,166.29119964318383"><animate attributeType="XML" attributeName="stroke-dasharray" repeatCount="indefinite" dur="2.06033821425934s" values="0,0,73.56643585486306,166.29119964318383; 
          0,166.29119964318383,73.56643585486306,0; 
          73.56643585486306,166.29119964318383,0,0" keyTimes="0; 0.6932912487771852; 1" begin="0.04688003329845331s"></animate></path>
<path d="M131.299 153.521C119.54 160.31 107.44 163.838 97.4115 164.095C87.3397 164.352 79.6204 161.322 76.162 155.332C72.7036 149.342 73.9392 141.142 79.1982 132.548C84.4343 123.992 93.5397 115.277 105.299 108.488C117.058 101.699 129.158 98.1708 139.186 97.9144C149.258 97.6568 156.977 100.687 160.435 106.677C163.894 112.667 162.658 120.867 157.399 129.461C152.163 138.017 143.058 146.732 131.299 153.521Z" stroke="#F95E28" stroke-width="2" stroke-dasharray="0,0,66.82802424833764,173.0296112497092"><animate attributeType="XML" attributeName="stroke-dasharray" repeatCount="indefinite" dur="2.2546301569719205s" values="0,0,66.82802424833764,173.0296112497092; 
          0,173.0296112497092,66.82802424833764,0; 
          66.82802424833764,173.0296112497092,0,0" keyTimes="0; 0.7213846283876928; 1" begin="0.7112665431414898s"></animate></path>
<path d="M131.299 153.521C119.54 160.31 107.44 163.838 97.4115 164.095C87.3397 164.352 79.6204 161.322 76.162 155.332C72.7036 149.342 73.9392 141.142 79.1982 132.548C84.4343 123.992 93.5397 115.277 105.299 108.488C117.058 101.699 129.158 98.1708 139.186 97.9144C149.258 97.6568 156.977 100.687 160.435 106.677C163.894 112.667 162.658 120.867 157.399 129.461C152.163 138.017 143.058 146.732 131.299 153.521Z" stroke="#462BD8" stroke-width="2" stroke-dasharray="0,0,70.52150720037913,169.33612829766773"><animate attributeType="XML" attributeName="stroke-dasharray" repeatCount="indefinite" dur="2.369505532455033s" values="0,0,70.52150720037913,169.33612829766773; 
          0,169.33612829766773,70.52150720037913,0; 
          70.52150720037913,169.33612829766773,0,0" keyTimes="0; 0.7059859818348231; 1" begin="0.49371750880690213s"></animate></path>
<path d="M95.2986 91.1673C83.5397 97.9563 71.4395 101.484 61.4115 101.741C51.3397 101.998 43.6204 98.9683 40.162 92.9783C36.7036 86.9882 37.9392 78.788 43.1982 70.1943C48.4343 61.6381 57.5397 52.923 69.2986 46.134C81.0575 39.345 93.1577 35.817 103.186 35.5605C113.258 35.303 120.977 38.333 124.435 44.3231C127.894 50.3132 126.658 58.5133 121.399 67.107C116.163 75.6633 107.058 84.3783 95.2986 91.1673Z" stroke="#F89BA5" stroke-width="2" stroke-dasharray="0,0,65.22500125708272,174.6327410524876"><animate attributeType="XML" attributeName="stroke-dasharray" repeatCount="indefinite" dur="2.308528163126819s" values="0,0,65.22500125708272,174.6327410524876; 
          0,174.6327410524876,65.22500125708272,0; 
          65.22500125708272,174.6327410524876,0,0" keyTimes="0; 0.7280679763386556; 1" begin="0.2506023650541874s"></animate></path>
<path d="M95.2986 91.1673C83.5397 97.9563 71.4395 101.484 61.4115 101.741C51.3397 101.998 43.6204 98.9683 40.162 92.9783C36.7036 86.9882 37.9392 78.788 43.1982 70.1943C48.4343 61.6381 57.5397 52.923 69.2986 46.134C81.0575 39.345 93.1577 35.817 103.186 35.5605C113.258 35.303 120.977 38.333 124.435 44.3231C127.894 50.3132 126.658 58.5133 121.399 67.107C116.163 75.6633 107.058 84.3783 95.2986 91.1673Z" stroke="#FFD028" stroke-width="2" stroke-dasharray="0,0,75.2682437221602,164.58949858741013"><animate attributeType="XML" attributeName="stroke-dasharray" repeatCount="indefinite" dur="2.1332382198738156s" values="0,0,75.2682437221602,164.58949858741013; 
          0,164.58949858741013,75.2682437221602,0; 
          75.2682437221602,164.58949858741013,0,0" keyTimes="0; 0.6861963137090823; 1" begin="0.545612183004077s"></animate></path>
<path d="M95.2986 91.1673C83.5397 97.9563 71.4395 101.484 61.4115 101.741C51.3397 101.998 43.6204 98.9683 40.162 92.9783C36.7036 86.9882 37.9392 78.788 43.1982 70.1943C48.4343 61.6381 57.5397 52.923 69.2986 46.134C81.0575 39.345 93.1577 35.817 103.186 35.5605C113.258 35.303 120.977 38.333 124.435 44.3231C127.894 50.3132 126.658 58.5133 121.399 67.107C116.163 75.6633 107.058 84.3783 95.2986 91.1673Z" stroke="#F95E28" stroke-width="2" stroke-dasharray="0,0,64.68655440787668,175.17118790169363"><animate attributeType="XML" attributeName="stroke-dasharray" repeatCount="indefinite" dur="2.348274256002496s" values="0,0,64.68655440787668,175.17118790169363; 
          0,175.17118790169363,64.68655440787668,0; 
          64.68655440787668,175.17118790169363,0,0" keyTimes="0; 0.7303128354956767; 1" begin="1.0085086414875666s"></animate></path>
<path d="M95.2986 91.1673C83.5397 97.9563 71.4395 101.484 61.4115 101.741C51.3397 101.998 43.6204 98.9683 40.162 92.9783C36.7036 86.9882 37.9392 78.788 43.1982 70.1943C48.4343 61.6381 57.5397 52.923 69.2986 46.134C81.0575 39.345 93.1577 35.817 103.186 35.5605C113.258 35.303 120.977 38.333 124.435 44.3231C127.894 50.3132 126.658 58.5133 121.399 67.107C116.163 75.6633 107.058 84.3783 95.2986 91.1673Z" stroke="#462BD8" stroke-width="2" stroke-dasharray="0,0,68.25982879565676,171.59791351391357"><animate attributeType="XML" attributeName="stroke-dasharray" repeatCount="indefinite" dur="2.1464462123369987s" values="0,0,68.25982879565676,171.59791351391357; 
          0,171.59791351391357,68.25982879565676,0; 
          68.25982879565676,171.59791351391357,0,0" keyTimes="0; 0.715415361879135; 1" begin="0.04347145986948686s"></animate></path>
<setting_name>loader_01</setting_name><setting>{"type":"loader","speed":20,"random":0.8,"shift":0.5,"size":0.8,"rupture":21}</setting></svg>